<?xml version="1.0" encoding="utf-8"?>
<!-- Generator: Adobe Illustrator 26.0.1, SVG Export Plug-In . SVG Version: 6.00 Build 0)  -->
<svg version="1.1" id="ae1a5cd3-e978-4cb9-b54a-10e1b5e9949e"
	 xmlns="http://www.w3.org/2000/svg" xmlns:xlink="http://www.w3.org/1999/xlink" x="0px" y="0px" viewBox="0 0 612.2 232.1"
	 style="enable-background:new 0 0 612.2 232.1;" xml:space="preserve">
<style type="text/css">
	.st0{opacity:0.6;}
	
		.st1{opacity:0.1;fill:none;stroke:#C2B196;stroke-width:0.2;stroke-linecap:round;stroke-linejoin:round;enable-background:new    ;}
	
		.st2{opacity:0.3;fill:none;stroke:#C2B196;stroke-width:0.2;stroke-linecap:round;stroke-linejoin:round;enable-background:new    ;}
	
		.st3{opacity:0.2;fill:none;stroke:#C2B196;stroke-width:0.2;stroke-linecap:round;stroke-linejoin:round;enable-background:new    ;}
	
		.st4{opacity:0.4;fill:none;stroke:#C2B196;stroke-width:0.2;stroke-linecap:round;stroke-linejoin:round;enable-background:new    ;}
	
		.st5{opacity:0.5;fill:none;stroke:#C2B196;stroke-width:0.2;stroke-linecap:round;stroke-linejoin:round;enable-background:new    ;}
	
		.st6{opacity:0.6;fill:none;stroke:#C2B196;stroke-width:0.2;stroke-linecap:round;stroke-linejoin:round;enable-background:new    ;}
	
		.st7{opacity:0.7;fill:none;stroke:#C2B196;stroke-width:0.2;stroke-linecap:round;stroke-linejoin:round;enable-background:new    ;}
	
		.st8{opacity:0.8;fill:none;stroke:#C2B196;stroke-width:0.2;stroke-linecap:round;stroke-linejoin:round;enable-background:new    ;}
	
		.st9{opacity:0.9;fill:none;stroke:#C2B196;stroke-width:0.2;stroke-linecap:round;stroke-linejoin:round;enable-background:new    ;}
	.st10{fill:none;stroke:#C2B196;stroke-width:0.2;stroke-linecap:round;stroke-linejoin:round;}
	
		.st11{opacity:5.000000e-02;fill:none;stroke:#C2B196;stroke-width:0.2;stroke-linecap:round;stroke-linejoin:round;enable-background:new    ;}
	.st12{opacity:0.5;}
	.st13{opacity:0.4;fill:none;stroke:#D8D7D6;stroke-width:0.2;stroke-miterlimit:10;enable-background:new    ;}
	.st14{opacity:0.5;fill:none;stroke:#D8D7D6;stroke-width:0.2;stroke-miterlimit:10;enable-background:new    ;}
	.st15{opacity:0.6;fill:none;stroke:#D8D7D6;stroke-width:0.2;stroke-miterlimit:10;enable-background:new    ;}
	.st16{opacity:0.7;fill:none;stroke:#D8D7D6;stroke-width:0.2;stroke-miterlimit:10;enable-background:new    ;}
	.st17{opacity:0.8;fill:none;stroke:#D8D7D6;stroke-width:0.2;stroke-miterlimit:10;enable-background:new    ;}
	.st18{opacity:0.9;fill:none;stroke:#D8D7D6;stroke-width:0.2;stroke-miterlimit:10;enable-background:new    ;}
	.st19{fill:none;stroke:#D8D7D6;stroke-width:0.2;stroke-miterlimit:10;}
	.st20{opacity:0.3;fill:none;stroke:#D8D7D6;stroke-width:0.2;stroke-miterlimit:10;enable-background:new    ;}
	.st21{opacity:0.2;fill:none;stroke:#D8D7D6;stroke-width:0.2;stroke-miterlimit:10;enable-background:new    ;}
	.st22{opacity:0.1;fill:none;stroke:#D8D7D6;stroke-width:0.2;stroke-miterlimit:10;enable-background:new    ;}
</style>
<g class="st0">
	<path class="st1" d="M102.3,228.6c7.7-3.3,13.7-8.3,20.7-12.3c2-1,3-1,5-2c8-5,16-10,24-14l3-3c12-8,24-12,35-21c2-1,5-2,7-3
		c46-27,95-47,148-40c22,4,42,8,61,21c14,10,28,19,41,30c8,7,16,13,25,20c4.1,4.3,8.4,8.3,13,12c6,4,11,8,17.4,12.1"/>
	<path class="st1" d="M100.7,228.6c14.3-6.3,26.3-14.3,40.3-22.3c8-5,15-10,24-15c24-13,48-27,73-39c4-1,8-1,12-3c9-5,19-8,29-10
		c36-10,73-8,107,6c45,19,78,55,116.2,83.2"/>
	<path class="st2" d="M98.8,228.5c26.1-14.1,51.5-29.4,77.5-43.8c24.6-13.5,48.9-27.7,75.4-37.3c27.8-10,58.5-15.9,88-11.8
		c15,2.1,30.4,4.9,44.5,10.4c13.2,5.2,25.5,13,37.3,20.9c24.6,16.3,46.1,36.6,69.5,54.5c3.1,2.3,6.1,4.6,9.3,6.9"/>
	<path class="st2" d="M99.3,228.6c26.6-13.3,50.6-30.3,77.6-45.3c10-5,20-9,30-14c8.6-5.8,17.6-10.8,27-15c8-3,17-6,25-9
		c31-9,62-13,95-7c29,6,53,18,77,36c24,19,44,38,68.4,54.1"/>
	<path class="st3" d="M98,228.6c12-5.4,23.7-11.5,35-18.3c50-29,95-59,153-70c36-7,70-3,102,12c2,1,5,0,7,1c9,6,18,10,27,16
		c26,21,50,40,75.8,59.2"/>
	<path class="st4" d="M97.6,228.3c25.7-13.9,50.6-29.1,76.2-43.3c24.3-13.5,49.3-26,75.8-34.8c27-9,55.9-14.3,84.3-12
		c15.5,1.3,29.9,5.6,44.5,10.7c6.8,2.4,13.7,4.5,20.1,7.8c6.2,3.2,12.1,7.2,18.1,10.7c25.7,15.1,47,37,71.3,54.1
		c3.1,2.2,6.3,4.4,9.4,6.6"/>
	<path class="st4" d="M96.8,228.4c28.2-16.1,55.2-32.1,84.2-47.1c42-22,84-41,131-42c20,0,40,2,60,8c21,7,39,17,58,30
		c16,12,29,23,45,34c8,6,15,11,22.9,17.2"/>
	<path class="st5" d="M95.2,228.6c21.8-9.4,39.8-25.4,62.8-33.3c17-12,36-21,55-30c6-3,11-4,17-7c42-17,89-24,134-11
		c22,7,42,15,60,29c3,2,5,2,8,4c17,12,30,25,47,37c6,4,11,7,16,11.1"/>
	<path class="st5" d="M94.1,228.4C133,207.2,170,185.2,210,167.2c7-3,15-6,22-9c3-1,5-1,8-2c46-18,98-21,143-2
		c41,18,74,49,111.1,74.3"/>
	<path class="st5" d="M92.8,228.6c6.2-3.3,11.2-5.3,17.2-8.3c68-40,136-81,215-76c27.6,1.1,54.5,8.2,79,21c33,18,59,43,89.2,63"/>
	<path class="st6" d="M92.2,228.6c5.8-4.2,12.8-7.2,19.8-10.2c8-4,16-9,24-14c26-15,51-27,77-39h4c50-23,109-28,161-9c2,1,4,3,7,4
		c12,4,22,9,33,15c27,17,49,37,74.5,53.3"/>
	<path class="st7" d="M91.6,228.4c18.3-11.1,36.3-20.1,55.3-31.1c8-5,17-8,25-12c45-25,94-41,145-40c22.6,1.1,44.9,5.8,66,14
		c40,16,72,45,107.3,69.1"/>
	<path class="st7" d="M89.5,228.6c26.1-13.5,51.7-27.9,77.9-41c26-12.9,52.8-24.6,80.9-31.9s57.5-10.1,86.3-6.5
		c28.1,3.5,54.4,13.5,78.9,27.6c23.6,13.6,45.4,30.1,67.7,45.7c2.9,2,5.7,4,8.6,5.9"/>
	<path class="st8" d="M87.6,228.6c31.3-16.2,61.4-33.2,93.4-49.2c2-1,5-1,7-2c41-21,87-32,133-29c41,2,77,20,113,42
		c2.5,1.8,4.9,3.8,7,6c9,5,16,10,24,15c8,6,16,11,23.9,17.3"/>
	<path class="st8" d="M87.6,228.4c26-13.4,51.6-27.6,77.9-40.4c25.9-12.6,52.7-23.7,80.7-30.6s57.1-9.3,85.7-5.8
		c27.9,3.4,54.3,13,78.8,26.5c23.9,13.2,45.9,29.3,68.4,44.6c2.8,1.9,5.7,3.9,8.6,5.8"/>
	<path class="st8" d="M85.4,228.5C125,210.3,161,185.3,204,172.3c3-1,5-3,8-4c2-1,3,0,5-1c3-1,5-3,8-4l9-3c43-13,88-14,132-1
		c46,14,81,45,121,69.3"/>
	<path class="st9" d="M85.5,228.4C119,210.3,152,192.3,187,177.3c2-1,3,0,5-1c44-19,91-30,140-23c33,5,61,17,90,34
		c22,14,42,27,62.3,41.2"/>
	<path class="st9" d="M84.3,228.4C162,187.2,244,138.2,339,157.2h5c54,12,95,42,139.3,71"/>
	<path class="st10" d="M81.6,228.6c26.1-13.3,51.8-27.6,78.4-39.9c24.7-11.4,50.4-21.1,76.9-27.4c27.2-6.4,55.1-9.4,83-6.6
		c28.5,3,56.2,11.1,81.9,23.8c12.4,6.1,24.4,12.8,36,20.2c12,7.5,24.2,15.4,35.6,23.9c2.4,1.8,5.1,5.1,7.9,6"/>
	<path class="st9" d="M82.7,228.3c12.3-6.1,23.3-12.1,35.3-17.1c13-7,25-16,39-22c6-2,12-3,17-5c67-33,146-41,214-10c2,1,3,0,5,1
		c10,4,19,10,29,16c21,11,39,25,59.5,37.2"/>
	<path class="st10" d="M81.2,228.6c25.7-13,50.7-27.6,76.7-39.9c24.3-11.6,49.9-20.2,76.3-25.6c29-5.8,59.1-8.5,88.6-5.1
		c29.2,3.3,56.2,13.4,82.6,26.1c5.1,2.5,11.7,4.7,15.9,8.6s9.6,5.9,14.4,8.7c5.9,3.4,11.5,8.1,17.9,10.7s11.7,7,17.4,10.8
		c2.8,1.9,5.6,3.7,8.5,5.6"/>
	<path class="st10" d="M80.9,228.5C117,211.3,149,188.3,188,177.3c5-1,8-5,13-6c19-4,36-9,55-12s38-5,57-2c24,4,48,8,70,18
		c2,1,3,0,5,1c25,12,49,25,72,42c6,5,14,6,20,10.3"/>
	<path class="st10" d="M78.4,228.6c32.5-16.3,63.5-34.3,97.5-47.3c42-16,87-25,132-22c63,4,117,37,168.8,69.3"/>
	<path class="st9" d="M77.8,228.6c23.8-12.6,47.5-25.4,72.1-36.5c24.3-11,49.5-20.5,75.6-26.3c27.8-6.1,56.4-7.9,84.7-5.3
		c29.3,2.6,57,10.6,83.8,22.3c6.3,2.8,12.6,5.7,18.7,8.8c5.8,2.9,13,5.5,18.2,9.5c2.2,1.7,3.2,4,5.7,5.4c3.2,1.8,6.5,3.6,9.8,5.4
		c6.4,3.6,12.8,7.3,19.2,11.1c3.2,1.9,6.3,3.8,9.5,5.7"/>
	<path class="st9" d="M77,228.6c24.1-12.8,48.3-25.5,73.3-36.6c25.3-11.2,51.8-21.4,79.1-26.6c28.5-5.2,57.6-6.4,86.4-3.6
		c26.1,2.6,51.4,10.3,75.3,20.9c25.5,11.3,49.3,25.8,73.1,40.2l9,5.4"/>
	<path class="st8" d="M75.8,228.3c50.2-27,99.2-52,157.2-63c43-7,83-5,124,7c33,10,63,26,93,43c8,5,15,9,21.6,13"/>
	<path class="st8" d="M74.4,228.4C124,201.2,175,176.2,233,166.2c49-8,96-4,142,13c34,13,64,32,95.1,49.1"/>
	<path class="st8" d="M73.2,228.5c24.7-12.9,49.5-25.9,75.1-36.8c24.9-10.5,50.8-19,77.4-23.8c27.2-4.8,54.9-5.6,82.4-2.4
		c27.4,3.3,54.2,10.3,79.6,20.9c25,10.3,48.8,23.5,72.2,37c3,1.7,5.9,3.4,8.9,5.1"/>
	<path class="st7" d="M72.4,228.3c41.6-22,81.6-43,128.6-55c40-10,78-12,119-5c16.2,2.9,32.3,7,48,12c11,3,20,8,31,12
		c24,10,45,24,67.8,36.2"/>
	<path class="st6" d="M70.8,228.6C98,214.3,125,200.3,154,188.3c2-1,3,0,5-1c49-20,101-27,154-19c56,8,105,33,151.9,60.1"/>
	<path class="st6" d="M70,228.4C126,198.3,185,170.3,250,166.3c76-4,148,25,213.5,62.3"/>
	<path class="st6" d="M68.7,228.6C106,209.2,142,190.2,182,178.2c36.6-10.8,75-14.2,113-10c20,2,39,7,59,12c38,11,73,29,107.5,48.3"
		/>
	<path class="st5" d="M68,228.4c23-12.2,45-24.2,69-34.2c29-12,59-21,90-25c53-6,105,2,155,22c12,5,23,9,35,15c14,8,28,14,42.4,22.3
		"/>
	<path class="st5" d="M66.6,228.6c24-12.7,48.1-25.4,73.2-35.6c24.4-9.9,49.7-17.5,75.7-21.4c26.6-3.9,53.7-4.1,80.4-0.5
		c27,3.6,53.5,10.2,79,19.6c25.3,9.3,49.7,21,73.7,33.4l8.7,4.5"/>
	<path class="st4" d="M66,228.5c20-10.2,39-21.2,59-30.2c15.7-6.9,31.7-12.9,48-18c12-3,24-5,36-8c15.5-2.8,31.2-4.2,47-4
		c71,1,137,29,199.1,60.2"/>
	<path class="st4" d="M64.8,228.4c23.7-12.6,47.6-25.3,72.6-35.3c24.1-9.6,49.2-16.9,74.8-20.5c26.6-3.6,53.5-3.6,80.1,0.2
		c26.7,3.7,52.9,10.2,78.2,19.4c25.3,9,49.8,20.2,73.8,32.1c3,1.5,5.9,2.9,8.9,4.4"/>
	<path class="st2" d="M63.8,228.4c23.4-12.5,47-25,71.7-34.9c24-9.8,49.1-16.6,74.8-20.4c26.4-3.5,53.1-3.4,79.5,0.4
		c26.8,3.8,53.1,10.3,78.5,19.3c25.3,8.8,49.7,19.8,73.8,31.4l8.9,4.4"/>
	<path class="st3" d="M63.2,228.4C99,209.3,133,189.3,175,180.3c1,0,3-2,4-2c70-17,141-6,205,23c21,9,44,16,64.5,27.3"/>
	<path class="st1" d="M61.5,228.4C80,218.3,97,209.3,115,200.3c3-2,7-2,11-3c28-14,57-21,88-25c19.6-2,39.4-2,59,0
		c62,7,119,30,173.5,56.3"/>
	<path class="st1" d="M60,228.5c41-22.2,81-43.2,128-52.2c92-17,175,17,254.9,52.3"/>
	<path class="st11" d="M104.3,228.6C173,190.2,237,139.2,318,131.2c54-5,102,24,140,61c1,1,3,1,4,2c13,13,29,23,43.1,34.3"/>
	<path class="st1" d="M59.8,228.4C96,209.3,130,190.3,171,181.3c1,0,3-2,4-2c65-14,127-4,187,17c3,1,6,3,9,4c24,8,47,18,69.9,28.2"
		/>
</g>
<g class="st0">
	<path class="st3" d="M0.3,127.4c1.6-2.1,4.7-3.1,6.7-5.1c15-15,33-24,52-32c14.1-5,29.3-6,44-3c51,9,88,39,131,69c5,3,10,6,16,9
		c35,23,66,44,101.4,63.2"/>
	<path class="st3" d="M0.5,165.7C54,136.2,107,102.2,170,95.2c86-10,163,35,226,91c16,14,29,29,44.9,42.2"/>
	<path class="st2" d="M0.4,164.7c28.8-17.1,58-33.9,88.9-47.1c32.4-13.9,66.5-24.5,102.1-24c32.7,0.5,64.4,8.9,94.4,21.6
		c27.6,11.6,53.4,27.1,77.3,45c12.2,9.1,23.9,18.9,35.1,29c11.7,10.5,22.6,21.7,34.7,31.8c3,2.5,6,4.9,9.1,7.3"/>
	<path class="st4" d="M0.3,163.7c12.9-9.2,27.2-15.9,41.4-22.9c7.2-3.6,14.3-7.2,21.2-11.3c3-1.9,6.3-3.4,9.7-4.3
		c3.8-1,7.2-3.5,10.6-5.3c14.5-7.2,30.2-12.5,45.4-17.8c15-5.2,32.3-7.1,48.1-7.8c32.6-1.5,66.3,3.7,96.1,17.2
		c28.5,12.9,56,26.6,81.6,44.7c27,19.1,51.3,42.1,76.2,63.9c3.2,2.8,6.3,5.6,9.6,8.1"/>
	<path class="st4" d="M0.6,162.5C40,141.2,77,118.2,120,104.2c50-15,103-13,150,8c2,1,3,0,5,1c11,6,23,9,34,16c1,1,2,3,3,4
		c8,3,15,6,22,11c40,26,72,55,106.8,84"/>
	<path class="st5" d="M0.6,161.6C43,139.2,82,113.2,129,100.2c49-14,100-6,145,17c4,2,9,2,14,4c19,8.9,37,19.7,54,32c4,2,7,4,11,6
		c17,10,30,22,45,34c1,1,2,3,3,4c14,10,24,22,37.9,31.4"/>
	<path class="st5" d="M0.4,160.6C27,146.2,53,129.2,81,116.2c25-11,51-19,78-22c15.3-1.2,30.7-0.8,46,1c36,5,69,19,101,36
		c38,21,72,46,105,75c2,2,5,2,7,4c7,7,13,13,20.7,18.3"/>
	<path class="st5" d="M0.4,159.6C6,155.3,13,151.3,19,147.3c52-30,107-54,166-53c27,1,52,9,77,18c33,13,61,29,91,50
		c31,23,58,45,88,66.2"/>
	<path class="st6" d="M0.2,158.7c6.5-4.1,13.5-7.4,20-11.6c6.8-4.4,14.1-7.6,21.2-11.7c13.7-8,27.9-15.1,42.5-21.3
		c28.7-12.1,59.3-19.9,90.5-20.3c33-0.4,65.5,10.5,95.1,24.3c28.6,13.4,55.9,29.4,82.2,46.9c26.6,17.6,52.2,36.6,77.6,55.8l9.7,7.3"
		/>
	<path class="st6" d="M0.2,157.7C47,129.2,96,100.2,152,95.2c61-5,117,20,170,52c8,5,15,10,23,15s15,12,23,17c9,5,17,9,25,15
		c16,12,30,23,45.9,34.1"/>
	<path class="st6" d="M0.2,156.7C42,132.2,83,107.2,133,97.2h5c82-15,149,30,215,72c30,19,54,41,83.4,59.2"/>
	<path class="st7" d="M0.6,155.5C33,133.2,68,115.2,105,103.2c28.4-9,58.6-11,88-6c90,17,154,72,230,123c5,3,9,7,14.4,8.2"/>
	<path class="st7" d="M0.4,154.6C7,149.2,16,147.2,22,140.2c14-6,27-16,41-22c3-1,6-1,9-2c18-9,37-15,57-19c19-3,36-4,55-1
		c34,5,64,18,95,33c28,14,53,29,80,47c27,19,51,35,76.5,52.2"/>
	<path class="st8" d="M0.5,153.6C51,121.2,106,92.2,167,95.2c16.3,1.1,32.4,4.1,48,9c17,6,34,12,50,20c10,5,19,10,29,15
		c49,28,93,59,140.3,89"/>
	<path class="st8" d="M0.3,152.7C37,130.2,72,109.2,116,99.2c42-9,81-2,119,13c72,30,132,77,198.2,116.2"/>
	<path class="st9" d="M0.5,151.6C15,142.2,30,132.2,46,123.2c25-13,51-23,79-27c44-6,87,4,126,25c3,1,6,1,9,3c17,10,33,17,49,27
		c14,9,27,17,41,25c10,6,18,13,28,20c2,1,5,2,7,3c16,11,31,20,47.4,29.3"/>
	<path class="st8" d="M0.6,150.6C48,119.2,101,92.2,159,95.2c53,3,99,30,146,56c43,25,82,53,125,77.2"/>
	<path class="st9" d="M0.5,149.7c24.7-16.2,50.4-31.3,78.2-41.7c28.3-10.6,58.1-15.4,88.2-11.5c30.3,4,59,15.3,86.2,28.8
		c28.4,14.1,55.6,30.4,82.5,47.1c27.4,17,54.5,34.4,82.5,50.4c3.4,2,6.8,3.9,10.3,5.8"/>
	<path class="st9" d="M0.6,148.6C47,117.2,99,91.2,156,95.2c55,5,101,33,149,60c42,25,80,50,121.1,73"/>
	<path class="st9" d="M0.3,147.8C20,134.3,40,121.3,62,112.3c15-6,30-12,47-15c11.2-1.9,22.6-3,34-3c13,1,25,2,38,5
		c16,4,31,10,46,16c32,14,60,35,91,49c32,21,64,41,98,61c2,1,5,2,6.6,3.1"/>
	<path class="st9" d="M0.2,146.9C33,123.2,69,104.2,111,96.2c30-6,57-2,85,8c7,3,14,6,22,9c39,17,73,37,110,61c6,3,11,6,17,9
		c15,10,30,18,44,28c11,2,19,11,29,16c1,1,3,1,3.7,1.2"/>
	<path class="st10" d="M0.4,145.8C24.8,128,51.4,112.6,80,103c29.4-9.9,59.5-12.2,90-5.5c30,6.6,57.9,20.2,84.6,34.9
		c26.4,14.6,52.2,30.3,77.8,46.4c25,15.6,50.1,31.2,76.4,44.8c3.3,1.7,6.5,3.3,9.8,4.9"/>
	<path class="st10" d="M0.1,145c22-15.8,45.8-28.8,70.9-38.8c36-15,76-17,113-4c8,3,17,6,25,9c27.7,13,54.7,27.3,81,43
		c43,26,82,52,126.1,74.1"/>
	<path class="st10" d="M0.6,143.7C33,121.2,67,102.2,106,95.2c37-5,72,3,105,18c60,28,113,65,171,99c10,6,21,11,31.4,16.1"/>
	<path class="st9" d="M0.4,142.9C45,108.2,101,83.2,160,96.2c15,4,28,10,43,15c7,3,13,7,20,9c12,4,22,11,33,17c32,19,61,38,93,58
		c21,12,40,24,61.3,33.2"/>
	<path class="st9" d="M0.3,142C39,114.3,84,90.3,134,93.3c16,1,31,5,46,10c14,5,28,10,42,18c30,17,58,33,88,51
		c33,21,64,40,97.8,56.1"/>
	<path class="st9" d="M0.6,140.8C24,123.2,50,108.2,78,99.2c33-10,69-8,101,4c50,20,94,49,141,78c20,12,38,23,58,34
		c9,4,18,9,26.9,13.2"/>
	<path class="st8" d="M0.5,140C35,113.2,77,90.2,123,92.2c47,1,87,24,128,48c51,31,97,64,150.3,88.3"/>
	<path class="st8" d="M0.4,139.1C12,132.2,22,123.2,35,117.2l3-3c20-11,41-20,64-22c22-1.9,44.1,0.9,65,8c1,0,2,1,3,2c4,1,7,2,11,3
		c26,12,50,26,75,40c48,28,91,60,140.2,83.2"/>
	<path class="st8" d="M0.3,138.3c21-17.2,44.7-30.6,70.3-39.7c27.5-9.8,58-9.3,85.9-1.3c13.6,3.8,26.9,8.8,39.6,15
		c12.8,6.3,25.1,13.8,37.5,21c25,14.5,49.4,29.7,73.2,46c12.3,8.4,25.4,15.8,38.3,23.4c12.6,7.4,25.4,14.4,38.4,21.1
		c3.1,1.6,6.3,3.2,9.5,4.7"/>
	<path class="st7" d="M0.3,137.4C6,132.3,12,129.3,18,124.3l15-9c32-19,67-29,104-22c73,16,124,62,187,98c23,13,45,26,67.6,37.2"/>
	<path class="st7" d="M0.2,136.5C9,131.2,16,123.3,26,119.3l3-3c29-16,59-27,92-25c40,3,73,23,108,43c54,32,103,67,159.3,94.3"/>
	<path class="st6" d="M0.2,135.5C20,119.2,42,105.3,66.4,97.1c12.7-4.2,25.9-6.7,39.3-7.2c14-0.6,29,2.3,42.4,6.2
		c27.9,8.2,53.4,23.2,78,38.2s49.1,30.7,73.7,45.9s50,29.5,75.3,43.5c3,1.6,5.9,3.2,8.9,4.8"/>
	<path class="st6" d="M0.2,134.6C35,109.2,74,85.2,119,90.2c42,6,77,25,113,49c4,3,9,5,13,7l12,9c2,1,3,1,5,2
		c40,26,76,52,118.1,71.3"/>
	<path class="st5" d="M0.3,133.6c19.6-15.9,41.4-29.8,65.5-37.6c25.2-8.1,51.8-8.5,77-0.4c27.3,8.8,53,23.4,77.5,38.1
		s48.5,30.8,72.7,46.2s48.7,30.8,74.3,43.8c3.1,1.6,6.3,3.2,9.5,4.7"/>
	<path class="st4" d="M0.3,132.7c19.2-16.6,40.9-31,65.2-38.7c25.7-8.2,51.9-7,77.2,1.9c26.7,9.4,52,23.3,76.2,37.8
		c12.2,7.3,24.2,15.1,36,23s23,17.1,35.6,23.8c25.1,13.5,48.2,30.2,73.6,43.2c3.1,1.6,6.2,3.1,9.2,4.6"/>
	<path class="st4" d="M0.3,131.8c20.4-16.1,42.7-31.8,68-38.9c26.2-7.4,53-4.4,78.1,5.1c25.7,9.8,49.6,24.3,72.9,38.8
		c23.8,14.8,47.1,30.3,70.8,45.2c23.3,14.8,46.9,29.2,71.4,41.9c2.9,1.5,5.8,3,8.7,4.4"/>
	<path class="st4" d="M0.4,130.8c19.7-15.9,41.5-30.1,65.9-37.7c26.8-8.3,54-6.2,79.6,5.1c25,11,48.7,24.5,71.8,38.9
		c23.5,14.7,46.3,30.4,69.5,45.4c22.7,14.8,46,28.8,70,41.4c2.8,1.5,5.7,3,8.5,4.4"/>
	<path class="st2" d="M0.6,129.8C29,102.3,68,83.3,109,88.3c44,7,78,30,115,56c3,2,6,2,9,4c16,11,30,20,46,30c4,3,7,5,11,8
		c3,2,6,2,8,4c4,4,9,8,14,10c17,9,32,20,49.4,28.1"/>
	<path class="st2" d="M0.1,129.2c14.6-12.9,30.1-24.1,47.8-32.3c28-13,60.1-13.9,88.7-2.4c26.9,10.8,51.6,25.9,75.9,41.7
		c22.9,14.9,45.4,30.5,68.2,45.6c22.4,14.9,45.2,29.3,68.9,41.9c3,1.6,5.9,3.1,8.9,4.6"/>
	<path class="st3" d="M0.2,128.3c18.9-16.2,40-31.4,64.1-38.6c25.2-7.5,50.9-3.3,74.7,6.8c24,10.2,46.7,24.5,68.5,38.6
		c23.3,15,46.1,30.8,69.2,46.1c22.6,15,45.5,29.6,69.4,42.7c2.9,1.6,5.9,3.2,8.8,4.8"/>
	<path class="st3" d="M0.7,166.6C54,138.2,104,106.2,165,95.2c40-6,79,0,115,16c3,1,5,1,8,2c25,10,47,24,71,40c16,10,27,23,40,36
		c4,3,7,6,11,9c10,11,21,20,31.5,30"/>
</g>
<g class="st12">
	<path class="st13" d="M0.1,211.4c44.3-18.8,89-39.1,133.7-59.5c2-1,3.1,0,5.1-1c30.5-13.2,58.9-24.4,92.4-31.5c1,0,3.1-2,4.1-2
		c48.8-11.2,95.5-13.2,143.2-1s88.4,32.5,130,59.9c4.1,2,7.1,3,11.2,5.1c3.3,2.1,6.3,4.4,9.1,7.1c1,1,3,0,4.1,1
		c26.4,16.2,50.8,32.5,78.9,42.5"/>
	<path class="st13" d="M0.4,211.4c12.6-7.6,26.8-12.7,41-17.8c27.4-12.2,53.8-23.4,80.2-37.6c3-1,5.1-1,8.1-2
		c44.7-22.4,89.4-38.6,139.1-44.7c51.8-8.1,103.6-3,150.3,18.3c2,1,3,0,5.1,1c12.2,6.1,25.4,10.2,37.6,17.3
		c12.2,8.1,24.4,12.2,36.6,20.3c6.1,5.1,13.2,7.1,19.3,12.2l3,3.1c12.2,6.1,22.3,13.2,33.5,20.3c1,1,3,0,4.1,1
		c18.3,12.1,34.5,21.3,53.8,29.2"/>
	<path class="st13" d="M0.7,211.3c17.3-5.5,31.5-15.7,48.8-21.8c2-1,3,0,5.1-1c22.3-10.2,43.7-22.4,66-31.5c6.1-3,11.2-6.1,17.3-9.1
		c27.4-11.2,53.8-22.3,82.3-31.5c6.1-2,13.2-3,19.3-5.1c62-15.2,125.9-10.2,183.8,15.2c2,1,3,0,5.1,1
		c51.8,22.4,95.5,54.8,144.2,84.3c13.2,7.1,25.4,15.2,39.2,19.5"/>
	<path class="st13" d="M0.3,211.6c113.2-46.4,220.8-128.7,351.8-108.4c28.7,4.9,56.7,13.4,83.3,25.4c52.8,23.4,95.5,57.9,146.2,87.4
		c10.2,5.1,19.3,10.2,30,14.7"/>
	<path class="st14" d="M0.6,211.5c13.4-5.8,27.6-11.9,40.8-17.9c39.6-20.3,77.2-38.6,116.8-57.9C213,110.2,271.9,94,332.9,98.1
		c59.9,4.1,111.8,28.5,163.5,60.9c39.6,25.4,74.1,51.8,115.2,71.1"/>
	<path class="st15" d="M0.1,211.7c41.1-17.8,80.7-38.5,120.5-59c38.8-19.9,78.5-38.8,121-49.4s87-11.6,129.9-1.9
		c42,9.5,81,28.5,117.4,51.1c36.7,22.8,70.7,50.1,108.9,70.4c4.6,2.4,9.3,4.8,14.1,6.9"/>
	<path class="st15" d="M0.4,211.7c49.1-21.2,93.8-46.6,141.5-72c67-34.5,137.1-57.9,214.3-44.7c48.8,9.1,89.4,28.4,132,53.8
		c42.6,27.4,78.2,59.9,123.4,80.6"/>
	<path class="st15" d="M0.6,211.7c21.4-9,41.8-19.2,63.1-30.3c27.4-15.2,54.8-28.4,82.3-44.7c56.9-31.5,118.8-52.8,183.8-47.7
		c59.9,4.1,112.7,28.4,164.5,63c36.6,25.4,68,48.8,105.6,72.1c3.8,2,7.7,3.8,11.7,5.3"/>
	<path class="st16" d="M0.4,211.9c41.3-18.1,80.4-40,119.5-62.2c38.4-21.8,77.8-42.6,120.8-53.9c43.3-11.5,88.7-12.3,132.3-2.2
		c42.1,9.8,81,29.2,116.9,52.8c36.6,24,69.9,53.4,108,75.1c4.5,2.6,9.1,5,13.8,7.2"/>
	<path class="st16" d="M0.6,211.9c41.6-18.3,80.7-40.8,119.8-63.7c38.2-22.3,77.3-43.5,120.2-55.1c43.4-11.7,89-12.5,132.8-2.2
		c42.5,10,81.7,29.9,117.8,54.1c36.3,24.4,69,54.2,106.9,76.1c4.5,2.6,9,5,13.6,7.3"/>
	<path class="st16" d="M0.2,212.1c56.4-21.6,104.1-58.2,158-87.6c13.2-7.1,25.4-13.2,38.6-19.3c2-1,3,0,5.1-1
		c41.6-19.3,86.3-25.4,131-23.4c96.5,6.1,170.6,69.1,245.8,128c11.2,7.1,21.3,14.2,33.3,19.3"/>
	<path class="st17" d="M0.5,212.1c27.7-9.4,51.1-24.6,76.5-39.9c49.8-29.5,94.4-62,149.3-81.2c39.5-13.3,81.6-17.2,122.9-11.1
		c37.6,5.1,72.1,19.3,105.6,36.6c5.1,3,10.2,7.1,16.3,10.1c26.4,17.3,47.7,33.5,72.1,52.8c22.3,18.3,43.7,35.5,68.5,48.5"/>
	<path class="st17" d="M0.7,212.1c26.5-9.4,48.8-25.6,74.2-38.9l3-3c6.1-1,10.2-4.1,15.2-7.1c31.5-22.3,59.9-40.6,93.4-57.9
		c18.2-8.2,36.9-15.3,55.9-21.4c18.3-5.1,36.6-7.1,54.8-9.1c41.5-2.8,83.1,4.9,120.9,22.3c2,1,3,0,5.1,1
		c16.2,8.1,31.5,17.3,47.7,26.4l3,3c12.2,5.1,22.4,13.2,32.5,21.3c10.2,9.1,20.3,16.2,30.5,24.4c1,1,2,3,3,4.1
		c19.3,13.2,34.5,27.4,53.8,39.6c6.1,3,12.2,7.1,18,10.3"/>
	<path class="st18" d="M0.3,212.4c20.8-10.7,41.1-18.8,61.4-31c20.4-13.2,38.6-23.4,58.9-37.6c26.8-19.3,55.4-35.9,85.3-49.8
		c2-1,3,0,5.1-1c97.5-42.7,208.2-17.3,290.5,48.7c30.5,25.4,56.9,48.8,88.4,72.1c6.9,4.9,14.2,9.2,21.8,13"/>
	<path class="st18" d="M0.5,212.4c20.8-9.3,41-19.8,60.6-31.4c20-11.8,39.1-25,58.2-38c18.8-12.7,37.7-25.3,57.5-36.2
		c19.5-11,40.2-19.8,61.6-26.3c21.7-6.5,44.2-10,66.9-10.6c23.1-0.5,46.1,1.9,68.6,7.3c21.7,5.2,42.7,12.9,62.7,22.9
		c19.8,10,38.6,21.6,56.4,34.8c18.5,13.6,35.9,28.6,53.4,43.5c16.6,14.1,33.2,28.5,51.6,40.2c4.5,2.9,9,5.6,13.7,8"/>
	<path class="st18" d="M0.3,212.6c20.9-9.4,41.2-20,60.8-31.8c20-12,39-25.5,58.1-38.8c18.7-13.1,37.5-26,57.4-37.2
		c19.4-11.1,39.9-20.1,61.2-26.8c21.8-6.7,44.4-10.3,67.2-10.9c23.3-0.6,46.6,1.9,69.3,7.4c21.8,5.3,42.9,13,62.9,23.1
		c19.8,10.1,38.7,21.9,56.4,35.4c18.3,13.7,35.5,28.9,52.8,44c16.5,14.4,33.1,29,51.5,41.1c4.4,2.9,9,5.6,13.6,8.1"/>
	<path class="st18" d="M0.5,212.5c21.5-10.8,43.9-20,64.2-35.2c2-1,3-1,5.1-2c41.6-28.4,77.2-56.9,119.8-81.2
		c31.5-17.3,64-25.4,98.5-29.5c31.5-3,60.9,1,92.5,8.2c28.4,7.1,52.8,18.3,78.2,33.5c41.6,26.4,75.2,56.9,110.7,89.4
		c13.2,12.2,26.4,23.4,42.2,30.7"/>
	<path class="st18" d="M0.1,212.8c19.9-8,38.2-18.2,57.5-30.4c53.8-33.6,96.5-74.1,152.4-100.6c2-1,3,0,5.1-1
		c63-28.5,135.1-25.4,198.1,0c55.9,23.3,100.5,62,144.2,104.6c9.2,9.1,19.3,16.2,30.5,23.4l6.1,6.1c6.1,3,11.2,8.1,17.8,10.7"/>
	<path class="st19" d="M0.4,212.7c27.8-12.1,52.2-27.4,78.6-44.6c2.6-1.8,5-3.8,7.2-6.1c23.4-15.2,42.7-30.5,64-47.7
		c5.1-4.1,10.2-6.1,15.2-10.2c16.3-10.2,31.5-19.3,48.8-26.4c42.6-18.3,88.3-23.4,135-17.3c64,9.1,118.8,40.6,166.6,83.3
		c4.1,3,6.1,7.1,10.2,10.2l15.3,12.2c17.3,17.3,32.5,32.5,51.8,47.7c6.1,4.3,12.5,8.1,19.1,11.6"/>
	<path class="st19" d="M0.6,212.7c29.6-13.1,57-29.3,84.4-48.6c62-46.7,117.8-97.5,196-106.6c68.1-8.1,132.1,9.1,190,48.8
		c36.6,25.4,63,53.8,94.5,83.3c15.2,13.2,29.5,26.4,46.5,35.5"/>
	<path class="st18" d="M0.2,213c6.6-3.2,13.7-5.2,20.8-9.3c3-2,5.1-4.1,7.1-5.1c12.3-6,24.1-12.7,35.5-20.2
		c33.5-24.4,59.9-47.7,93.4-72.1C186.6,86,215,69.7,249.6,60.5c69-17.3,138.1-6.2,200,29.4l3,3c12.2,6.1,22.4,14.2,33.5,22.3
		c35.6,28.4,64,58.9,96.5,88.4c9.1,8,18.9,15.1,29.3,21.1"/>
	<path class="st18" d="M0.4,213c29.9-13.5,58.3-30.2,84.6-49.9c42.7-33.5,80.2-70.1,129-92.4c35.6-16.3,75.1-22.3,113.7-20.3
		c52.8,3,102.6,21.3,147.3,53.8c41.6,30.5,71.1,67,109.7,99.5c8.1,8.1,16.2,16.2,27,20.5"/>
	<path class="st18" d="M0.3,213.2c21.8-10.5,41.1-20.6,61.4-33.8C117.5,140.8,157.2,93,217,66.6c41.6-17.3,85.3-23.4,130-17.3
		c38.6,6.1,72.1,17.3,105.6,37.6c18.3,11.5,35.6,24.4,51.8,38.6c37.6,32.5,66,73.1,107.3,98.4"/>
	<path class="st17" d="M0.5,213.1c38.8-17.6,73.4-40.9,105.9-69.3c25.4-23.4,50.8-44.7,80.2-64c13.2-8.1,25.4-16.3,39.6-18.3
		C304.4,27,392.8,44.3,465.9,92c49.7,32.5,80.2,77.2,121.9,115.8c7.1,6,16.3,11.1,24.3,16.5"/>
	<path class="st17" d="M0.1,213.4c6.7-3.6,13.8-5.7,21-9.7l3-3c51.8-24.4,88.4-66,133-102.6c18.3-15.3,37.6-26.4,59-36.6
		c10.1-5.1,21.3-7.2,32.5-10.2c32.5-11.2,66-13.2,99.5-8.1s65,15.2,94.4,32.5c29.5,18.3,55.9,37.6,79.2,62s43.7,48.8,69.1,72.1
		c7.1,5.1,13.2,10.1,20.8,14.3"/>
	<path class="st16" d="M0.3,213.4c16.9-8,33.4-17,49.2-27c30.5-19.3,53.8-41.6,79.2-66c34.5-32.5,72.1-59.9,117.8-73.1
		c24-7.1,49.1-10.2,74.1-9.1c31.8,1.2,63.1,8.1,92.4,20.3c46.7,19.3,85.3,51.8,119.8,89.4c21.3,23.4,39.6,46.7,65,67
		c2.6,1.3,5,3.1,7.1,5.1c2,2,5.1,3,6.8,4"/>
	<path class="st16" d="M0.6,213.4c10.3-4.6,19.5-9.7,29.6-14.8c17.3-9.1,31.5-19.3,46.7-31.5c31.5-26.4,57.9-53.8,90.4-80.2
		c8.1-7.1,16.2-12.2,26.4-17.3l3-3C252.6,34.1,315.6,29,377.5,44.3c6.1,1,11.2,4.1,17.3,5.1c41.6,13.2,77.2,35.5,108.7,66
		c25.4,24.4,46.7,50.8,71.1,77.2c10.7,12,23.3,22.1,37.2,30.2"/>
	<path class="st16" d="M0.2,213.7c56.5-24.2,100.1-67.9,144.8-110.5c35.6-32.5,76.2-57.9,124.9-66c82.3-13.2,163.5,11.2,223.4,68
		c1,1,3,1,4.1,2c6.1,7.1,13.2,12.2,19.3,19.3c31.5,33.5,57.9,71.1,95.3,96.1"/>
	<path class="st15" d="M0.6,213.6c24.7-10.9,47.9-24.8,69.2-41.3c30.5-24.4,53.8-50.8,82.2-77.2c12.2-10.2,23.4-19.3,36.6-28.5
		l15.2-9.1c16.2-9.1,32.5-16.2,51.8-19.3c1,0,3-2,4.1-2c52.8-11.2,103.6-6.1,152.4,14.2c27.4,12.2,52.8,26.4,76.1,46.8
		c11.2,10.2,21.3,20.3,32.5,31.5c30.5,32.5,53.8,70.1,91.3,93.8"/>
	<path class="st15" d="M0.2,213.8c10.9-6.6,23-10.9,33.9-17.5s21.1-13.8,31.3-21.3c20.6-15.2,38.2-34,56.1-52.2
		c16.4-16.8,33.3-33.3,52-47.7c18.1-13.8,37.8-25.6,59.2-33.5c24-8.8,49.3-13.5,74.8-14c25-0.5,50,2.7,74.1,9.4
		c23.3,6.5,47,15.9,67.3,29c19.4,12.3,37.5,26.6,54.1,42.6c4.1,4.1,8.2,8.3,12.1,12.6c3.8,4.2,7.3,9.6,11.6,13.1
		c8.8,7.2,15.5,17.2,22.6,26c14.7,18.3,29.7,36.4,47.9,51.4c4.6,3.9,9.5,7.4,14.7,10.6"/>
	<path class="st14" d="M0.5,213.8c56.1-24.3,98.8-69,141.4-112.7c29.4-29.4,62-53.8,101.6-66C322.7,10.7,405,29,472,78.8l6.1,6.1
		c20.3,14.2,33.5,30.5,49.8,47.7c18.3,21.3,34.5,42.6,53.8,64c8.8,9.7,18.9,18.1,30.1,25"/>
	<path class="st14" d="M0.7,213.8c44.7-20.3,82.3-50.7,115.8-87.3c3-4.1,6.1-7.1,9.1-11.2c8.1-10.2,18.3-17.3,26.4-26.4
		C179.5,61.5,212,41.2,249.6,30c29.4-7.9,60.1-10.3,90.4-7.1c34.9,3.8,68.8,14.5,99.5,31.5c9.1,6.1,17.2,11.2,26.4,17.3
		c13.2,11.2,26.4,20.3,38.6,32.5c8.1,8.1,14.2,16.2,22.3,24.4c3,5.1,7.1,9.1,11.2,14.2c1,1,1,3,2,4.1c3,3,6.1,7.1,9.2,10.1
		c1,1,1,3,2,4.1c3,3,6.1,7.1,9.1,10.1c1,1,1,3,2,4.1c15.2,17.3,30.5,33.5,49.4,45.6"/>
	<path class="st13" d="M0.3,214.1c22-10.1,42.8-22.6,61.9-37.4c19.8-15.4,37.3-33.6,54.4-52c16.8-18,33.4-36.3,52.3-52.2
		c18.4-15.7,38.9-28.7,61.4-37.6c23.1-9.1,47.6-14.1,72.4-15C353.5,18,403.7,31,447.2,57.4c20.4,12.6,39.2,27.6,56,44.7
		c17.8,18,33.4,38,49,57.9c14.3,18.1,28.4,36.7,46.3,51.5c4.3,3.6,8.8,6.9,13.6,9.9"/>
	<path class="st20" d="M0.5,214.1c22.1-10.1,42.9-22.8,62-37.8c19.8-15.6,37-34,53.9-52.5c16.6-18.3,33.1-36.8,51.8-53
		c18.3-15.9,38.6-29.1,61-38.2C252.4,23.2,277,18,302,17c51.1-2,101.6,11.1,145.3,37.6c20.4,12.6,39.2,27.7,55.9,45
		c17.8,18.3,33.3,38.6,48.9,58.8c14.2,18.4,28.2,37.3,46.1,52.3c4.3,3.6,8.7,7,13.4,10"/>
	<path class="st20" d="M0.1,214.4c22.2-10.1,43.1-22.9,62.2-38.1c19.7-15.7,36.9-34.3,53.6-53.1c16.6-18.6,32.9-37.5,51.6-54.1
		c18.2-16.2,38.6-29.7,61.2-39c23.3-9.5,48.1-14.8,73.2-15.8c51.4-2.1,102.3,11.2,146.2,38.1c20.5,12.9,39.4,28.3,56,45.9
		c17.8,18.6,33.2,39.2,48.6,59.7c14,18.5,27.9,37.5,45.7,52.6c4.3,3.7,8.9,7.1,13.7,10.2"/>
	<path class="st21" d="M0.6,214.2c22.2-10.2,43.1-23.1,62.1-38.4c19.8-16,36.9-35,53.5-54.2c16.3-18.8,32.5-37.8,50.9-54.6
		c18.2-16.5,38.6-30.2,61.3-39.7c23.2-9.5,47.9-14.9,73-15.9c26.3-1.1,52.7,1.8,78.1,8.7c24.3,6.5,47.5,16.5,68.9,29.8
		c20.6,13,39.4,28.6,56,46.4c17.6,18.7,32.8,39.5,48.1,60.1c13.9,18.8,27.7,38.2,45.6,53.6c4.3,3.7,8.8,7.2,13.5,10.3"/>
	<path class="st21" d="M0.2,214.5c22.3-10.2,43.3-23.3,62.4-38.7c19.8-16.2,36.8-35.4,53.3-54.8c16.3-19.1,32.3-38.6,50.7-55.7
		c18-16.7,38.4-30.7,61.1-40.3c23.3-9.7,48.2-15.2,73.5-16.3c26.6-1.2,53.2,1.8,78.8,8.8c24.3,6.5,47.5,16.6,68.9,30
		c20.7,13.2,39.5,29,56.1,47.1c17.6,19.1,32.8,40.2,48,61.2c13.7,19,27.4,38.5,45.2,53.9c4.3,3.8,8.9,7.3,13.7,10.4"/>
	<path class="st22" d="M0.5,214.5c20.6-9.8,40.9-20.9,59.2-36.1c33.5-27.4,55.9-59.9,83.3-91.4c11.2-11.2,20.3-22.4,32.5-32.6
		c6-4.1,11.8-8.5,17.3-13.2c11.2-8.1,22.3-13.2,34.5-19.3c2-1,3.1,0,5.1-1C312.6-10.6,407,7.7,474,63.5c1,1,3,1,4.1,2
		c40.6,35.6,66,78.2,99.5,121.9c9.1,13.2,20.3,24.4,34.4,32.6"/>
	<path class="st22" d="M0.7,214.5c22.5-10.4,43.6-23.7,62.7-39.6c19.6-16.6,36.4-36.2,52.5-56.1c16-19.7,31.7-39.7,50-57.3
		c17.9-17.2,38.1-31.6,60.9-41.5c23.6-10,48.8-15.7,74.4-16.8c26.8-1.2,53.7,1.9,79.6,9c24.5,6.6,47.8,17,69.1,30.6
		c20.8,13.4,39.6,29.6,56,48.1c17.5,19.5,32.4,41.1,47.3,62.6c13.5,19.5,27,39.7,45,55.5c4.3,3.8,8.9,7.3,13.6,10.5"/>
	<path class="st22" d="M0.2,214.9c28-12.2,53.4-28.5,75.7-49.8c29.4-30.5,52.8-63,81.3-94.5c20.3-20.3,42.7-39.6,69.1-50.8
		c33.5-14.2,68-18.3,103.6-16.2c50.8,4.1,97.5,21.3,140.2,52.8c50.8,38.6,76.2,90.4,113.7,139.1c8.1,10.1,18.3,17.2,28.1,24.2"/>
	<path class="st22" d="M0.7,214.7c22.2-10.2,43.1-23.2,62-38.7c19.8-16.4,36.8-35.8,53.2-55.5c16.2-19.4,32.2-39.2,50.7-56.5
		c18-16.9,38.5-30.9,61.3-40.5c23.5-9.7,48.5-15.1,73.9-16c26.5-1.1,53.1,1.9,78.7,8.9c24.4,6.6,47.7,16.7,69.2,30.2
		c21,13.4,40.2,29.5,56.9,48.1c17.5,19.2,32.6,40.3,47.6,61.5c13.3,18.8,26.7,38.1,44.3,53.4c4.3,3.7,8.8,7.2,13.6,10.3"/>
	<path class="st21" d="M0.6,214.8c15.4-7.1,28.6-15.2,43.8-24.4c8.9-5.9,17.4-12.3,25.4-19.3c8.1-8.1,17.2-15.2,25.4-24.3
		c6.1-8.1,13.2-15.2,20.3-23.4c20.3-26.4,40.6-48.8,66-70.1c15-12,31.8-21.6,49.8-28.4c68-26.4,144.2-16.2,209.2,18.3l15.2,9.2
		c48.8,33.5,79.2,74.1,110.7,122.9c2,3,5.1,4.1,7.1,7.1c11.2,16.2,23.4,27.4,38.3,37.3"/>
	<path class="st20" d="M0.2,215.1c36.1-11.4,63.5-39.9,92-65.3c17.3-21.3,36.6-40.6,54.9-62c9-10.2,18.9-19.8,29.4-28.4
		c5.8-4.7,11.9-9.1,18.3-13.2c11.8-6.9,24-13,36.6-18.3c15.7-6.1,32-10.2,48.7-12.2c41.6-3,83.3-2,121.9,15.2c3,1,6.1,1,9.1,2
		c15.3,7,30.2,14.8,44.7,23.4c12.2,8.1,22.3,15.2,32.5,24.4c13.2,12.2,24.4,23.4,35.6,37.6c17.3,23.4,32.5,42.7,49.8,66
		c8.6,11.6,18.9,21.9,30.5,30.5c2.6,1.4,5.1,3,7.6,4.7"/>
	<path class="st20" d="M0.7,214.9c22.1-10,42.9-22.6,61.9-37.6c19.8-15.6,37-34.1,53.8-52.8c16.5-18.4,32.8-37,51.4-53.2
		c18.3-15.9,38.7-29.1,61.2-38.1c23.3-9.2,48-14.3,73-15.1c26-1,52,1.9,77.2,8.5c24.1,6.2,47.1,15.8,68.5,28.4
		c20.8,12.5,39.9,27.6,56.8,45c17.8,18.2,33.5,38.3,48.9,58.5c13.8,18.1,27.6,36.6,45.1,51.4c4.2,3.6,8.7,6.9,13.3,9.9"/>
	<path class="st14" d="M0.6,215.1c30.6-13.4,59-31.7,83.4-55.1c19.3-19.3,35.5-37.6,53.8-57.9c5.1-4.1,8.1-9.1,13.2-13.2
		c34.5-33.5,75.2-57.9,123.9-65c36.3-5.2,73.3-2.8,108.7,7.1c6.1,2,11.2,3,17.3,5.1c15.2,5.1,28.4,12.2,42.6,19.3l15.2,9.1
		c25.4,16.2,44.7,35.6,65,57.9c29.5,33.5,51.8,72.1,88.3,97.6"/>
	<path class="st14" d="M0.5,215.2c21.8-9.8,42.3-22,61.3-36.5c19.8-15.1,37.1-32.9,54.2-50.9c16.8-17.8,33.5-35.8,52.3-51.5
		c18.4-15.4,38.8-28,61.2-36.7c23.1-8.8,47.5-13.7,72.2-14.5c25.7-0.9,51.4,1.7,76.3,8c23.9,5.9,46.9,15.1,68.2,27.3
		c20.7,12,39.9,26.5,57,43.3c18,17.5,34,37,49.7,56.5c14.1,17.5,28,35.4,45.4,49.8c4.3,3.6,8.8,6.8,13.5,9.9"/>
	<path class="st15" d="M0.4,215.4c21.7-9.8,42.3-21.9,61.4-36.2c19.6-14.8,37-32.2,54.2-49.8c16.9-17.4,33.6-35,52.5-50.3
		c18.5-15.1,38.9-27.5,61.2-36c23-8.6,47.3-13.4,71.8-14.2c25.5-0.9,51,1.7,75.8,7.7c23.8,5.8,46.6,14.7,68,26.6
		c20.8,11.7,40,26,57.3,42.4c18,17,34,36,49.8,55.1c14.4,17.4,28.5,35.3,46.1,49.7c4.2,3.5,8.7,6.7,13.3,9.7"/>
	<path class="st15" d="M0.6,215.4c67.2-26.9,109.8-84.8,164.6-131.6c23.4-19.3,48.8-33.5,78.2-42.7c48.8-14.2,98.5-12.2,147.3,2
		c13.2,4.1,25.4,9.2,37.6,14.2c10.1,4.1,18.3,10.2,28.4,15.2l3,3c21.3,11.2,38.6,27.4,55.9,44.7c18.3,19.3,34.5,37.6,50.8,58.9
		c13.2,16.2,27.4,30.5,45.5,41"/>
	<path class="st16" d="M0.5,215.4c28.7-12.8,55.1-28,79.5-49.3c40.7-35.6,72.1-75.1,118.8-102.6C276,20.9,368.4,29,444.6,68.6
		c3,1,5.1,3,7.1,5.1c11.8,5.9,22.8,13.4,32.5,22.3c1,1,3,1,4.1,2c16.2,14.2,31.5,27.4,45.7,43.7c25.4,28.4,46.7,58.9,78.1,78.7"/>
	<path class="st16" d="M0.4,215.6c10.5-5.8,21.7-10.9,32.9-15.9c2.3-1.4,4.3-3.1,6.1-5.1C60.9,182,81.1,167,99.3,149.9
		c5.1-6.1,11.2-10.1,17.3-16.2c20.3-21.3,39.6-38.6,64-55.9c34.5-23.4,72.1-35.5,111.7-38.6c55.9-4.1,109.7,8.1,159.5,36.6
		s83.3,70.1,121.9,111.7c5.1,5.1,9.2,11.2,15.2,16.2c6.1,4.1,11.2,7.1,16.2,12.2c2,2,5.1,3,6.7,4.3"/>
	<path class="st17" d="M0.3,215.7c11.4-6.2,23.2-11.5,34.7-17.6s21.7-13.7,32.2-21c18.5-12.8,34.9-28.9,51.5-44.1
		c16.1-14.8,32.3-29.6,49.8-42.8s36.4-24.8,56.9-32.7c23.3-9,48.2-13.5,73.1-14.6c24.5-1.1,49,0.8,73,5.6
		c21.7,4.5,42.8,11.6,62.9,21.1c20.2,9.8,39.2,21.8,56.7,35.7c19.4,15.3,36.8,33.7,53.6,51.9s31.9,37.9,51.7,52.6
		c4.9,3.8,10,7.4,15.3,10.6"/>
	<path class="st18" d="M0.2,215.8c18.9-8.1,35.1-16.2,53.4-28.4c24.4-17.3,44.7-34.5,66-54.8c23.4-21.3,46.7-40.6,74.2-56.9
		c12.2-7.1,24.4-12.2,37.6-17.3c17.3-6.1,34.5-9.1,51.8-11.2c45.1-4.2,90.6,2.1,133,18.3c20.3,8.1,38.6,18.3,57.9,30.5
		c44.7,30.5,73.1,69.1,110.7,104.6c9.1,7.1,17.3,15.2,27.2,20.1"/>
	<path class="st18" d="M0.7,215.7c25.4-12,48.8-24.2,72.2-41.4c28.4-22.4,51.8-43.7,79.2-67c29.5-24.4,62-40.6,98.5-50.8
		c9.1-2,18.3-3,27.4-5.1c17.5-1.9,35.2-2.2,52.8-1c35.5,2,69.1,11.2,101.6,25.4c14.2,6.1,26.4,14.2,40.6,22.3
		c15.4,10.4,30,21.9,43.7,34.5c19.3,18.3,36.6,36.6,54.8,55.9c13.2,12.2,25.4,24.4,40.1,32.3"/>
	<path class="st18" d="M0.3,215.9c25.8-11.2,48.2-25.4,72.6-40.7l15.2-12.2c25.4-19.3,46.7-39.6,72.1-59.9
		c32.5-24.4,67-40.6,106.6-46.7c73.1-12.2,143.2,3,206.1,45.7c3,2,5.1,2,8.1,4.1c36.6,26.4,64,56.9,95.5,88.4
		c11.2,10.2,22.3,19.3,35.5,26.8"/>
	<path class="st19" d="M0.2,216.1c29-11.3,53.4-27.6,79.8-45.9c12.2-9.1,22.3-17.3,33.5-26.4c30.5-26.4,60.9-50.8,97.5-67
		c6.1-2,11.2-5.1,17.3-7.1c60.9-20.3,125.9-15.3,185.9,5c66,23.4,112.7,72.1,162.5,119.8c11.2,10.2,22.4,20.3,35.4,26.7"/>
	<path class="st19" d="M0.7,215.9c15.3-7.1,29.5-14.2,44.7-22.4c15.2-9.2,28.4-18.3,42.7-28.4c28.4-23.4,53.8-43.7,84.3-65l15.2-9.1
		c21.2-12,44.1-20.6,68-25.4c49.8-10.2,97.5-5.1,145.2,8.1c58.9,17.3,105.6,53.8,149.3,95.5c2,2,4.1,5.1,6.1,7.1
		c10.2,8.1,17.3,17.3,27.4,25.4c9.1,7.1,18.3,14.2,28.3,19.8"/>
	<path class="st19" d="M0.6,216c44.8-17.4,81.4-45.9,120-76.3c15.2-11.2,27.4-22.3,43.7-31.5c6.1-3,11.2-7.1,16.2-10.2
		c26.4-16.2,53.8-24.4,84.3-30.5c27.4-5.1,53.8-4.1,80.2-1c27.4,2,53.8,9.1,80.2,19.3c17.3,7.1,32.5,15.2,48.8,24.4
		c31.5,19.3,55.9,41.6,82.3,66c16.8,17.1,35.5,32.3,55.7,45.4"/>
	<path class="st19" d="M0.5,216.2c61.2-24.6,107.9-67.4,163.8-105.9c2-1,3.1-1,5.1-2c60.9-40.6,129-48.8,199.1-35.6
		c42.6,8.1,79.2,23.4,116.8,47.7c26.4,18.3,48.8,35.6,71.1,56.9c16.9,16.8,35.6,31.7,55.7,44.5"/>
	<path class="st18" d="M0.7,216.1c26.4-10.4,48.8-22.6,73.1-38.9c50.8-34.5,92.4-74.2,149.3-92.4c12.2-4.1,24.4-9.1,36.6-10.2
		c8.1-1,15.2-2,23.4-3c6.1,0,13.2,0,19.3-1c30.5-1.1,60.9,2.3,90.4,10.2c14.2,4.1,27.4,9.1,40.6,14.2c22.3,10.1,43.7,22,64,35.6
		c2,1,3,3,5.1,5.1c30.5,21.3,53.8,44.7,81.2,68c9.2,7.1,18.3,14.2,28.3,18.9"/>
	<path class="st18" d="M0.6,216.3c21.4-7.5,39.7-18.7,60.1-29.9c49.8-30.5,90.4-68.1,143.2-91.4c3-1,5.1-1,8.1-2
		c68-28.4,145.2-22.3,212.3,3c2,1,3,0,5.1,1c8.1,5.1,17.3,6.1,25.4,11.2c12.2,8.1,25.4,13.2,37.6,21.3
		c19.8,13.8,38.8,28.7,56.9,44.7c12.2,12.2,25.4,22.3,38.6,33.5c8.1,5.1,15.2,11.2,24,14.9"/>
	<path class="st17" d="M0.4,216.6c52.2-23,96.8-54.5,146.6-86c35.5-22.3,70-37.6,111.7-44.7c39.6-7.1,76.2-5.1,115.8,2
		c40.6,8.1,76.2,23.4,111.7,43.7c38.6,23.4,68,51.8,104.6,78.2c7.1,4.1,13.2,9.1,20.8,12.6"/>
	<path class="st17" d="M0.3,216.7c2.3-1.7,4.8-3,7.6-3.9c18.3-6.1,33.5-15.3,50.8-24.4c43.7-25.4,83.3-54.9,128-77.2
		c4.1-2,8.1-2,11.2-3c23.4-12.2,47.7-17.3,73.1-21.3c12.2-1,25.4-2,37.6-2c16.2,1,31.5,1,47.7,3c26.4,3,50.8,10.2,75.2,19.3
		c7.3,3,14.4,6.3,21.3,10.1c18.3,8.2,34.5,18.3,52.8,29.5c29.5,19.3,52.8,39.6,81.2,60.9c7.1,5.1,13.2,8.1,20.3,13.2c2,1,3,1,5,2.1"
		/>
	<path class="st16" d="M0.5,216.7c19.7-8.4,39-18,57.8-28.3c19.1-10.5,37.7-21.9,56-33.6c4.7-3,9.4-6.1,14.1-9.2
		c4.7-3.1,9.8-4.7,14.6-7.6c9.1-5.6,18.3-10.9,27.8-15.8c18.7-9.6,38.2-17.4,58.4-23.3c22.1-6.4,45.1-9.5,68.1-10.1
		c22.9-0.6,45.8,0.9,68.5,4.4c21.9,3.5,43.5,9.2,64.2,17.2c20.8,7.9,41.2,17.1,60.2,28.5s36.8,24.4,54.6,37.4
		c17.9,13.2,35.4,27.1,54,39.2c4.2,2.7,8.5,5.4,12.9,7.7"/>
	<path class="st16" d="M0.4,216.8c41.4-17.2,79.6-39.9,117.9-62.9c37.5-22.5,76.2-43.1,119-53.2c43.3-10.3,88.8-10.4,132.5-2.7
		c43,7.6,84.1,23.3,121.9,45.1c18.9,10.9,36.9,23.3,54.5,36.1c17.2,12.4,34.1,25.5,52.3,36.5c4.4,2.7,8.9,5.2,13.5,7.6"/>
	<path class="st16" d="M0.3,216.9c50.2-20.4,94.9-47.8,142.6-76.2c10.2-5.1,19.3-10.1,29.5-15.2c16.2-7.2,32.8-13.3,49.8-18.3
		C258.7,97.1,294.3,94,331.8,96c27.4,2,52.8,7.1,79.2,14.2c12.2,4.1,23.4,8.1,34.5,12.2c27.5,11.2,50.8,26.4,77.2,41.6
		c2.6,1.8,5,3.8,7.1,6.1c9.2,5.1,16.2,10.1,24.4,15.2c19.3,14.2,37.6,28.4,57.7,38.8"/>
	<path class="st15" d="M0.2,217.1c41.1-16.9,79.5-38.7,118.2-60.3c37.9-21.2,77-40.3,119.6-49.7c43.1-9.5,88.1-9.5,131.6-2.2
		c42.5,7.2,83.3,22.1,121.1,42.6c37.5,20.3,70.7,47.3,107.5,68.7c4.5,2.6,9,5.1,13.6,7.4"/>
	<path class="st15" d="M0.7,216.9c3.1-2.1,6.1-2.1,9.2-3.1c42.7-19.3,83.3-41.6,124.9-65c33.5-18.3,67-31.5,104.6-39.6
		c47.7-10.2,92.4-8.1,140.2,1c55.9,10.2,102.6,29.5,150.3,62c27.4,19.3,52.8,37.6,82.1,52"/>
	<path class="st14" d="M0.6,217.1c5.2-1.2,9.3-3.2,14.4-5.2c20.3-8.1,39.6-18.3,58.9-28.4c25.4-14.2,49.8-26.4,75.2-38.6
		c54.8-26.4,114.8-42.7,175.7-38.6c77.2,5.1,147.2,29.5,214.3,75.2c4.1,3,9.1,4.1,13.2,7.1c6.5,4.8,13.3,9.2,20.3,13.2
		c3,2,5.1,4.1,8.1,6.1c11.2,5.1,20.3,13.2,31,16.7"/>
	<path class="st13" d="M0.2,217.3c53.3-22.7,103.1-49.2,154.9-73.5l9.1-3c67-31.5,140.2-37.6,214.3-24.4
		c38.6,8.1,74.1,19.3,108.7,36.6c36.6,19.3,70.1,40.6,106.6,63c6.1,3,12.2,7.1,18.1,9"/>
	<path class="st13" d="M0.1,217.4c49.4-20.8,97.1-44.2,146.9-67.6c31.5-14.2,63-25.4,98.5-31.5c105.6-17.3,206.2,9.1,296.6,68
		c2,1,5.1,1,7.1,2l3,3c4.1,2,7.1,4.1,11.2,6.1c16.2,11.2,32.5,19.3,48.3,27.1"/>
	<path class="st13" d="M0.6,217.4c46.8-17.7,90.5-42,136.2-62.4c12.2-5.1,24.4-9.1,36.6-14.2c95.5-35.6,202.1-30.5,295.5,10.2
		c2,1,3,0,5.1,1c26.4,12.2,51.8,24.4,77.2,40.6c1,1,3,0,4.1,1c9.1,5.1,16.2,11.2,25.4,16.2c10.2,5,20.3,11.1,31.2,15.5"/>
	<path class="st20" d="M0.5,217.4c29.6-13.8,59.1-27,89.6-40.2c25.4-10.2,49.8-21.3,75.2-31.5c49.8-19.3,102.6-27.4,156.4-25.4
		c21.1,0.9,42.2,3.2,63,7.1c27.8,5.9,55.1,14.4,81.3,25.4c2,0,5.1,0,7.1,1c27.4,13.2,53.8,24.4,80.2,39.6
		c16.2,10.1,32.5,17.3,48.8,27.4c3,2,7.1,3,9.7,3.9"/>
	<path class="st21" d="M0.4,217.6c38.8-14.9,76.1-33,114.3-49.2c38.9-16.5,78.6-30.5,120.4-37.9c42.7-7.7,86.3-8.4,129.2-2.3
		c42.7,6.2,84.3,18.1,123.9,35.2c19.1,8.2,37.8,17.5,56.2,27.1c18.1,9.5,35.5,20.1,53.9,28.9c4.6,2.2,9.2,4.2,13.8,6.2"/>
	<path class="st21" d="M0.7,217.6c39.7-15.5,78.5-33.4,118.1-49.3c38.8-15.6,78.8-28.6,120.2-35.2c41.9-6.5,84.6-6.8,126.6-0.9
		c41.3,5.7,81.6,17.2,120.2,33s74.6,36.9,112.4,54.4c4.6,2.1,9.2,4.2,13.8,6.1"/>
	<path class="st22" d="M0.6,217.7c92.5-37.4,185-83.1,286.5-86.1c68.1-2,135.1,11.2,198.1,35.6c43.7,18.3,84.3,40.6,126.5,58.8"/>
	<path class="st22" d="M0.5,217.8c38.4-15.2,76.4-31.6,115.2-45.8c38.4-14,77.7-26,118.2-32.2c20.8-3,41.7-4.6,62.7-4.7
		c22-0.3,44,0.4,65.8,3.1c41.4,5.3,82,15.6,121,30.6c39.1,15,76,35,114.5,51.6c4.6,2,9.3,3.9,13.9,5.8"/>
	<path class="st22" d="M0.4,218c79.6-31.5,157.8-66.1,244.1-76.2c91.4-10.2,180.8,4.1,264.1,40.6c2,1,3,0,5.1,1
		c32.5,15.2,66,29.4,98.1,43.9"/>
	<path class="st22" d="M0.3,218.1c39.2-14.9,78-30.7,117.7-43.7c39.4-12.9,79.7-23.1,120.9-28.2c41.4-5.2,83.4-5.2,124.8-0.2
		c41,5,81.1,14.9,120,28.5s76,31.6,114.2,47.1c4.7,1.9,9.3,3.7,14,5.5"/>
	<path class="st21" d="M0.1,211.2c40.4-16,80-34,120.3-50.2c38.8-15.7,78.4-30.4,119.4-39.2c41.5-9,84.7-10.9,126.5-2.3
		c39.7,8.2,77.6,24.5,113.3,43.4c36.3,19.2,70.5,42.2,107.7,59.6c4.5,2.1,9.1,4.2,13.8,6.1"/>
	<path class="st22" d="M0.5,214.7c22.6-10.4,43.8-23.8,62.8-39.8c19.8-16.9,36.5-36.9,52.6-57.2c15.8-19.9,31.3-40.1,49.4-58
		c17.8-17.5,38.1-32.2,61.1-42.3c23.6-10.3,49.2-15.8,74.9-17c26.8-1.2,53.5,1.9,79.4,9c24.7,6.7,48.3,17.2,69.8,31.1
		c20.8,13.7,39.6,30.1,56,48.8c17.6,19.9,32.5,42,47.3,63.9c13.3,19.6,26.6,39.7,44.4,55.6c4.2,3.8,8.7,7.3,13.4,10.4"/>
	<path class="st22" d="M0.5,218.1c39-14.7,77.9-30,117.8-42.4c39.3-12.2,79.5-21.5,120.4-26.3c41.2-4.8,82.9-4.8,124.1,0
		c41.1,4.8,81.5,14.4,120.7,27.5c38.8,13,76,30.1,114,45.1c4.7,1.8,9.4,3.6,14.2,5.3"/>
	<path class="st20" d="M0.5,211.1c40.3-16,79.6-34.2,119.6-51c19.9-8.4,40-16.4,60.3-23.7c4.9-1.8,9.9-2.8,14.9-4.2
		c5.1-1.4,10.2-3.4,15.3-5c10.1-3.2,20.3-6,30.7-8.3c41.2-9.2,84.3-10.8,125.8-2.4c39.7,8.1,77.1,25,112.5,44.3
		c36.6,19.9,71.5,42.8,108.9,61.2c4.6,2.2,9.2,4.4,13.8,6.5"/>
</g>
</svg>
