<svg id="a4c5f193-2102-48ae-84a9-32d76cb1b97b" data-name="b9aa5387-e727-4d98-a9f7-069a7c524e0f" xmlns="http://www.w3.org/2000/svg" viewBox="0 0 612.25 351.49"><defs><style>.a0e68304-b900-48df-a046-b3713065260d,.aa100e0d-8942-43a2-abd4-a01e7b51134b,.aeeb616c-d77c-4dcc-a562-e03cb9e255d7{opacity:0.5;}.a0e68304-b900-48df-a046-b3713065260d,.a4fd00e5-d1c9-4bef-8fd3-b8bcfe21f027,.a64c0351-fff2-4f33-b5ff-32dc67c2e929,.a711f5d3-f2d6-45b9-9b94-efc7c3f2585d,.a9d47402-f07f-4829-86f5-29dc5efb91d2,.aa100e0d-8942-43a2-abd4-a01e7b51134b,.ab3a4512-61ba-43c3-ad51-6bdc0c6d4ec9,.ad7b420c-7c4f-42b2-aaba-d8c532dee53b,.b069c908-4f93-4386-9dff-0117a10bfe9d,.b597f954-fb1f-4e30-ace5-fd3ff466642e,.b8fc03b8-99ae-4702-a7c3-842c8abb5d07,.b97f67fd-4781-47f0-9f89-561906f47182,.bd116b1e-0192-4eb6-8c73-75ad58d2ef79,.bd973508-474b-4c31-93e9-2806a1ac454e,.bdead7d9-4579-4333-b428-5dba48a2b1b2,.e5d559f6-d55a-4d73-9291-1b12cd73adbd,.eb7b28b8-ebe4-4e2b-a82c-527a6b280877,.eb9da42c-7df6-4738-8cdf-6610f6c956e5,.ed7c3793-6967-4ec4-a5a5-0bc5df7c3446,.f5c9a4eb-a12e-4ad9-b9a9-e5db30e6d9b4,.ff6405b1-7e16-4895-be60-d7bf9b12ad2b{fill:none;stroke-width:0.2px;}.a4fd00e5-d1c9-4bef-8fd3-b8bcfe21f027,.a711f5d3-f2d6-45b9-9b94-efc7c3f2585d,.a9d47402-f07f-4829-86f5-29dc5efb91d2,.aa100e0d-8942-43a2-abd4-a01e7b51134b,.ab3a4512-61ba-43c3-ad51-6bdc0c6d4ec9,.b069c908-4f93-4386-9dff-0117a10bfe9d,.b8fc03b8-99ae-4702-a7c3-842c8abb5d07,.bd116b1e-0192-4eb6-8c73-75ad58d2ef79,.bd973508-474b-4c31-93e9-2806a1ac454e,.eb7b28b8-ebe4-4e2b-a82c-527a6b280877,.ed7c3793-6967-4ec4-a5a5-0bc5df7c3446{stroke:#c2b196;stroke-linecap:round;stroke-linejoin:round;}.a0e68304-b900-48df-a046-b3713065260d,.a4fd00e5-d1c9-4bef-8fd3-b8bcfe21f027,.a64c0351-fff2-4f33-b5ff-32dc67c2e929,.a711f5d3-f2d6-45b9-9b94-efc7c3f2585d,.a7b44219-9ed0-4ae9-9422-593a094d865f,.aa100e0d-8942-43a2-abd4-a01e7b51134b,.ab3a4512-61ba-43c3-ad51-6bdc0c6d4ec9,.ad7b420c-7c4f-42b2-aaba-d8c532dee53b,.b069c908-4f93-4386-9dff-0117a10bfe9d,.b597f954-fb1f-4e30-ace5-fd3ff466642e,.b8905ee9-f0c6-4b0c-b772-7504ac5bd834,.b8fc03b8-99ae-4702-a7c3-842c8abb5d07,.b97f67fd-4781-47f0-9f89-561906f47182,.bd116b1e-0192-4eb6-8c73-75ad58d2ef79,.bd39f3e4-3ea1-4088-bc93-c06ac4d5abac,.bd973508-474b-4c31-93e9-2806a1ac454e,.bdead7d9-4579-4333-b428-5dba48a2b1b2,.e2c7dff8-f195-48ad-b475-00cc14a33e62,.eb7b28b8-ebe4-4e2b-a82c-527a6b280877,.eb9da42c-7df6-4738-8cdf-6610f6c956e5,.ed7c3793-6967-4ec4-a5a5-0bc5df7c3446,.f5c9a4eb-a12e-4ad9-b9a9-e5db30e6d9b4,.ff6405b1-7e16-4895-be60-d7bf9b12ad2b{isolation:isolate;}.eb7b28b8-ebe4-4e2b-a82c-527a6b280877,.ff6405b1-7e16-4895-be60-d7bf9b12ad2b{opacity:0.1;}.b597f954-fb1f-4e30-ace5-fd3ff466642e,.bd116b1e-0192-4eb6-8c73-75ad58d2ef79{opacity:0.3;}.a7b44219-9ed0-4ae9-9422-593a094d865f,.ab3a4512-61ba-43c3-ad51-6bdc0c6d4ec9,.f5c9a4eb-a12e-4ad9-b9a9-e5db30e6d9b4{opacity:0.2;}.ad7b420c-7c4f-42b2-aaba-d8c532dee53b,.ed7c3793-6967-4ec4-a5a5-0bc5df7c3446{opacity:0.4;}.b97f67fd-4781-47f0-9f89-561906f47182,.bd973508-474b-4c31-93e9-2806a1ac454e{opacity:0.6;}.a64c0351-fff2-4f33-b5ff-32dc67c2e929,.b8fc03b8-99ae-4702-a7c3-842c8abb5d07{opacity:0.7;}.a711f5d3-f2d6-45b9-9b94-efc7c3f2585d,.bdead7d9-4579-4333-b428-5dba48a2b1b2{opacity:0.8;}.a4fd00e5-d1c9-4bef-8fd3-b8bcfe21f027,.eb9da42c-7df6-4738-8cdf-6610f6c956e5{opacity:0.9;}.b069c908-4f93-4386-9dff-0117a10bfe9d,.e2c7dff8-f195-48ad-b475-00cc14a33e62{opacity:0.05;}.e7f633c2-4b26-492f-a575-268519a06501{opacity:0.55;}.a0e68304-b900-48df-a046-b3713065260d,.a64c0351-fff2-4f33-b5ff-32dc67c2e929,.ad7b420c-7c4f-42b2-aaba-d8c532dee53b,.b597f954-fb1f-4e30-ace5-fd3ff466642e,.b97f67fd-4781-47f0-9f89-561906f47182,.bdead7d9-4579-4333-b428-5dba48a2b1b2,.e5d559f6-d55a-4d73-9291-1b12cd73adbd,.eb9da42c-7df6-4738-8cdf-6610f6c956e5,.f5c9a4eb-a12e-4ad9-b9a9-e5db30e6d9b4,.ff6405b1-7e16-4895-be60-d7bf9b12ad2b{stroke:#d8d7d6;stroke-miterlimit:10;}.a7b44219-9ed0-4ae9-9422-593a094d865f,.ad38efe5-0ef6-4939-a5fa-2d90088c2d11,.b8905ee9-f0c6-4b0c-b772-7504ac5bd834,.e2c7dff8-f195-48ad-b475-00cc14a33e62{fill:#c2b196;}.b8905ee9-f0c6-4b0c-b772-7504ac5bd834{opacity:0.25;}</style></defs><g class="aeeb616c-d77c-4dcc-a562-e03cb9e255d7"><path class="eb7b28b8-ebe4-4e2b-a82c-527a6b280877" d="M103,348c7.7-3.3,13.7-8.3,20.7-12.3,2-1,3-1,5-2,8-5,16-10,24-14l3-3c12-8,24-12,35-21,2-1,5-2,7-3,46-27,95-47,148-40,22,4,42,8,61,21,14,10,28,19,41,30,8,7,16,13,25,20a133.9,133.9,0,0,0,13,12c6,4,11,8,17.4,12.1" transform="translate(-0.7)"/><path class="eb7b28b8-ebe4-4e2b-a82c-527a6b280877" d="M101.4,348c14.3-6.3,26.3-14.3,40.3-22.3,8-5,15-10,24-15,24-13,48-27,73-39,4-1,8-1,12-3,9-5,19-8,29-10,36-10,73-8,107,6,45,19,78,55,116.2,83.2" transform="translate(-0.7)"/><path class="bd116b1e-0192-4eb6-8c73-75ad58d2ef79" d="M99.5,347.9c26.1-14.1,51.5-29.4,77.5-43.8,24.6-13.5,48.9-27.7,75.4-37.3,27.8-10,58.5-15.9,88-11.8,15,2.1,30.4,4.9,44.5,10.4,13.2,5.2,25.5,13,37.3,20.9,24.6,16.3,46.1,36.6,69.5,54.5,3.1,2.3,6.1,4.6,9.3,6.9" transform="translate(-0.7)"/><path class="bd116b1e-0192-4eb6-8c73-75ad58d2ef79" d="M100,348c26.6-13.3,50.6-30.3,77.6-45.3,10-5,20-9,30-14a178.27,178.27,0,0,1,27-15c8-3,17-6,25-9,31-9,62-13,95-7,29,6,53,18,77,36,24,19,44,38,68.4,54.1" transform="translate(-0.7)"/><path class="ab3a4512-61ba-43c3-ad51-6bdc0c6d4ec9" d="M98.7,348a332.54,332.54,0,0,0,35-18.3c50-29,95-59,153-70q54-10.5,102,12c2,1,5,0,7,1,9,6,18,10,27,16,26,21,50,40,75.8,59.2" transform="translate(-0.7)"/><path class="ed7c3793-6967-4ec4-a5a5-0bc5df7c3446" d="M98.3,347.7c25.7-13.9,50.6-29.1,76.2-43.3,24.3-13.5,49.3-26,75.8-34.8,27-9,55.9-14.3,84.3-12,15.5,1.3,29.9,5.6,44.5,10.7,6.8,2.4,13.7,4.5,20.1,7.8,6.2,3.2,12.1,7.2,18.1,10.7,25.7,15.1,47,37,71.3,54.1,3.1,2.2,6.3,4.4,9.4,6.6" transform="translate(-0.7)"/><path class="ed7c3793-6967-4ec4-a5a5-0bc5df7c3446" d="M97.4,347.8c28.2-16.1,55.2-32.1,84.2-47.1,42-22,84-41,131-42,20,0,40,2,60,8,21,7,39,17,58,30,16,12,29,23,45,34,8,6,15,11,22.9,17.2" transform="translate(-0.7)"/><path class="aa100e0d-8942-43a2-abd4-a01e7b51134b" d="M95.9,348c21.8-9.4,39.8-25.4,62.8-33.4,17-12,36-21,55-30,6-3,11-4,17-7,42-17,89-24,134-11,22,7,42,15,60,29,3,2,5,2,8,4,17,12,30,25,47,37,6,4,11,7,16,11.1" transform="translate(-0.7)"/><path class="aa100e0d-8942-43a2-abd4-a01e7b51134b" d="M94.8,347.9c38.8-21.2,75.8-43.2,115.8-61.2,7-3,15-6,22-9,3-1,5-1,8-2,46-18,98-21,143-2,41,18,74,49,111.1,74.3" transform="translate(-0.7)"/><path class="aa100e0d-8942-43a2-abd4-a01e7b51134b" d="M93.4,348c6.2-3.3,11.2-5.3,17.2-8.3,68-40,136-81,215-76a186.29,186.29,0,0,1,79,21c33,18,59,43,89.2,63" transform="translate(-0.7)"/><path class="bd973508-474b-4c31-93e9-2806a1ac454e" d="M92.9,348c5.8-4.2,12.8-7.2,19.8-10.2,8-4,16-9,24-14,26-15,51-27,77-39h4c50-23,109-28,161-9,2,1,4,3,7,4,12,4,22,9,33,15,27,17,49,37,74.5,53.3" transform="translate(-0.7)"/><path class="b8fc03b8-99ae-4702-a7c3-842c8abb5d07" d="M92.3,347.8c18.3-11.1,36.3-20.1,55.3-31.1,8-5,17-8,25-12,45-25,94-41,145-40a210.45,210.45,0,0,1,66,14c40,16,72,45,107.3,69.1" transform="translate(-0.7)"/><path class="b8fc03b8-99ae-4702-a7c3-842c8abb5d07" d="M90.2,348c26.1-13.5,51.7-27.9,77.9-41,26-12.9,52.8-24.6,80.9-31.9s57.5-10.1,86.3-6.5c28.1,3.5,54.4,13.5,78.9,27.6,23.6,13.6,45.4,30.1,67.7,45.7,2.9,2,5.7,4,8.6,5.9" transform="translate(-0.7)"/><path class="a711f5d3-f2d6-45b9-9b94-efc7c3f2585d" d="M88.3,348c31.3-16.2,61.4-33.2,93.4-49.2,2-1,5-1,7-2,41-21,87-32,133-29,41,2,77,20,113,42a50.34,50.34,0,0,1,7,6c9,5,16,10,24,15,8,6,16,11,23.9,17.3" transform="translate(-0.7)"/><path class="a711f5d3-f2d6-45b9-9b94-efc7c3f2585d" d="M88.3,347.8c26-13.4,51.6-27.6,77.9-40.4,25.9-12.6,52.7-23.7,80.7-30.6s57.1-9.3,85.7-5.8c27.9,3.4,54.3,13,78.8,26.5,23.9,13.2,45.9,29.3,68.4,44.6,2.8,1.9,5.7,3.9,8.6,5.8" transform="translate(-0.7)"/><path class="a711f5d3-f2d6-45b9-9b94-efc7c3f2585d" d="M86.1,347.9c39.6-18.2,75.6-43.2,118.6-56.2,3-1,5-3,8-4,2-1,3,0,5-1,3-1,5-3,8-4l9-3c43-13,88-14,132-1,46,14,81,45,121,69.3" transform="translate(-0.7)"/><path class="a4fd00e5-d1c9-4bef-8fd3-b8bcfe21f027" d="M86.2,347.8c33.4-18.1,66.4-36.1,101.4-51.1,2-1,3,0,5-1,44-19,91-30,140-23,33,5,61,17,90,34,22,14,42,27,62.3,41.2" transform="translate(-0.7)"/><path class="a4fd00e5-d1c9-4bef-8fd3-b8bcfe21f027" d="M84.9,347.8c77.7-41.2,159.7-90.2,254.7-71.2h5c54,12,95,42,139.3,71" transform="translate(-0.7)"/><path class="a9d47402-f07f-4829-86f5-29dc5efb91d2" d="M82.3,348c26.1-13.3,51.8-27.6,78.4-39.9,24.7-11.4,50.4-21.1,76.9-27.4,27.2-6.4,55.1-9.4,83-6.6a242.06,242.06,0,0,1,81.9,23.8,372.71,372.71,0,0,1,36,20.2c12,7.5,24.2,15.4,35.6,23.9,2.4,1.8,5.1,5.1,7.9,6" transform="translate(-0.7)"/><path class="a4fd00e5-d1c9-4bef-8fd3-b8bcfe21f027" d="M83.4,347.7c12.3-6.1,23.3-12.1,35.3-17.1,13-7,25-16,39-22,6-2,12-3,17-5,67-33,146-41,214-10,2,1,3,0,5,1,10,4,19,10,29,16,21,11,39,25,59.5,37.2" transform="translate(-0.7)"/><path class="a9d47402-f07f-4829-86f5-29dc5efb91d2" d="M81.9,348c25.7-13,50.7-27.6,76.7-39.9a331.05,331.05,0,0,1,76.3-25.6c29-5.8,59.1-8.5,88.6-5.1,29.2,3.3,56.2,13.4,82.6,26.1,5.1,2.5,11.7,4.7,15.9,8.6s9.6,5.9,14.4,8.7c5.9,3.5,11.5,8.1,17.9,10.7s11.7,7,17.4,10.8c2.8,1.9,5.6,3.7,8.5,5.6" transform="translate(-0.7)"/><path class="a9d47402-f07f-4829-86f5-29dc5efb91d2" d="M81.6,347.9c36.1-17.2,68.1-40.2,107.1-51.2,5-1,8-5,13-6,19-4,36-9,55-12s38-5,57-2c24,4,48,8,70,18,2,1,3,0,5,1,25,12,49,25,72,42,6,5,14,6,20,10.3" transform="translate(-0.7)"/><path class="a9d47402-f07f-4829-86f5-29dc5efb91d2" d="M79.1,348c32.5-16.3,63.5-34.3,97.5-47.3,42-16,87-25,132-22,63,4,117,37,168.8,69.3" transform="translate(-0.7)"/><path class="a4fd00e5-d1c9-4bef-8fd3-b8bcfe21f027" d="M78.4,348c23.8-12.6,47.5-25.4,72.1-36.5,24.3-11,49.5-20.5,75.6-26.3a277.13,277.13,0,0,1,84.7-5.3c29.3,2.6,57,10.6,83.8,22.3,6.3,2.8,12.6,5.7,18.7,8.8,5.8,2.9,13,5.5,18.2,9.5,2.2,1.7,3.2,4,5.7,5.4,3.2,1.8,6.5,3.6,9.8,5.4q9.6,5.4,19.2,11.1c3.2,1.9,6.3,3.8,9.5,5.7" transform="translate(-0.7)"/><path class="a4fd00e5-d1c9-4bef-8fd3-b8bcfe21f027" d="M77.7,348c24.1-12.8,48.3-25.5,73.3-36.6,25.3-11.2,51.8-21.4,79.1-26.6a312.86,312.86,0,0,1,86.4-3.6c26.1,2.6,51.4,10.3,75.3,20.9,25.5,11.3,49.3,25.8,73.1,40.2l9,5.4" transform="translate(-0.7)"/><path class="a711f5d3-f2d6-45b9-9b94-efc7c3f2585d" d="M76.4,347.7c50.2-27,99.2-52,157.2-63,43-7,83-5,124,7,33,10,63,26,93,43,8,5,15,9,21.6,13" transform="translate(-0.7)"/><path class="a711f5d3-f2d6-45b9-9b94-efc7c3f2585d" d="M75.1,347.9c49.6-27.2,100.6-52.2,158.6-62.2,49-8,96-4,142,13,34,13,64,32,95.1,49.1" transform="translate(-0.7)"/><path class="a711f5d3-f2d6-45b9-9b94-efc7c3f2585d" d="M73.8,347.9C98.6,335,123.3,322,149,311.1c24.9-10.5,50.8-19,77.4-23.8a284.46,284.46,0,0,1,82.4-2.4,299.71,299.71,0,0,1,79.6,20.9c25,10.3,48.8,23.5,72.2,37,3,1.7,5.9,3.4,8.9,5.1" transform="translate(-0.7)"/><path class="b8fc03b8-99ae-4702-a7c3-842c8abb5d07" d="M73.1,347.7c41.6-22,81.6-43,128.6-55,40-10,78-12,119-5a378.43,378.43,0,0,1,48,12c11,3,20,8,31,12,24,10,45,24,67.8,36.2" transform="translate(-0.7)"/><path class="bd973508-474b-4c31-93e9-2806a1ac454e" d="M71.5,348c27.2-14.3,54.2-28.3,83.2-40.3,2-1,3,0,5-1,49-20,101-27,154-19,56,8,105,33,151.9,60.1" transform="translate(-0.7)"/><path class="bd973508-474b-4c31-93e9-2806a1ac454e" d="M70.7,347.8c55.9-30.1,114.9-58.1,179.9-62.1,76-4,148,25,213.5,62.3" transform="translate(-0.7)"/><path class="bd973508-474b-4c31-93e9-2806a1ac454e" d="M69.4,348c37.3-19.3,73.3-38.3,113.3-50.3a287.57,287.57,0,0,1,113-10c20,2,39,7,59,12,38,11,73,29,107.5,48.3" transform="translate(-0.7)"/><path class="aa100e0d-8942-43a2-abd4-a01e7b51134b" d="M68.7,347.8c23-12.2,45-24.2,69-34.2,29-12,59-21,90-25,53-6,105,2,155,22,12,5,23,9,35,15,14,8,28,14,42.4,22.3" transform="translate(-0.7)"/><path class="aa100e0d-8942-43a2-abd4-a01e7b51134b" d="M67.3,348c24-12.7,48.1-25.4,73.2-35.6,24.4-9.9,49.7-17.5,75.7-21.4a288.7,288.7,0,0,1,80.4-.5,369.77,369.77,0,0,1,79,19.6c25.3,9.3,49.7,21,73.7,33.4L458,348" transform="translate(-0.7)"/><path class="ed7c3793-6967-4ec4-a5a5-0bc5df7c3446" d="M66.7,347.9c20-10.2,39-21.2,59-30.2a462.36,462.36,0,0,1,48-18c12-3,24-5,36-8a246.59,246.59,0,0,1,47-4c71,1,137,29,199.1,60.2" transform="translate(-0.7)"/><path class="ed7c3793-6967-4ec4-a5a5-0bc5df7c3446" d="M65.5,347.8c23.7-12.6,47.6-25.3,72.6-35.3,24.1-9.6,49.2-16.9,74.8-20.5a290.4,290.4,0,0,1,80.1.2,382.34,382.34,0,0,1,78.2,19.4c25.3,9,49.8,20.2,73.8,32.1,3,1.5,5.9,2.9,8.9,4.4" transform="translate(-0.7)"/><path class="bd116b1e-0192-4eb6-8c73-75ad58d2ef79" d="M64.4,347.8c23.4-12.5,47-25,71.7-34.9a322.49,322.49,0,0,1,74.8-20.4,290,290,0,0,1,79.5.4,405.6,405.6,0,0,1,78.5,19.3c25.3,8.8,49.7,19.8,73.8,31.4l8.9,4.4" transform="translate(-0.7)"/><path class="ab3a4512-61ba-43c3-ad51-6bdc0c6d4ec9" d="M63.9,347.8c35.8-19.1,69.8-39.1,111.8-48.1,1,0,3-2,4-2,70-17,141-6,205,23,21,9,44,16,64.5,27.3" transform="translate(-0.7)"/><path class="eb7b28b8-ebe4-4e2b-a82c-527a6b280877" d="M62.2,347.8c18.4-10.1,35.4-19.1,53.4-28.1,3-2,7-2,11-3,28-14,57-21,88-25a290.83,290.83,0,0,1,59,0c62,7,119,30,173.5,56.3" transform="translate(-0.7)"/><path class="eb7b28b8-ebe4-4e2b-a82c-527a6b280877" d="M60.7,347.9c41-22.2,81-43.2,128-52.2,92-17,175,17,254.9,52.3" transform="translate(-0.7)"/><path class="b069c908-4f93-4386-9dff-0117a10bfe9d" d="M105,348c68.7-38.3,132.7-89.3,213.7-97.3,54-5,102,24,140,61,1,1,3,1,4,2,13,13,29,23,43.1,34.3" transform="translate(-0.7)"/><path class="eb7b28b8-ebe4-4e2b-a82c-527a6b280877" d="M60.5,347.8c36.2-19.1,70.2-38.1,111.2-47.1,1,0,3-2,4-2,65-14,127-4,187,17,3,1,6,3,9,4,24,8,47,18,69.9,28.2" transform="translate(-0.7)"/></g><path class="ab3a4512-61ba-43c3-ad51-6bdc0c6d4ec9" d="M1,246.8c1.6-2.1,4.7-3.1,6.7-5.1,15-15,33-24,52-32a82.32,82.32,0,0,1,44-3c51,9,88,39,131,69,5,3,10,6,16,9,35,23,66,44,101.4,63.2" transform="translate(-0.7)"/><path class="ab3a4512-61ba-43c3-ad51-6bdc0c6d4ec9" d="M1.1,285.1c53.5-29.4,106.5-63.4,169.5-70.4,86-10,163,35,226,91,16,14,29,29,44.9,42.2" transform="translate(-0.7)"/><path class="bd116b1e-0192-4eb6-8c73-75ad58d2ef79" d="M1,284.1C29.9,267,59.1,250.2,90,237c32.4-13.9,66.5-24.5,102.1-24,32.7.5,64.4,8.9,94.4,21.6,27.6,11.6,53.4,27.1,77.3,45,12.2,9.1,23.9,18.9,35.1,29,11.7,10.5,22.6,21.7,34.7,31.8,3,2.5,6,4.9,9.1,7.3" transform="translate(-0.7)"/><path class="ed7c3793-6967-4ec4-a5a5-0bc5df7c3446" d="M1,283.2c12.8-9.2,27.2-15.9,41.3-22.9,7.2-3.6,14.3-7.2,21.2-11.3a34.4,34.4,0,0,1,9.8-4.3c3.8-1,7.2-3.5,10.6-5.3,14.5-7.2,30.2-12.5,45.4-17.8,15-5.2,32.3-7.1,48.1-7.8,32.6-1.5,66.3,3.7,96.1,17.2,28.5,12.9,56,26.6,81.6,44.7,27,19.1,51.3,42.1,76.2,63.9,3.2,2.8,6.3,5.6,9.6,8.1" transform="translate(-0.7)"/><path class="ed7c3793-6967-4ec4-a5a5-0bc5df7c3446" d="M1.3,281.9c39.3-21.2,76.3-44.2,119.3-58.2,50-15,103-13,150,8,2,1,3,0,5,1,11,6,23,9,34,16,1,1,2,3,3,4,8,3,15,6,22,11,40,26,72,55,106.8,84" transform="translate(-0.7)"/><path class="aa100e0d-8942-43a2-abd4-a01e7b51134b" d="M1.3,281c42.3-22.3,81.3-48.3,128.4-61.3,49-14,100-6,145,17,4,2,9,2,14,4a333.68,333.68,0,0,1,54,32c4,2,7,4,11,6,17,10,30,22,45,34,1,1,2,3,3,4,14,10,24,22,37.9,31.4" transform="translate(-0.7)"/><path class="aa100e0d-8942-43a2-abd4-a01e7b51134b" d="M1.1,280c26.6-14.4,52.6-31.4,80.6-44.4,25-11,51-19,78-22a235.84,235.84,0,0,1,46,1c36,5,69,19,101,36,38,21,72,46,105,75,2,2,5,2,7,4,7,7,13,13,20.7,18.3" transform="translate(-0.7)"/><path class="aa100e0d-8942-43a2-abd4-a01e7b51134b" d="M1.1,279c5.6-4.4,12.6-8.4,18.6-12.4,52-30,107-54,166-53,27,1,52,9,77,18,33,13,61,29,91,50,31,23,58,45,88,66.2" transform="translate(-0.7)"/><path class="bd973508-474b-4c31-93e9-2806a1ac454e" d="M.9,278.2c6.5-4.1,13.5-7.4,20-11.6,6.8-4.4,14.1-7.6,21.2-11.7a374.7,374.7,0,0,1,42.5-21.3c28.7-12.1,59.3-19.9,90.5-20.3,33-.4,65.5,10.5,95.1,24.3,28.6,13.4,55.9,29.4,82.2,46.9,26.6,17.6,52.2,36.6,77.6,55.8l9.7,7.3" transform="translate(-0.7)"/><path class="bd973508-474b-4c31-93e9-2806a1ac454e" d="M.9,277.2c46.8-28.5,95.8-57.5,151.8-62.5,61-5,117,20,170,52,8,5,15,10,23,15s15,12,23,17c9,5,17,9,25,15,16,12,30,23,45.9,34.1" transform="translate(-0.7)"/><path class="bd973508-474b-4c31-93e9-2806a1ac454e" d="M.9,276.1c41.8-24.5,82.8-49.5,132.8-59.5h5c82-15,149,30,215,72,30,19,54,41,83.4,59.2" transform="translate(-0.7)"/><path class="b8fc03b8-99ae-4702-a7c3-842c8abb5d07" d="M1.3,274.9c32.4-22.2,67.4-40.2,104.4-52.2a187.4,187.4,0,0,1,88-6c90,17,154,72,230,123,5,3,9,7,14.4,8.2" transform="translate(-0.7)"/><path class="b8fc03b8-99ae-4702-a7c3-842c8abb5d07" d="M1.1,274c6.6-5.4,15.6-7.4,21.6-14.4,14-6,27-16,41-22,3-1,6-1,9-2,18-9,37-15,57-19,19-3,36-4,55-1,34,5,64,18,95,33,28,14,53,29,80,47,27,19,51,35,76.5,52.2" transform="translate(-0.7)"/><path class="a711f5d3-f2d6-45b9-9b94-efc7c3f2585d" d="M1.2,273c50.4-32.3,105.4-61.3,166.4-58.3a206.47,206.47,0,0,1,48,9c17,6,34,12,50,20,10,5,19,10,29,15,49,28,93,59,140.3,89" transform="translate(-0.7)"/><path class="a711f5d3-f2d6-45b9-9b94-efc7c3f2585d" d="M1,272.1c36.7-22.4,71.7-43.4,115.7-53.4,42-9,81-2,119,13,72,30,132,77,198.2,116.2" transform="translate(-0.7)"/><path class="a4fd00e5-d1c9-4bef-8fd3-b8bcfe21f027" d="M1.1,271c14.5-9.4,29.5-19.4,45.5-28.4,25-13,51-23,79-27,44-6,87,4,126,25,3,1,6,1,9,3,17,10,33,17,49,27,14,9,27,17,41,25,10,6,18,13,28,20,2,1,5,2,7,3,16,11,31,20,47.4,29.3" transform="translate(-0.7)"/><path class="a711f5d3-f2d6-45b9-9b94-efc7c3f2585d" d="M1.3,270c47.3-31.3,100.3-58.3,158.4-55.3,53,3,99,30,146,56,43,25,82,53,125,77.2" transform="translate(-0.7)"/><path class="a4fd00e5-d1c9-4bef-8fd3-b8bcfe21f027" d="M1.1,269.1c24.7-16.2,50.4-31.3,78.2-41.7,28.3-10.6,58.1-15.4,88.2-11.5,30.3,4,59,15.3,86.2,28.8,28.4,14.1,55.6,30.4,82.5,47.1,27.4,17,54.5,34.4,82.5,50.4,3.4,2,6.8,3.9,10.3,5.8" transform="translate(-0.7)"/><path class="a4fd00e5-d1c9-4bef-8fd3-b8bcfe21f027" d="M1.3,268c46.3-31.3,98.3-57.3,155.4-53.3,55,5,101,33,149,60,42,25,80,50,121.1,73" transform="translate(-0.7)"/><path class="a4fd00e5-d1c9-4bef-8fd3-b8bcfe21f027" d="M1,267.2c19.7-13.6,39.7-26.6,61.7-35.6,15-6,30-12,47-15a203.65,203.65,0,0,1,34-3c13,1,25,2,38,5,16,4,31,10,46,16,32,14,60,35,91,49,32,21,64,41,98,61,2,1,5,2,6.6,3.1" transform="translate(-0.7)"/><path class="a4fd00e5-d1c9-4bef-8fd3-b8bcfe21f027" d="M.9,266.3c32.7-23.6,68.8-42.6,110.8-50.6,30-6,57-2,85,8,7,3,14,6,22,9,39,17,73,37,110,61,6,3,11,6,17,9,15,10,30,18,44,28,11,2,19,11,29,16,1,1,3,1,3.7,1.2" transform="translate(-0.7)"/><path class="a9d47402-f07f-4829-86f5-29dc5efb91d2" d="M1.1,265.2C25.5,247.4,52,232,80.7,222.4c29.4-9.9,59.5-12.2,90-5.5,30,6.6,57.9,20.2,84.6,34.9,26.5,14.6,52.2,30.3,77.8,46.4,25,15.6,50.1,31.2,76.4,44.8,3.3,1.7,6.5,3.3,9.8,4.9" transform="translate(-0.7)"/><path class="a9d47402-f07f-4829-86f5-29dc5efb91d2" d="M.8,264.4a332.34,332.34,0,0,1,70.9-38.8c36-15,76-17,113-4,8,3,17,6,25,9q41.55,19.5,81,43c43,26,82,52,126.1,74.1" transform="translate(-0.7)"/><path class="a9d47402-f07f-4829-86f5-29dc5efb91d2" d="M1.3,263.2c32.3-22.5,66.3-41.5,105.3-48.5,37-5,72,3,105,18,60,28,113,65,171,99,10,6,21,11,31.4,16.1" transform="translate(-0.7)"/><path class="a4fd00e5-d1c9-4bef-8fd3-b8bcfe21f027" d="M1,262.4c44.6-34.7,100.6-59.7,159.6-46.7,15,4,28,10,43,15,7,3,13,7,20,9,12,4,22,11,33,17,32,19,61,38,93,58,21,12,40,24,61.3,33.2" transform="translate(-0.7)"/><path class="a4fd00e5-d1c9-4bef-8fd3-b8bcfe21f027" d="M1,261.5c38.7-27.8,83.7-51.8,133.7-48.8,16,1,31,5,46,10,14,5,28,10,42,18,30,17,58,33,88,51,33,21,64,40,97.8,56.1" transform="translate(-0.7)"/><path class="a4fd00e5-d1c9-4bef-8fd3-b8bcfe21f027" d="M1.3,260.2c23.3-17.6,49.3-32.6,77.3-41.6,33-10,69-8,101,4,50,20,94,49,141,78,20,12,38,23,58,34,9,4,18,9,26.9,13.2" transform="translate(-0.7)"/><path class="a711f5d3-f2d6-45b9-9b94-efc7c3f2585d" d="M1.1,259.4c34.5-26.8,76.5-49.8,122.5-47.8,47,1,87,24,128,48,51,31,97,64,150.3,88.3" transform="translate(-0.7)"/><path class="a711f5d3-f2d6-45b9-9b94-efc7c3f2585d" d="M1.1,258.5c11.6-6.8,21.5-15.8,34.5-21.8l3-3c20-11,41-20,64-22a159.38,159.38,0,0,1,65,8c1,0,2,1,3,2,4,1,7,2,11,3,26,12,50,26,75,40,48,28,91,60,140.2,83.2" transform="translate(-0.7)"/><path class="a711f5d3-f2d6-45b9-9b94-efc7c3f2585d" d="M1,257.7A235,235,0,0,1,71.3,218c27.5-9.8,58-9.3,85.9-1.3a233.67,233.67,0,0,1,39.6,15c12.8,6.3,25.1,13.8,37.5,21,25,14.5,49.4,29.7,73.2,46,12.3,8.4,25.4,15.8,38.3,23.4,12.6,7.4,25.4,14.4,38.4,21.1,3.1,1.6,6.3,3.2,9.5,4.7" transform="translate(-0.7)"/><path class="b8fc03b8-99ae-4702-a7c3-842c8abb5d07" d="M1,256.8c5.7-5.1,11.7-8.1,17.7-13.1l15-9c32-19,67-29,104-22,73,16,124,62,187,98,23,13,45,26,67.6,37.2" transform="translate(-0.7)"/><path class="b8fc03b8-99ae-4702-a7c3-842c8abb5d07" d="M.9,255.9c8.8-5.2,15.8-13.2,25.8-17.2l3-3c29-16,59-27,92-25,40,3,73,23,108,43,54,32,103,67,159.3,94.3" transform="translate(-0.7)"/><path class="bd973508-474b-4c31-93e9-2806a1ac454e" d="M.9,254.9c19.8-16.3,41.8-30.2,66.2-38.4a142,142,0,0,1,39.3-7.2c14-.6,29,2.3,42.4,6.2,27.9,8.2,53.4,23.2,78,38.2s49.1,30.7,73.7,45.9,50,29.5,75.3,43.5c3,1.6,5.9,3.2,8.9,4.8" transform="translate(-0.7)"/><path class="bd973508-474b-4c31-93e9-2806a1ac454e" d="M.9,254c34.8-25.4,73.8-49.4,118.8-44.4,42,6,77,25,113,49,4,3,9,5,13,7l12,9c2,1,3,1,5,2,40,26,76,52,118.1,71.3" transform="translate(-0.7)"/><path class="aa100e0d-8942-43a2-abd4-a01e7b51134b" d="M1,253.1c19.6-15.9,41.3-29.8,65.5-37.6a125,125,0,0,1,77-.4c27.3,8.8,53,23.4,77.5,38.1s48.5,30.8,72.7,46.3,48.7,30.8,74.3,43.8c3.1,1.6,6.3,3.2,9.5,4.7" transform="translate(-0.7)"/><path class="ed7c3793-6967-4ec4-a5a5-0bc5df7c3446" d="M1,252.2c19.2-16.6,40.9-31,65.2-38.7,25.7-8.2,51.9-7,77.2,1.9,26.7,9.4,52,23.3,76.2,37.8,12.2,7.3,24.2,15.1,36,23s23,17.1,35.6,23.8c25.1,13.5,48.2,30.2,73.6,43.2,3.1,1.6,6.2,3.1,9.2,4.6" transform="translate(-0.7)"/><path class="ed7c3793-6967-4ec4-a5a5-0bc5df7c3446" d="M.9,251.2c20.4-16.1,42.7-31.8,68-38.9,26.2-7.4,53-4.4,78.1,5.1,25.7,9.8,49.6,24.3,72.9,38.8,23.8,14.8,47.1,30.3,70.8,45.2,23.3,14.8,46.9,29.2,71.4,41.9,2.9,1.5,5.8,3,8.7,4.4" transform="translate(-0.7)"/><path class="ed7c3793-6967-4ec4-a5a5-0bc5df7c3446" d="M1.1,250.2c19.7-15.9,41.5-30.1,65.9-37.7,26.8-8.3,54-6.1,79.6,5.1,25,11,48.7,24.5,71.8,38.9,23.5,14.7,46.3,30.4,69.5,45.5,22.7,14.8,46,28.8,70,41.4,2.8,1.5,5.7,3,8.5,4.4" transform="translate(-0.7)"/><path class="bd116b1e-0192-4eb6-8c73-75ad58d2ef79" d="M1.3,249.2c28.4-27.5,67.4-46.5,108.4-41.5,44,7,78,30,115,56,3,2,6,2,9,4,16,11,30,20,46,30,4,3,7,5,11,8,3,2,6,2,8,4,4,4,9,8,14,10,17,9,32,20,49.4,28.1" transform="translate(-0.7)"/><path class="bd116b1e-0192-4eb6-8c73-75ad58d2ef79" d="M.8,248.7c14.6-12.9,30.1-24.1,47.8-32.3a111.69,111.69,0,0,1,88.7-2.4c26.9,10.9,51.6,25.9,75.9,41.7,22.9,14.9,45.4,30.5,68.2,45.6,22.4,14.9,45.2,29.3,68.9,41.9,3,1.6,5.9,3.1,8.9,4.6" transform="translate(-0.7)"/><path class="ab3a4512-61ba-43c3-ad51-6bdc0c6d4ec9" d="M.9,247.7c18.9-16.2,40-31.4,64.1-38.6,25.2-7.5,50.9-3.3,74.7,6.8,24,10.2,46.7,24.5,68.5,38.6,23.3,15,46.1,30.8,69.2,46.1,22.6,15,45.5,29.6,69.4,42.7,2.9,1.6,5.9,3.2,8.8,4.8" transform="translate(-0.7)"/><path class="ab3a4512-61ba-43c3-ad51-6bdc0c6d4ec9" d="M1.4,286c53.3-28.3,103.3-60.3,164.3-71.3,40-6,79,0,115,16,3,1,5,1,8,2,25,10,47,24,71,40,16,10,27,23,40,36,4,3,7,6,11,9,10,11,21,20,31.5,30" transform="translate(-0.7)"/><g class="e7f633c2-4b26-492f-a575-268519a06501"><path class="ad7b420c-7c4f-42b2-aaba-d8c532dee53b" d="M.8,330.8c44.3-18.8,89-39.1,133.7-59.5,2-1,3.1,0,5.1-1,30.5-13.2,58.9-24.4,92.4-31.5,1,0,3.1-2,4.1-2,48.8-11.2,95.5-13.2,143.2-1s88.4,32.5,130,59.9c4.1,2,7.1,3,11.2,5.1a57,57,0,0,1,9.1,7.1c1,1,3,0,4.1,1,26.4,16.2,50.8,32.5,78.9,42.5" transform="translate(-0.7)"/><path class="ad7b420c-7c4f-42b2-aaba-d8c532dee53b" d="M1,330.8c12.6-7.6,26.8-12.7,41-17.8,27.4-12.2,53.8-23.4,80.2-37.6,3-1,5.1-1,8.1-2,44.7-22.4,89.4-38.6,139.1-44.7,51.8-8.1,103.6-3,150.3,18.3,2,1,3,0,5.1,1,12.2,6.1,25.4,10.2,37.6,17.3,12.2,8.1,24.4,12.2,36.6,20.3,6.1,5.1,13.2,7.1,19.3,12.2l3,3c12.2,6.1,22.3,13.2,33.5,20.3,1,1,3,0,4.1,1,18.3,12.1,34.5,21.3,53.8,29.2" transform="translate(-0.7)"/><path class="ad7b420c-7c4f-42b2-aaba-d8c532dee53b" d="M1.4,330.7c17.3-5.5,31.5-15.7,48.8-21.8,2-1,3,0,5.1-1,22.3-10.2,43.7-22.4,66-31.5,6.1-3,11.2-6.1,17.3-9.1,27.4-11.2,53.8-22.4,82.3-31.5,6.1-2,13.2-3,19.3-5.1,62-15.2,125.9-10.2,183.8,15.2,2,1,3,0,5.1,1,51.8,22.4,95.5,54.8,144.2,84.3,13.2,7.1,25.4,15.2,39.2,19.5" transform="translate(-0.7)"/><path class="ad7b420c-7c4f-42b2-aaba-d8c532dee53b" d="M1,331c113.2-46.4,220.8-128.7,351.8-108.4A342.84,342.84,0,0,1,436.1,248c52.8,23.4,95.5,57.9,146.2,87.4,10.2,5.1,19.3,10.2,30,14.7" transform="translate(-0.7)"/><path class="a0e68304-b900-48df-a046-b3713065260d" d="M1.2,330.9C14.6,325.1,28.8,319,42,313c39.6-20.3,77.2-38.6,116.8-57.9,54.8-25.4,113.8-41.6,174.7-37.6,59.9,4.1,111.8,28.5,163.5,60.9,39.6,25.4,74.1,51.8,115.2,71.1" transform="translate(-0.7)"/><path class="b97f67fd-4781-47f0-9f89-561906f47182" d="M.8,331.2c41.1-17.8,80.7-38.5,120.5-59,38.8-19.9,78.5-38.8,121-49.4a280.89,280.89,0,0,1,129.9-1.9c42,9.5,81,28.5,117.4,51.1,36.7,22.8,70.7,50.1,108.9,70.4q6.9,3.75,14.1,6.9" transform="translate(-0.7)"/><path class="b97f67fd-4781-47f0-9f89-561906f47182" d="M1.1,331.1c49.1-21.2,93.8-46.6,141.5-72,67-34.5,137.1-57.9,214.3-44.7,48.8,9.1,89.4,28.4,132,53.8,42.6,27.4,78.2,59.9,123.4,80.6" transform="translate(-0.7)"/><path class="b97f67fd-4781-47f0-9f89-561906f47182" d="M1.3,331.1c21.4-9,41.8-19.2,63.1-30.3,27.4-15.2,54.8-28.4,82.3-44.7,56.9-31.5,118.8-52.8,183.8-47.7,59.9,4.1,112.7,28.4,164.5,63,36.6,25.4,68,48.8,105.6,72.1a102.32,102.32,0,0,0,11.7,5.3" transform="translate(-0.7)"/><path class="a64c0351-fff2-4f33-b5ff-32dc67c2e929" d="M1.1,331.3c41.3-18.1,80.4-40,119.5-62.2,38.4-21.8,77.8-42.6,120.8-53.9A274.21,274.21,0,0,1,373.7,213c42.1,9.8,81,29.2,116.9,52.8,36.6,24,69.9,53.4,108,75.1q6.75,3.9,13.8,7.2" transform="translate(-0.7)"/><path class="a64c0351-fff2-4f33-b5ff-32dc67c2e929" d="M1.3,331.3C42.9,313,82,290.5,121.2,267.6c38.2-22.3,77.3-43.5,120.2-55.1a271.36,271.36,0,0,1,132.8-2.2c42.5,10,81.7,29.9,117.8,54.1,36.3,24.4,69,54.2,106.9,76.1,4.5,2.6,9,5,13.6,7.3" transform="translate(-0.7)"/><path class="a64c0351-fff2-4f33-b5ff-32dc67c2e929" d="M.9,331.5c56.4-21.6,104.1-58.2,158-87.6,13.2-7.1,25.4-13.2,38.6-19.3,2-1,3,0,5.1-1,41.6-19.3,86.3-25.4,131-23.4,96.5,6.1,170.6,69.1,245.8,128,11.2,7.1,21.3,14.2,33.3,19.3" transform="translate(-0.7)"/><path class="bdead7d9-4579-4333-b428-5dba48a2b1b2" d="M1.1,331.5c27.7-9.4,51.1-24.6,76.5-39.9,49.8-29.5,94.4-62,149.3-81.3a264.18,264.18,0,0,1,122.9-11.1c37.6,5.1,72.1,19.3,105.6,36.6,5.1,3,10.2,7.1,16.3,10.1,26.4,17.3,47.7,33.5,72.1,52.8,22.3,18.3,43.7,35.5,68.5,48.5" transform="translate(-0.7)"/><path class="bdead7d9-4579-4333-b428-5dba48a2b1b2" d="M1.4,331.5c26.5-9.4,48.8-25.6,74.2-38.9l3-3c6.1-1,10.2-4.1,15.2-7.1,31.5-22.3,59.9-40.6,93.4-57.9a531.86,531.86,0,0,1,55.9-21.4c18.3-5.1,36.6-7.1,54.8-9.1a249.18,249.18,0,0,1,120.9,22.3c2,1,3,0,5.1,1,16.2,8.1,31.5,17.3,47.7,26.4l3,3c12.2,5.1,22.4,13.2,32.5,21.3,10.2,9.1,20.3,16.2,30.5,24.4,1,1,2,3,3,4.1,19.3,13.2,34.5,27.4,53.8,39.6,6.1,3,12.2,7.1,18,10.3" transform="translate(-0.7)"/><path class="eb9da42c-7df6-4738-8cdf-6610f6c956e5" d="M1,331.8c20.8-10.7,41.1-18.8,61.4-31,20.4-13.2,38.6-23.4,58.9-37.6a523.47,523.47,0,0,1,85.3-49.8c2-1,3,0,5.1-1,97.5-42.6,208.2-17.3,290.5,48.7,30.5,25.4,56.9,48.8,88.4,72.1a165,165,0,0,0,21.8,13" transform="translate(-0.7)"/><path class="eb9da42c-7df6-4738-8cdf-6610f6c956e5" d="M1.2,331.8a599,599,0,0,0,60.6-31.4c20-11.8,39.1-25,58.2-38,18.8-12.7,37.7-25.3,57.5-36.2a307.06,307.06,0,0,1,61.6-26.3A256.7,256.7,0,0,1,306,189.3a268.62,268.62,0,0,1,68.6,7.3,292.64,292.64,0,0,1,62.7,22.9,388.67,388.67,0,0,1,56.4,34.8c18.5,13.6,35.9,28.6,53.4,43.5,16.6,14.1,33.2,28.5,51.6,40.2,4.5,2.9,9,5.5,13.7,8" transform="translate(-0.7)"/><path class="eb9da42c-7df6-4738-8cdf-6610f6c956e5" d="M1,332a575.52,575.52,0,0,0,60.8-31.8c20-12,39-25.5,58.1-38.8,18.7-13.1,37.5-26,57.4-37.2a311.35,311.35,0,0,1,61.2-26.8,251.08,251.08,0,0,1,67.2-10.9,265.31,265.31,0,0,1,69.3,7.4A292.92,292.92,0,0,1,437.9,217a370.62,370.62,0,0,1,56.4,35.4c18.3,13.7,35.5,28.9,52.8,44,16.5,14.4,33.1,29,51.5,41.1,4.4,2.9,9,5.6,13.6,8.1" transform="translate(-0.7)"/><path class="eb9da42c-7df6-4738-8cdf-6610f6c956e5" d="M1.2,331.9c21.5-10.8,43.9-20,64.2-35.2,2-1,3-1,5.1-2,41.6-28.4,77.2-56.9,119.8-81.2,31.5-17.3,64-25.4,98.5-29.5,31.5-3,60.9,1,92.5,8.2,28.4,7.1,52.8,18.3,78.2,33.5,41.6,26.4,75.1,56.9,110.7,89.4,13.2,12.2,26.4,23.4,42.2,30.7" transform="translate(-0.7)"/><path class="eb9da42c-7df6-4738-8cdf-6610f6c956e5" d="M.8,332.2c19.9-8,38.2-18.2,57.5-30.4,53.8-33.5,96.5-74.1,152.4-100.6,2-1,3,0,5.1-1,63-28.5,135.1-25.4,198.1,0,55.9,23.3,100.5,62,144.2,104.6,9.2,9.1,19.3,16.2,30.5,23.4l6.1,6.1c6.1,3,11.2,8.1,17.8,10.7" transform="translate(-0.7)"/><path class="e5d559f6-d55a-4d73-9291-1b12cd73adbd" d="M1.1,332.2c27.8-12.1,52.2-27.4,78.6-44.6a46.5,46.5,0,0,0,7.2-6.1c23.4-15.2,42.6-30.5,64-47.7,5.1-4.1,10.2-6.1,15.2-10.2,16.3-10.2,31.5-19.3,48.8-26.4,42.6-18.3,88.3-23.4,135-17.3,64,9.1,118.8,40.6,166.6,83.3,4.1,3,6.1,7.1,10.2,10.2L542,285.6c17.3,17.3,32.5,32.5,51.8,47.7a176.64,176.64,0,0,0,19.1,11.6" transform="translate(-0.7)"/><path class="e5d559f6-d55a-4d73-9291-1b12cd73adbd" d="M1.3,332.1c29.6-13.1,57-29.3,84.4-48.6,62-46.7,117.8-97.5,196-106.6,68.1-8.1,132.1,9.1,190,48.8,36.6,25.4,63,53.8,94.4,83.3,15.2,13.2,29.5,26.4,46.5,35.5" transform="translate(-0.7)"/><path class="eb9da42c-7df6-4738-8cdf-6610f6c956e5" d="M.9,332.4c6.6-3.2,13.7-5.2,20.9-9.3,3-2,5.1-4.1,7.1-5.1a318.31,318.31,0,0,0,35.5-20.2c33.5-24.4,59.9-47.7,93.4-72.1,29.5-20.3,57.9-36.6,92.5-45.7,69-17.3,138.1-6.2,200,29.4l3,3c12.2,6.1,22.4,14.2,33.5,22.3,35.6,28.4,64,58.9,96.5,88.4a182.83,182.83,0,0,0,29.3,21.1" transform="translate(-0.7)"/><path class="eb9da42c-7df6-4738-8cdf-6610f6c956e5" d="M1.1,332.4a449.89,449.89,0,0,0,84.6-49.9c42.7-33.5,80.2-70.1,129-92.4,35.6-16.3,75.2-22.3,113.7-20.3,52.8,3,102.6,21.3,147.3,53.8,41.6,30.5,71.1,67,109.7,99.5,8.1,8.1,16.2,16.2,27,20.5" transform="translate(-0.7)"/><path class="eb9da42c-7df6-4738-8cdf-6610f6c956e5" d="M1,332.6c21.8-10.5,41.1-20.6,61.4-33.8,55.9-38.6,95.5-86.3,155.4-112.7,41.7-17.3,85.3-23.4,130-17.3,38.6,6.1,72.1,17.3,105.6,37.6A407.41,407.41,0,0,1,505.2,245c37.6,32.5,66,73.1,107.3,98.4" transform="translate(-0.7)"/><path class="bdead7d9-4579-4333-b428-5dba48a2b1b2" d="M1.2,332.6c38.8-17.6,73.4-41,105.9-69.4,25.4-23.4,50.8-44.7,80.2-64,13.2-8.1,25.4-16.3,39.6-18.3,78.2-34.5,166.6-17.3,239.7,30.5,49.7,32.5,80.2,77.2,121.9,115.8,7.1,6,16.3,11.1,24.3,16.5" transform="translate(-0.7)"/><path class="bdead7d9-4579-4333-b428-5dba48a2b1b2" d="M.8,332.8c6.7-3.6,13.8-5.7,21-9.7l3-3c51.8-24.4,88.4-66,133-102.6,18.3-15.3,37.6-26.4,59-36.6,10.1-5.1,21.3-7.1,32.5-10.1,32.5-11.2,66-13.2,99.5-8.1s65,15.2,94.4,32.5c29.5,18.3,55.9,37.6,79.2,62s43.7,48.8,69.1,72.1c7.1,5.1,13.2,10.1,20.8,14.3" transform="translate(-0.7)"/><path class="a64c0351-fff2-4f33-b5ff-32dc67c2e929" d="M1,332.8a460.39,460.39,0,0,0,49.2-27c30.5-19.3,53.8-41.6,79.2-66,34.5-32.5,72.1-59.9,117.8-73.1a226.45,226.45,0,0,1,74.1-9.1,266.59,266.59,0,0,1,92.4,20.3c46.7,19.3,85.3,51.8,119.8,89.4,21.3,23.4,39.6,46.7,65,67a29.77,29.77,0,0,1,7.1,5.1c2,2,5.1,3,6.8,4" transform="translate(-0.7)"/><path class="a64c0351-fff2-4f33-b5ff-32dc67c2e929" d="M1.2,332.8c10.3-4.6,19.5-9.7,29.6-14.8,17.3-9.1,31.5-19.3,46.7-31.5,31.5-26.4,57.9-53.8,90.4-80.2A118.1,118.1,0,0,1,194.3,189l3-3c55.9-32.5,118.8-37.6,180.8-22.3,6.1,1,11.2,4.1,17.3,5.1,41.6,13.2,77.2,35.5,108.7,66,25.4,24.4,46.7,50.8,71.1,77.2a152.65,152.65,0,0,0,37.2,30.2" transform="translate(-0.7)"/><path class="a64c0351-fff2-4f33-b5ff-32dc67c2e929" d="M.8,333.1c56.5-24.2,100.1-67.9,144.8-110.5,35.6-32.5,76.2-57.9,124.9-66,82.3-13.2,163.5,11.2,223.4,68,1,1,3,1,4.1,2,6.1,7.1,13.2,12.2,19.3,19.3,31.5,33.5,57.9,71.1,95.3,96.1" transform="translate(-0.7)"/><path class="b97f67fd-4781-47f0-9f89-561906f47182" d="M1.3,333a331.67,331.67,0,0,0,69.2-41.3c30.5-24.4,53.8-50.8,82.2-77.2,12.2-10.2,23.4-19.3,36.6-28.5l15.2-9.1c16.2-9.1,32.5-16.2,51.8-19.3,1,0,3-2,4.1-2,52.8-11.2,103.6-6.1,152.4,14.2,27.4,12.2,52.8,26.4,76.1,46.8,11.2,10.2,21.3,20.3,32.5,31.5,30.5,32.5,53.8,70.1,91.3,93.8" transform="translate(-0.7)"/><path class="b97f67fd-4781-47f0-9f89-561906f47182" d="M.9,333.2c10.9-6.6,23-10.9,33.9-17.5s21.1-13.8,31.3-21.3c20.6-15.2,38.2-34,56.1-52.2,16.4-16.8,33.2-33.3,52-47.7,18.1-13.8,37.8-25.6,59.2-33.5a230.45,230.45,0,0,1,74.8-14,257.66,257.66,0,0,1,74.1,9.4c23.3,6.5,47,15.9,67.3,29A341.56,341.56,0,0,1,503.7,228c4.1,4.1,8.2,8.3,12.1,12.6s7.3,9.6,11.6,13.1c8.8,7.2,15.5,17.2,22.6,26,14.7,18.3,29.7,36.4,47.9,51.4a119.34,119.34,0,0,0,14.7,10.6" transform="translate(-0.7)"/><path class="a0e68304-b900-48df-a046-b3713065260d" d="M1.2,333.2c56.1-24.3,98.8-69,141.4-112.7,29.4-29.4,62-53.8,101.6-66,79.2-24.4,161.5-6.1,228.5,43.7l6.1,6.1c20.3,14.2,33.5,30.5,49.8,47.7,18.3,21.3,34.5,42.6,53.8,64a139.09,139.09,0,0,0,30.1,25" transform="translate(-0.7)"/><path class="a0e68304-b900-48df-a046-b3713065260d" d="M1.4,333.2C46.1,313,83.7,282.5,117.2,246c3-4.1,6.1-7.1,9.1-11.2,8.1-10.2,18.3-17.3,26.4-26.4,27.4-27.4,59.9-47.8,97.6-58.9a248.21,248.21,0,0,1,90.4-7.1,264.71,264.71,0,0,1,99.5,31.5c9.1,6.1,17.2,11.2,26.4,17.3,13.2,11.2,26.4,20.3,38.6,32.5,8.1,8.1,14.2,16.2,22.3,24.4,3,5.1,7.1,9.1,11.2,14.2,1,1,1,3,2,4.1,3,3,6.1,7.1,9.2,10.1,1,1,1,3,2,4.1,3,3,6.1,7.1,9.1,10.1,1,1,1,3,2,4.1,15.2,17.3,30.5,33.5,49.4,45.6" transform="translate(-0.7)"/><path class="ad7b420c-7c4f-42b2-aaba-d8c532dee53b" d="M1,333.5a316.74,316.74,0,0,0,61.9-37.4c19.8-15.5,37.3-33.6,54.4-52,16.8-18,33.4-36.3,52.3-52.2,18.4-15.7,38.9-28.7,61.4-37.6a219.17,219.17,0,0,1,72.4-15A261.74,261.74,0,0,1,448,176.9a298,298,0,0,1,56,44.7c17.8,18,33.4,38,49,57.9,14.3,18.1,28.4,36.7,46.3,51.5a121.17,121.17,0,0,0,13.6,9.9" transform="translate(-0.7)"/><path class="b597f954-fb1f-4e30-ace5-fd3ff466642e" d="M1.2,333.5a307,307,0,0,0,62-37.8c19.8-15.6,37-34,53.9-52.5,16.6-18.3,33.1-36.8,51.8-53,18.3-15.9,38.6-29.1,61-38.2a216.58,216.58,0,0,1,72.8-15.5A260.53,260.53,0,0,1,448,174.1a288.12,288.12,0,0,1,55.9,45c17.8,18.3,33.3,38.6,48.9,58.8,14.2,18.4,28.2,37.3,46.1,52.3a129.54,129.54,0,0,0,13.4,10" transform="translate(-0.7)"/><path class="b597f954-fb1f-4e30-ace5-fd3ff466642e" d="M.8,333.8A302.57,302.57,0,0,0,63,295.7c19.7-15.7,36.9-34.3,53.6-53.1,16.6-18.6,32.9-37.5,51.6-54.1,18.2-16.2,38.6-29.7,61.2-39a216.78,216.78,0,0,1,73.2-15.8,259.63,259.63,0,0,1,146.2,38.1,287.3,287.3,0,0,1,56,45.9c17.8,18.6,33.2,39.2,48.6,59.7,14,18.5,27.9,37.5,45.7,52.6a124.84,124.84,0,0,0,13.7,10.2" transform="translate(-0.7)"/><path class="f5c9a4eb-a12e-4ad9-b9a9-e5db30e6d9b4" d="M1.3,333.6a296.28,296.28,0,0,0,62.1-38.4c19.8-16,36.9-35,53.5-54.2,16.3-18.8,32.5-37.8,50.9-54.6,18.2-16.5,38.6-30.2,61.3-39.7a215.26,215.26,0,0,1,73-15.9,259.39,259.39,0,0,1,147,38.5,283.33,283.33,0,0,1,56,46.4c17.6,18.7,32.8,39.4,48.1,60.1,13.9,18.8,27.7,38.2,45.6,53.6a133.69,133.69,0,0,0,13.5,10.3" transform="translate(-0.7)"/><path class="f5c9a4eb-a12e-4ad9-b9a9-e5db30e6d9b4" d="M.9,333.9a295.48,295.48,0,0,0,62.4-38.7c19.8-16.2,36.8-35.4,53.3-54.8,16.3-19.1,32.3-38.6,50.7-55.7,18-16.7,38.4-30.7,61.1-40.3a215.64,215.64,0,0,1,73.5-16.3,258.84,258.84,0,0,1,147.7,38.8A281.14,281.14,0,0,1,505.7,214c17.6,19.1,32.8,40.2,48,61.2,13.7,19,27.4,38.5,45.2,53.9a114.85,114.85,0,0,0,13.7,10.4" transform="translate(-0.7)"/><path class="ff6405b1-7e16-4895-be60-d7bf9b12ad2b" d="M1.2,333.9c20.6-9.8,40.9-20.9,59.2-36.1,33.5-27.4,55.9-59.9,83.3-91.4,11.2-11.2,20.3-22.4,32.5-32.6a202.43,202.43,0,0,0,17.3-13.2c11.2-8.1,22.3-13.2,34.5-19.3,2-1,3.1,0,5.1-1,80.2-31.4,174.7-13.1,241.7,42.7,1,1,3,1,4.1,2,40.6,35.6,66,78.2,99.5,121.9,9.1,13.2,20.3,24.4,34.4,32.6" transform="translate(-0.7)"/><path class="ff6405b1-7e16-4895-be60-d7bf9b12ad2b" d="M1.4,333.9A281.78,281.78,0,0,0,64,294.3c19.6-16.6,36.4-36.2,52.5-56.1,16-19.7,31.7-39.7,50-57.3,17.9-17.2,38.1-31.6,60.9-41.5a214.3,214.3,0,0,1,74.4-16.8,257.78,257.78,0,0,1,79.6,9,248.8,248.8,0,0,1,69.1,30.6,271,271,0,0,1,56,48.1c17.5,19.5,32.4,41.1,47.3,62.6,13.5,19.5,27,39.7,45,55.5a136.93,136.93,0,0,0,13.6,10.5" transform="translate(-0.7)"/><path class="ff6405b1-7e16-4895-be60-d7bf9b12ad2b" d="M.9,334.3c28-12.2,53.4-28.5,75.7-49.8,29.4-30.5,52.8-63,81.2-94.5,20.3-20.3,42.7-39.6,69.1-50.8,33.5-14.2,68-18.3,103.6-16.2,50.8,4.1,97.5,21.3,140.2,52.8,50.8,38.6,76.2,90.4,113.7,139.1,8.1,10.1,18.3,17.2,28.1,24.2" transform="translate(-0.7)"/><path class="ff6405b1-7e16-4895-be60-d7bf9b12ad2b" d="M1.4,334.1a286.36,286.36,0,0,0,62-38.7c19.8-16.4,36.8-35.8,53.2-55.5,16.2-19.4,32.2-39.2,50.7-56.5,18-16.9,38.5-30.9,61.3-40.5a213.37,213.37,0,0,1,73.9-16,258.09,258.09,0,0,1,78.7,8.9A255.31,255.31,0,0,1,450.4,166a275.51,275.51,0,0,1,56.9,48.1c17.5,19.2,32.6,40.3,47.6,61.5,13.3,18.8,26.7,38.1,44.3,53.4a124.5,124.5,0,0,0,13.6,10.3" transform="translate(-0.7)"/><path class="f5c9a4eb-a12e-4ad9-b9a9-e5db30e6d9b4" d="M1.3,334.2c15.4-7.1,28.6-15.2,43.8-24.4a239.09,239.09,0,0,0,25.4-19.3c8.1-8.1,17.2-15.2,25.4-24.3,6.1-8.1,13.2-15.2,20.3-23.4,20.3-26.4,40.6-48.8,66-70.1A183.62,183.62,0,0,1,232,144.3c68-26.4,144.2-16.2,209.2,18.3l15.2,9.2c48.8,33.5,79.2,74.1,110.7,122.9,2,3,5.1,4.1,7.1,7.1a135.54,135.54,0,0,0,38.3,37.3" transform="translate(-0.7)"/><path class="b597f954-fb1f-4e30-ace5-fd3ff466642e" d="M.9,334.5c36.1-11.4,63.5-39.9,92-65.3,17.3-21.3,36.6-40.6,54.8-62a254.4,254.4,0,0,1,29.4-28.4,202.76,202.76,0,0,1,18.3-13.2A312.35,312.35,0,0,1,232,147.3a199.88,199.88,0,0,1,48.7-12.2c41.6-3,83.3-2,121.9,15.2,3,1,6.1,1,9.1,2a474.77,474.77,0,0,1,44.7,23.4c12.2,8.1,22.3,15.2,32.5,24.4,13.2,12.2,24.4,23.4,35.5,37.6,17.3,23.4,32.5,42.7,49.8,66a147,147,0,0,0,30.5,30.5,86.54,86.54,0,0,1,7.6,4.7" transform="translate(-0.7)"/><path class="b597f954-fb1f-4e30-ace5-fd3ff466642e" d="M1.4,334.4a298.32,298.32,0,0,0,61.9-37.6c19.8-15.6,37-34.1,53.8-52.8,16.5-18.4,32.8-37,51.4-53.2,18.3-15.9,38.7-29.1,61.2-38.1a217.74,217.74,0,0,1,73-15.1,268.79,268.79,0,0,1,145.7,36.9,280.68,280.68,0,0,1,56.8,45c17.8,18.2,33.5,38.3,48.9,58.5,13.8,18.1,27.6,36.6,45.1,51.4a127.38,127.38,0,0,0,13.3,9.9" transform="translate(-0.7)"/><path class="a0e68304-b900-48df-a046-b3713065260d" d="M1.3,334.5a285.38,285.38,0,0,0,83.4-55.1c19.3-19.3,35.5-37.6,53.8-57.9,5.1-4.1,8.1-9.1,13.2-13.2,34.5-33.5,75.2-57.9,123.9-65a264.32,264.32,0,0,1,108.7,7.1c6.1,2,11.2,3,17.3,5.1,15.2,5.1,28.4,12.2,42.6,19.3l15.2,9.1c25.4,16.2,44.7,35.6,65,57.9,29.5,33.5,51.8,72.1,88.3,97.6" transform="translate(-0.7)"/><path class="a0e68304-b900-48df-a046-b3713065260d" d="M1.2,334.6a311.15,311.15,0,0,0,61.3-36.5c19.8-15.1,37.1-32.9,54.2-50.9,16.8-17.8,33.5-35.8,52.3-51.5a212.19,212.19,0,0,1,133.4-51.1,272.18,272.18,0,0,1,76.3,8,265.23,265.23,0,0,1,68.2,27.3,285.79,285.79,0,0,1,57,43.3c18,17.5,34,37,49.7,56.5,14.1,17.5,28,35.4,45.4,49.8a146.15,146.15,0,0,0,13.5,9.9" transform="translate(-0.7)"/><path class="b97f67fd-4781-47f0-9f89-561906f47182" d="M1.1,334.8a326.83,326.83,0,0,0,61.4-36.2c19.6-14.8,37-32.2,54.2-49.8,16.9-17.4,33.6-35,52.5-50.3,18.5-15.1,38.9-27.5,61.2-36a226.3,226.3,0,0,1,71.8-14.2A280.3,280.3,0,0,1,378,156a272.34,272.34,0,0,1,68,26.6A290.12,290.12,0,0,1,503.3,225c18,17,34,36,49.8,55.1,14.4,17.4,28.5,35.3,46.1,49.7a141.33,141.33,0,0,0,13.3,9.7" transform="translate(-0.7)"/><path class="b97f67fd-4781-47f0-9f89-561906f47182" d="M1.3,334.8C68.5,307.9,111.1,250,166,203.2a227.6,227.6,0,0,1,78.2-42.7c48.8-14.2,98.5-12.2,147.3,2,13.2,4.1,25.4,9.2,37.6,14.2,10.1,4.1,18.3,10.1,28.4,15.2l3,3c21.3,11.2,38.6,27.4,55.9,44.7,18.3,19.3,34.5,37.6,50.8,58.9,13.2,16.2,27.4,30.5,45.5,41" transform="translate(-0.7)"/><path class="a64c0351-fff2-4f33-b5ff-32dc67c2e929" d="M1.2,334.9c28.7-12.8,55.1-28,79.5-49.3C121.4,250,152.8,210.5,199.5,183c77.2-42.6,169.6-34.5,245.8,5.1,3,1,5.1,3,7.1,5.1a142.1,142.1,0,0,1,32.5,22.3c1,1,3,1,4.1,2,16.2,14.2,31.5,27.4,45.7,43.7,25.4,28.4,46.7,58.9,78.1,78.7" transform="translate(-0.7)"/><path class="a64c0351-fff2-4f33-b5ff-32dc67c2e929" d="M1.1,335c10.5-5.8,21.7-10.9,32.9-15.9a27.13,27.13,0,0,0,6.1-5.1A331.21,331.21,0,0,0,100,269.3c5.1-6.1,11.2-10.1,17.3-16.3,20.3-21.3,39.6-38.6,64-55.9,34.5-23.4,72.1-35.5,111.7-38.6,55.9-4.1,109.7,8.1,159.5,36.6s83.3,70.1,121.9,111.7c5.1,5.1,9.2,11.2,15.2,16.2,6.1,4.1,11.2,7.1,16.2,12.2,2,2,5.1,3,6.7,4.3" transform="translate(-0.7)"/><path class="bdead7d9-4579-4333-b428-5dba48a2b1b2" d="M1,335.1c11.4-6.2,23.2-11.5,34.7-17.6s21.7-13.7,32.2-21c18.5-12.8,34.9-28.9,51.5-44.1,16.1-14.8,32.3-29.6,49.8-42.8s36.4-24.8,56.9-32.7c23.3-9,48.2-13.5,73.1-14.6a302.88,302.88,0,0,1,73,5.6A280.49,280.49,0,0,1,435.1,189a305.81,305.81,0,0,1,56.7,35.7c19.4,15.4,36.8,33.7,53.6,51.9s31.9,37.9,51.7,52.6a160.31,160.31,0,0,0,15.3,10.6" transform="translate(-0.7)"/><path class="eb9da42c-7df6-4738-8cdf-6610f6c956e5" d="M.8,335.2c18.9-8.1,35.1-16.2,53.4-28.4a572.81,572.81,0,0,0,66-54.8c23.4-21.3,46.7-40.6,74.2-56.9,12.2-7.1,24.4-12.2,37.6-17.3,17.3-6.1,34.5-9.1,51.8-11.2a295.82,295.82,0,0,1,133,18.3c20.3,8.1,38.6,18.3,57.9,30.5,44.7,30.5,73.1,69.1,110.7,104.6,9.1,7.1,17.3,15.2,27.2,20.1" transform="translate(-0.7)"/><path class="eb9da42c-7df6-4738-8cdf-6610f6c956e5" d="M1.4,335.1c25.5-12,48.8-24.2,72.2-41.4,28.4-22.4,51.8-43.7,79.2-67,29.5-24.4,62-40.6,98.5-50.8,9.1-2,18.3-3,27.4-5.1a300.33,300.33,0,0,1,52.8-1c35.5,2,69.1,11.2,101.6,25.4,14.2,6.1,26.4,14.2,40.6,22.4a372.2,372.2,0,0,1,43.7,34.5c19.3,18.3,36.6,36.6,54.8,55.9,13.2,12.2,25.4,24.4,40.1,32.3" transform="translate(-0.7)"/><path class="eb9da42c-7df6-4738-8cdf-6610f6c956e5" d="M1,335.4c25.8-11.2,48.2-25.4,72.6-40.7l15.2-12.2c25.4-19.3,46.7-39.6,72.1-59.9,32.5-24.4,67-40.6,106.6-46.7,73.1-12.2,143.2,3,206.1,45.7,3,2,5.1,2,8.1,4.1,36.6,26.4,64,56.9,95.5,88.4,11.2,10.2,22.3,19.3,35.5,26.8" transform="translate(-0.7)"/><path class="e5d559f6-d55a-4d73-9291-1b12cd73adbd" d="M.9,335.5c29-11.3,53.4-27.6,79.8-45.9,12.2-9.1,22.3-17.3,33.5-26.4,30.5-26.4,60.9-50.8,97.5-67,6.1-2,11.2-5.1,17.3-7.1,60.9-20.3,125.9-15.3,185.9,5,66,23.4,112.7,72.1,162.5,119.8,11.2,10.2,22.4,20.3,35.4,26.7" transform="translate(-0.7)"/><path class="e5d559f6-d55a-4d73-9291-1b12cd73adbd" d="M1.4,335.3c15.3-7.1,29.5-14.2,44.7-22.4,15.2-9.2,28.4-18.3,42.7-28.4,28.4-23.4,53.8-43.7,84.3-65l15.2-9.1a229.85,229.85,0,0,1,68-25.4c49.8-10.1,97.5-5.1,145.2,8.1,58.9,17.3,105.6,53.8,149.3,95.5,2,2,4.1,5.1,6.1,7.1,10.2,8.1,17.3,17.3,27.4,25.4,9.1,7.1,18.3,14.2,28.3,19.8" transform="translate(-0.7)"/><path class="e5d559f6-d55a-4d73-9291-1b12cd73adbd" d="M1.3,335.5c44.8-17.4,81.4-45.9,120-76.3,15.2-11.2,27.4-22.3,43.7-31.5,6.1-3,11.2-7.1,16.2-10.2,26.4-16.2,53.8-24.4,84.3-30.5,27.4-5.1,53.8-4.1,80.2-1,27.4,2,53.8,9.1,80.2,19.3,17.3,7.1,32.5,15.2,48.8,24.4,31.5,19.3,55.9,41.6,82.3,66a328.92,328.92,0,0,0,55.7,45.4" transform="translate(-0.7)"/><path class="e5d559f6-d55a-4d73-9291-1b12cd73adbd" d="M1.2,335.6C62.4,311,109.1,268.2,165,229.7c2-1,3.1-1,5.1-2,60.9-40.6,129-48.8,199.1-35.6,42.6,8.1,79.2,23.4,116.8,47.7,26.4,18.3,48.8,35.6,71.1,56.9a331.71,331.71,0,0,0,55.7,44.5" transform="translate(-0.7)"/><path class="eb9da42c-7df6-4738-8cdf-6610f6c956e5" d="M1.4,335.6c26.4-10.4,48.8-22.6,73.1-38.9,50.8-34.5,92.4-74.1,149.3-92.4,12.2-4.1,24.4-9.1,36.6-10.2,8.1-1,15.2-2,23.4-3,6.1,0,13.2,0,19.3-1a306.35,306.35,0,0,1,90.4,10.2c14.2,4.1,27.4,9.1,40.6,14.2a444.28,444.28,0,0,1,64,35.6c2,1,3,3,5.1,5.1,30.5,21.3,53.8,44.7,81.2,68,9.2,7.1,18.3,14.2,28.3,18.9" transform="translate(-0.7)"/><path class="eb9da42c-7df6-4738-8cdf-6610f6c956e5" d="M1.3,335.7C22.7,328.2,41,317,61.4,305.8c49.8-30.5,90.4-68.1,143.2-91.4,3-1,5.1-1,8.1-2,68-28.4,145.2-22.3,212.3,3,2,1,3,0,5.1,1,8.1,5.1,17.3,6.1,25.4,11.2,12.2,8.1,25.4,13.2,37.6,21.3A628.26,628.26,0,0,1,550,293.6c12.2,12.2,25.4,22.3,38.6,33.5,8.1,5.1,15.2,11.2,24,14.9" transform="translate(-0.7)"/><path class="bdead7d9-4579-4333-b428-5dba48a2b1b2" d="M1.1,336c52.1-23,96.8-54.5,146.6-86,35.5-22.3,70-37.6,111.7-44.7,39.6-7.1,76.2-5.1,115.8,2,40.6,8.1,76.2,23.4,111.7,43.7,38.6,23.4,68,51.8,104.6,78.2,7.1,4.1,13.2,9.1,20.8,12.6" transform="translate(-0.7)"/><path class="bdead7d9-4579-4333-b428-5dba48a2b1b2" d="M1,336.1a26,26,0,0,1,7.6-3.9c18.3-6.1,33.5-15.3,50.8-24.4,43.7-25.4,83.3-54.9,128-77.2,4.1-2,8.1-2,11.2-3,23.4-12.2,47.7-17.3,73.1-21.3,12.2-1,25.4-2,37.6-2,16.2,1,31.5,1,47.7,3,26.4,3,50.8,10.2,75.2,19.3a207.31,207.31,0,0,1,21.3,10.1c18.3,8.1,34.5,18.3,52.8,29.5,29.4,19.3,52.8,39.6,81.2,60.9,7.1,5.1,13.2,8.1,20.3,13.2,2,1,3,1,5,2.1" transform="translate(-0.7)"/><path class="a64c0351-fff2-4f33-b5ff-32dc67c2e929" d="M1.2,336.1c19.7-8.4,39-18,57.8-28.3,19.1-10.5,37.7-21.9,56-33.6,4.7-3,9.4-6.1,14.1-9.2s9.8-4.7,14.6-7.6c9.1-5.6,18.3-10.9,27.8-15.8a330.83,330.83,0,0,1,58.4-23.3A270.28,270.28,0,0,1,298,208.2a383.42,383.42,0,0,1,68.5,4.4,317,317,0,0,1,64.2,17.2c20.8,7.9,41.2,17.1,60.2,28.5s36.8,24.4,54.6,37.5,35.4,27.1,54,39.2c4.2,2.7,8.5,5.4,12.9,7.7" transform="translate(-0.7)"/><path class="a64c0351-fff2-4f33-b5ff-32dc67c2e929" d="M1.1,336.2C42.5,319,80.7,296.4,119,273.3c37.5-22.5,76.2-43.1,119-53.2,43.3-10.3,88.8-10.4,132.5-2.7,43,7.6,84.1,23.3,121.9,45.1,18.9,10.9,36.9,23.3,54.5,36.1,17.2,12.4,34.1,25.5,52.3,36.5,4.4,2.7,8.9,5.2,13.5,7.6" transform="translate(-0.7)"/><path class="a64c0351-fff2-4f33-b5ff-32dc67c2e929" d="M1,336.3c50.2-20.4,94.9-47.8,142.6-76.2,10.2-5.1,19.3-10.2,29.5-15.2a401.27,401.27,0,0,1,49.8-18.3c36.6-10.2,72.1-13.2,109.7-11.2,27.4,2,52.8,7.1,79.2,14.2,12.2,4.1,23.4,8.1,34.5,12.2,27.5,11.2,50.8,26.4,77.2,41.6a41.55,41.55,0,0,1,7.1,6.1c9.2,5.1,16.2,10.1,24.4,15.2,19.3,14.2,37.6,28.4,57.7,38.8" transform="translate(-0.7)"/><path class="b97f67fd-4781-47f0-9f89-561906f47182" d="M.9,336.5c41.1-16.9,79.5-38.7,118.2-60.3,37.9-21.2,77-40.3,119.6-49.7,43.1-9.5,88.1-9.5,131.6-2.2,42.5,7.2,83.3,22.1,121.1,42.6,37.5,20.3,70.7,47.3,107.5,68.7,4.5,2.6,9,5.1,13.6,7.4" transform="translate(-0.7)"/><path class="b97f67fd-4781-47f0-9f89-561906f47182" d="M1.4,336.3c3.1-2.1,6.1-2.1,9.2-3.1,42.7-19.3,83.3-41.6,124.9-65,33.5-18.3,67-31.5,104.6-39.6,47.7-10.2,92.4-8.1,140.2,1,55.9,10.2,102.6,29.5,150.3,62,27.4,19.3,52.8,37.6,82.1,52" transform="translate(-0.7)"/><path class="a0e68304-b900-48df-a046-b3713065260d" d="M1.3,336.5c5.2-1.2,9.3-3.2,14.4-5.2C36,323.2,55.3,313,74.6,302.8c25.4-14.2,49.8-26.4,75.2-38.6,54.8-26.4,114.8-42.6,175.7-38.6,77.2,5.1,147.2,29.5,214.3,75.2,4.1,3,9.1,4.1,13.2,7.1a207.38,207.38,0,0,0,20.3,13.2c3,2,5.1,4.1,8.1,6.1,11.2,5.1,20.3,13.2,31,16.7" transform="translate(-0.7)"/><path class="ad7b420c-7c4f-42b2-aaba-d8c532dee53b" d="M.9,336.7C54.2,314,104,287.6,155.8,263.2l9.1-3c67-31.5,140.2-37.6,214.3-24.4,38.6,8.1,74.1,19.3,108.7,36.6,36.6,19.3,70.1,40.6,106.6,63,6.1,3,12.2,7.1,18.1,9" transform="translate(-0.7)"/><path class="ad7b420c-7c4f-42b2-aaba-d8c532dee53b" d="M.8,336.8c49.4-20.8,97.1-44.2,146.9-67.6,31.5-14.2,63-25.4,98.5-31.5,105.6-17.3,206.2,9.1,296.6,68,2,1,5.1,1,7.1,2l3,3c4.1,2,7.1,4.1,11.2,6.1,16.2,11.2,32.5,19.3,48.3,27.1" transform="translate(-0.7)"/><path class="ad7b420c-7c4f-42b2-aaba-d8c532dee53b" d="M1.3,336.8c46.8-17.7,90.5-42,136.2-62.4,12.2-5.1,24.4-9.1,36.6-14.2,95.5-35.6,202.1-30.5,295.5,10.2,2,1,3,0,5.1,1,26.4,12.2,51.8,24.4,77.2,40.6,1,1,3,0,4.1,1,9.1,5.1,16.2,11.2,25.4,16.2,10.2,5,20.3,11.1,31.2,15.5" transform="translate(-0.7)"/><path class="b597f954-fb1f-4e30-ace5-fd3ff466642e" d="M1.2,336.9c29.6-13.8,59.1-27,89.6-40.2,25.4-10.2,49.8-21.3,75.2-31.5,49.8-19.3,102.6-27.4,156.4-25.4a445,445,0,0,1,63,7.1,453.43,453.43,0,0,1,81.3,25.4c2,0,5.1,0,7.1,1,27.4,13.2,53.8,24.4,80.2,39.6,16.2,10.1,32.5,17.3,48.8,27.4,3,2,7.1,3,9.7,3.9" transform="translate(-0.7)"/><path class="f5c9a4eb-a12e-4ad9-b9a9-e5db30e6d9b4" d="M1.1,337c38.8-14.9,76.1-33,114.3-49.2,38.9-16.5,78.6-30.5,120.4-37.9A405.88,405.88,0,0,1,365,247.6a490.12,490.12,0,0,1,123.9,35.2c19.1,8.2,37.8,17.5,56.2,27.1,18.1,9.5,35.5,20.1,53.9,28.9,4.6,2.2,9.2,4.2,13.8,6.2" transform="translate(-0.7)"/><path class="f5c9a4eb-a12e-4ad9-b9a9-e5db30e6d9b4" d="M1.4,337c39.7-15.5,78.5-33.4,118.1-49.3,38.8-15.6,78.8-28.6,120.2-35.2a433.18,433.18,0,0,1,126.6-.9c41.3,5.7,81.6,17.2,120.2,33s74.6,36.9,112.4,54.4c4.6,2.1,9.2,4.2,13.8,6.1" transform="translate(-0.7)"/><path class="ff6405b1-7e16-4895-be60-d7bf9b12ad2b" d="M1.3,337.1c92.5-37.4,185-83.1,286.5-86.1,68.1-2,135.1,11.2,198.1,35.6,43.7,18.3,84.3,40.6,126.5,58.8" transform="translate(-0.7)"/><path class="ff6405b1-7e16-4895-be60-d7bf9b12ad2b" d="M1.2,337.2c38.4-15.2,76.4-31.6,115.2-45.8,38.4-14,77.7-26,118.2-32.2a453.89,453.89,0,0,1,62.7-4.7,481.73,481.73,0,0,1,65.8,3.1,521.52,521.52,0,0,1,121,30.6c39.1,15,76,35,114.5,51.6,4.6,2,9.3,3.9,13.9,5.8" transform="translate(-0.7)"/><path class="ff6405b1-7e16-4895-be60-d7bf9b12ad2b" d="M1.1,337.4c79.6-31.5,157.8-66.1,244.1-76.2,91.4-10.2,180.8,4.1,264.1,40.6,2,1,3,0,5.1,1,32.5,15.2,66,29.5,98.1,43.9" transform="translate(-0.7)"/><path class="ff6405b1-7e16-4895-be60-d7bf9b12ad2b" d="M.9,337.5c39.2-14.9,78-30.7,117.7-43.7,39.4-12.9,79.7-23.1,120.9-28.2a510.9,510.9,0,0,1,124.8-.2c41,5,81.1,14.9,120,28.5s76,31.6,114.2,47.1c4.7,1.9,9.3,3.7,14,5.5" transform="translate(-0.7)"/><path class="f5c9a4eb-a12e-4ad9-b9a9-e5db30e6d9b4" d="M.8,330.6c40.4-16,80-34,120.3-50.2,38.8-15.7,78.4-30.4,119.4-39.2,41.5-9,84.7-10.9,126.5-2.3,39.7,8.2,77.6,24.5,113.3,43.4,36.3,19.2,70.5,42.2,107.7,59.6,4.5,2.1,9.1,4.2,13.8,6.1" transform="translate(-0.7)"/><path class="ff6405b1-7e16-4895-be60-d7bf9b12ad2b" d="M1.2,334.1A272.83,272.83,0,0,0,64,294.2c19.8-16.9,36.5-36.9,52.6-57.2,15.8-19.9,31.3-40.1,49.4-58,17.8-17.5,38.1-32.2,61.1-42.3,23.6-10.4,49.2-15.8,74.9-17a256.51,256.51,0,0,1,79.4,9,248.51,248.51,0,0,1,69.8,31.1,277.39,277.39,0,0,1,56,48.8c17.6,19.9,32.5,42,47.3,63.9,13.3,19.6,26.6,39.7,44.4,55.6a111.74,111.74,0,0,0,13.4,10.4" transform="translate(-0.7)"/><path class="ff6405b1-7e16-4895-be60-d7bf9b12ad2b" d="M1.2,337.5c39-14.7,77.9-30,117.8-42.4,39.3-12.2,79.5-21.5,120.4-26.3a536.55,536.55,0,0,1,124.1,0c41.1,4.8,81.5,14.4,120.7,27.5,38.8,13,76,30.1,114,45.1,4.7,1.8,9.4,3.6,14.2,5.3" transform="translate(-0.7)"/><path class="b597f954-fb1f-4e30-ace5-fd3ff466642e" d="M1.2,330.5c40.3-16,79.6-34.2,119.6-51,19.9-8.4,40-16.4,60.3-23.7,4.9-1.8,9.9-2.8,14.9-4.2s10.2-3.4,15.3-5c10.1-3.2,20.3-6,30.7-8.3,41.2-9.1,84.3-10.8,125.8-2.4,39.7,8.1,77.1,25,112.5,44.3,36.6,19.9,71.5,42.8,108.9,61.2,4.6,2.2,9.2,4.4,13.8,6.5" transform="translate(-0.7)"/></g><rect class="e2c7dff8-f195-48ad-b475-00cc14a33e62" x="189.7" width="209.5" height="141.4"/><rect class="a7b44219-9ed0-4ae9-9422-593a094d865f" x="22.9" y="69.57" width="170.8" height="85.5"/><rect class="b8905ee9-f0c6-4b0c-b772-7504ac5bd834" x="497.4" y="78.87" width="114.5" height="48.3"/><rect class="a7b44219-9ed0-4ae9-9422-593a094d865f" x="424.85" y="242.02" width="96.7" height="36.5"/><g class="bd39f3e4-3ea1-4088-bc93-c06ac4d5abac"><path class="ad38efe5-0ef6-4939-a5fa-2d90088c2d11" d="M78.4,142.93H66.7l-2.5,5.6H61.9l9.6-21h2.2l9.6,21H81Zm-.8-1.8-5-11.3-5,11.3Z" transform="translate(-0.7)"/></g><g class="bd39f3e4-3ea1-4088-bc93-c06ac4d5abac"><path class="ad38efe5-0ef6-4939-a5fa-2d90088c2d11" d="M88.4,146.43a9.47,9.47,0,0,1-2.3-6.8v-12h2.2v11.9c0,2.4.5,4.3,1.6,5.5a7.3,7.3,0,0,0,9.6,0c1.1-1.2,1.6-3,1.6-5.5v-11.9h2.2v12a9.47,9.47,0,0,1-2.3,6.8c-1.5,1.6-3.6,2.3-6.3,2.3A8.45,8.45,0,0,1,88.4,146.43Z" transform="translate(-0.7)"/><path class="ad38efe5-0ef6-4939-a5fa-2d90088c2d11" d="M124.4,148.63l-4.8-6.8a9.15,9.15,0,0,1-1.7.1h-5.6v6.7h-2.2v-21H118a9.3,9.3,0,0,1,6.3,1.9,6.59,6.59,0,0,1,2.3,5.3,7.39,7.39,0,0,1-1.2,4.2,6.77,6.77,0,0,1-3.6,2.4l5.1,7.2Zm-1.7-10a4.72,4.72,0,0,0,1.6-3.9,5,5,0,0,0-1.6-3.9,7.42,7.42,0,0,0-4.8-1.4h-5.6V140h5.6A6.89,6.89,0,0,0,122.7,138.63Z" transform="translate(-0.7)"/><path class="ad38efe5-0ef6-4939-a5fa-2d90088c2d11" d="M131.8,127.63H134v21h-2.2Z" transform="translate(-0.7)"/><path class="ad38efe5-0ef6-4939-a5fa-2d90088c2d11" d="M158.4,127.63v21h-1.8l-13.5-17v17h-2.2v-21h1.8l13.5,17v-17Z" transform="translate(-0.7)"/><path class="ad38efe5-0ef6-4939-a5fa-2d90088c2d11" d="M180,138.13h2.1v8a10,10,0,0,1-3.5,2,12.34,12.34,0,0,1-4.2.7,12,12,0,0,1-5.7-1.4,10.44,10.44,0,0,1-4-3.8,10.25,10.25,0,0,1-1.4-5.5,11.52,11.52,0,0,1,1.4-5.5,9.18,9.18,0,0,1,4-3.8,12,12,0,0,1,5.7-1.4,12.31,12.31,0,0,1,4.4.8,8.92,8.92,0,0,1,3.4,2.3l-1.4,1.4a8.92,8.92,0,0,0-6.3-2.5,10.07,10.07,0,0,0-4.6,1.1,8.66,8.66,0,0,0-3.2,3.1,8.41,8.41,0,0,0-1.2,4.5,8.31,8.31,0,0,0,1.2,4.4,8,8,0,0,0,3.2,3.1,10.21,10.21,0,0,0,10.1-.5Z" transform="translate(-0.7)"/><path class="ad38efe5-0ef6-4939-a5fa-2d90088c2d11" d="M192,147.33a10.44,10.44,0,0,1-4-3.8,10,10,0,0,1-1.4-5.5,11.52,11.52,0,0,1,1.4-5.5,9.78,9.78,0,0,1,4-3.8,12,12,0,0,1,5.7-1.4,11.34,11.34,0,0,1,5.6,1.4,9.52,9.52,0,0,1,3.9,3.8,11.24,11.24,0,0,1,1.4,5.5,11.52,11.52,0,0,1-1.4,5.5,10.91,10.91,0,0,1-3.9,3.8,11.62,11.62,0,0,1-5.6,1.4A10.5,10.5,0,0,1,192,147.33Zm10.1-1.7a8.37,8.37,0,0,0,4.2-7.6,10,10,0,0,0-1.1-4.5,8.37,8.37,0,0,0-7.6-4.2,9.36,9.36,0,0,0-4.5,1.1,8.64,8.64,0,0,0-3.2,3.1,8.41,8.41,0,0,0-1.2,4.5,8.92,8.92,0,0,0,1.2,4.5,7.36,7.36,0,0,0,3.2,3.1,10,10,0,0,0,4.5,1.1A7.56,7.56,0,0,0,202.1,145.63Z" transform="translate(-0.7)"/><path class="ad38efe5-0ef6-4939-a5fa-2d90088c2d11" d="M231.1,127.63v21h-1.8l-13.5-17v17h-2.2v-21h1.8l13.5,17v-17Z" transform="translate(-0.7)"/></g><g class="bd39f3e4-3ea1-4088-bc93-c06ac4d5abac"><path class="ad38efe5-0ef6-4939-a5fa-2d90088c2d11" d="M249.3,147.43a9.52,9.52,0,0,1-3.9-3.8,10.25,10.25,0,0,1-1.4-5.5,11.52,11.52,0,0,1,1.4-5.5,10.17,10.17,0,0,1,3.9-3.8,11.92,11.92,0,0,1,5.6-1.4,11.76,11.76,0,0,1,4.3.8,9.76,9.76,0,0,1,3.4,2.3l-1.4,1.4a8.14,8.14,0,0,0-6.2-2.5,9.36,9.36,0,0,0-4.5,1.1,8.66,8.66,0,0,0-3.2,3.1,8.67,8.67,0,0,0,0,8.8,8,8,0,0,0,3.2,3.1,8.83,8.83,0,0,0,4.5,1.1,8.14,8.14,0,0,0,6.2-2.5l1.4,1.4a8.22,8.22,0,0,1-3.4,2.3,12.17,12.17,0,0,1-4.3.8A10.7,10.7,0,0,1,249.3,147.43Z" transform="translate(-0.7)"/></g><g class="bd39f3e4-3ea1-4088-bc93-c06ac4d5abac"><path class="ad38efe5-0ef6-4939-a5fa-2d90088c2d11" d="M270.5,147.33a10.44,10.44,0,0,1-4-3.8,10,10,0,0,1-1.4-5.5,11.52,11.52,0,0,1,1.4-5.5,9.78,9.78,0,0,1,4-3.8,12,12,0,0,1,5.7-1.4,11.34,11.34,0,0,1,5.6,1.4,9.52,9.52,0,0,1,3.9,3.8,11.24,11.24,0,0,1,1.4,5.5,11.52,11.52,0,0,1-1.4,5.5,10.91,10.91,0,0,1-3.9,3.8,11.62,11.62,0,0,1-5.6,1.4A11,11,0,0,1,270.5,147.33Zm10.2-1.7a8.37,8.37,0,0,0,4.2-7.6,10,10,0,0,0-1.1-4.5,8.37,8.37,0,0,0-7.6-4.2,9.36,9.36,0,0,0-4.5,1.1,8.64,8.64,0,0,0-3.2,3.1,8.41,8.41,0,0,0-1.2,4.5,8.92,8.92,0,0,0,1.2,4.5,7.36,7.36,0,0,0,3.2,3.1,10,10,0,0,0,4.5,1.1A7.93,7.93,0,0,0,280.7,145.63Z" transform="translate(-0.7)"/><path class="ad38efe5-0ef6-4939-a5fa-2d90088c2d11" d="M309.7,127.63v21h-1.8l-13.5-17v17h-2.3v-21h1.8l13.5,17v-17Z" transform="translate(-0.7)"/><path class="ad38efe5-0ef6-4939-a5fa-2d90088c2d11" d="M317.8,148a8.81,8.81,0,0,1-3.3-2l.9-1.7a7.53,7.53,0,0,0,3,1.8,10.72,10.72,0,0,0,3.9.7,6.85,6.85,0,0,0,4.2-1,3.32,3.32,0,0,0,1.4-2.7,2.79,2.79,0,0,0-.8-2,5.16,5.16,0,0,0-1.9-1.2,20.42,20.42,0,0,0-3.1-.9,29,29,0,0,1-3.8-1.2,5.86,5.86,0,0,1-2.4-1.7,4.45,4.45,0,0,1-1-3.1,5.74,5.74,0,0,1,.8-2.9,5.53,5.53,0,0,1,2.6-2.1,11,11,0,0,1,4.3-.8,13.45,13.45,0,0,1,3.5.5,10.32,10.32,0,0,1,3,1.4l-.8,1.8a10.14,10.14,0,0,0-5.7-1.7,7.23,7.23,0,0,0-4.2,1.1A3.32,3.32,0,0,0,317,133a2.79,2.79,0,0,0,.8,2,5.16,5.16,0,0,0,1.9,1.2,24.63,24.63,0,0,0,3.1.9c1.5.4,2.8.8,3.7,1.1a5.86,5.86,0,0,1,2.4,1.7,4.36,4.36,0,0,1,1,3,5,5,0,0,1-.9,2.9,5.53,5.53,0,0,1-2.6,2.1,11.16,11.16,0,0,1-4.4.8A13.64,13.64,0,0,1,317.8,148Z" transform="translate(-0.7)"/><path class="ad38efe5-0ef6-4939-a5fa-2d90088c2d11" d="M337.1,146.43a9.47,9.47,0,0,1-2.3-6.8v-12H337v11.9c0,2.4.5,4.3,1.6,5.5a7.3,7.3,0,0,0,9.6,0,7.87,7.87,0,0,0,1.7-5.5v-11.9h2.2v12a9.47,9.47,0,0,1-2.3,6.8c-1.5,1.6-3.6,2.3-6.3,2.3S338.6,148,337.1,146.43Z" transform="translate(-0.7)"/></g><g class="bd39f3e4-3ea1-4088-bc93-c06ac4d5abac"><path class="ad38efe5-0ef6-4939-a5fa-2d90088c2d11" d="M358.7,127.63h2.2v19.1h11.8v1.9h-14Z" transform="translate(-0.7)"/></g><g class="bd39f3e4-3ea1-4088-bc93-c06ac4d5abac"><path class="ad38efe5-0ef6-4939-a5fa-2d90088c2d11" d="M378.5,129.53h-7.4v-1.9h17v1.9h-7.4v19.1h-2.2Z" transform="translate(-0.7)"/><path class="ad38efe5-0ef6-4939-a5fa-2d90088c2d11" d="M391.7,127.63h2.2v21h-2.2Z" transform="translate(-0.7)"/><path class="ad38efe5-0ef6-4939-a5fa-2d90088c2d11" d="M418.3,127.63v21h-1.8l-13.5-17v17h-2.2v-21h1.8l13.5,17v-17Z" transform="translate(-0.7)"/><path class="ad38efe5-0ef6-4939-a5fa-2d90088c2d11" d="M439.9,138.13H442v8a10,10,0,0,1-3.5,2,12.34,12.34,0,0,1-4.2.7,12,12,0,0,1-5.7-1.4,10.44,10.44,0,0,1-4-3.8,10.25,10.25,0,0,1-1.4-5.5,11.52,11.52,0,0,1,1.4-5.5,9.18,9.18,0,0,1,4-3.8,12,12,0,0,1,5.7-1.4,12.31,12.31,0,0,1,4.4.8,8.92,8.92,0,0,1,3.4,2.3l-1.4,1.4a8.92,8.92,0,0,0-6.3-2.5,10.07,10.07,0,0,0-4.6,1.1,8,8,0,0,0-3.2,3.1,8.41,8.41,0,0,0-1.2,4.5,8.31,8.31,0,0,0,1.2,4.4,8,8,0,0,0,3.2,3.1,10.21,10.21,0,0,0,10.1-.5Z" transform="translate(-0.7)"/></g><g class="bd39f3e4-3ea1-4088-bc93-c06ac4d5abac"><path class="ad38efe5-0ef6-4939-a5fa-2d90088c2d11" d="M344.35,234.8h-3V234h6.9v.8h-3v7.8h-.9Z" transform="translate(-0.7)"/></g><g class="bd39f3e4-3ea1-4088-bc93-c06ac4d5abac"><path class="ad38efe5-0ef6-4939-a5fa-2d90088c2d11" d="M355.75,241.8v.8h-6.1V234h5.9v.8h-5v3H355v.8h-4.4v3.2Z" transform="translate(-0.7)"/></g><g class="bd39f3e4-3ea1-4088-bc93-c06ac4d5abac"><path class="ad38efe5-0ef6-4939-a5fa-2d90088c2d11" d="M359.25,242a4.1,4.1,0,0,1-1.6-1.6,4.28,4.28,0,0,1-.6-2.2,4,4,0,0,1,.6-2.2,4.1,4.1,0,0,1,1.6-1.6,4.65,4.65,0,0,1,2.3-.6,5.66,5.66,0,0,1,1.8.3,4.19,4.19,0,0,1,1.4.9l-.6.6a3.32,3.32,0,0,0-2.5-1,3.45,3.45,0,0,0-1.8.5,2.74,2.74,0,0,0-1.3,1.3,3.49,3.49,0,0,0,0,3.6,3.25,3.25,0,0,0,1.3,1.3,4.07,4.07,0,0,0,1.8.5,3.17,3.17,0,0,0,2.5-1l.6.6a3.39,3.39,0,0,1-1.4.9,4.84,4.84,0,0,1-1.8.3A4.38,4.38,0,0,1,359.25,242Z" transform="translate(-0.7)"/><path class="ad38efe5-0ef6-4939-a5fa-2d90088c2d11" d="M373.75,234v8.6h-.9v-4h-5.4v4h-.9V234h.9v3.8h5.4V234Z" transform="translate(-0.7)"/><path class="ad38efe5-0ef6-4939-a5fa-2d90088c2d11" d="M385.85,242.7l-1.2-1.2a3.7,3.7,0,0,1-2.9,1.2,3.65,3.65,0,0,1-1.5-.3,1.65,1.65,0,0,1-1-.8,2.1,2.1,0,0,1-.4-1.1,2.39,2.39,0,0,1,.5-1.4,6.68,6.68,0,0,1,1.7-1.3,3.32,3.32,0,0,1-.8-1.1,1.49,1.49,0,0,1-.2-.9,1.61,1.61,0,0,1,.6-1.3,2.54,2.54,0,0,1,1.6-.5,2.46,2.46,0,0,1,1.5.5,1.35,1.35,0,0,1,.5,1.2,1.5,1.5,0,0,1-.4,1.1,7.25,7.25,0,0,1-1.5,1.1l2.3,2.4a4.28,4.28,0,0,0,.6-1.7l.7.2a6,6,0,0,1-.8,2l1.2,1.3Zm-1.7-1.8-2.6-2.7a6.38,6.38,0,0,0-1.4,1,1.43,1.43,0,0,0-.4,1,1.25,1.25,0,0,0,.6,1.1,2.41,2.41,0,0,0,1.5.4A2.13,2.13,0,0,0,384.15,240.9Zm-2.9-6a1.23,1.23,0,0,0-.4.8,1.45,1.45,0,0,0,.2.7,5.06,5.06,0,0,0,.8.9c.6-.4,1-.7,1.3-.9a.91.91,0,0,0,.4-.8,1.14,1.14,0,0,0-.3-.8,1.22,1.22,0,0,0-.9-.3A1.93,1.93,0,0,0,381.25,234.9Z" transform="translate(-0.7)"/><path class="ad38efe5-0ef6-4939-a5fa-2d90088c2d11" d="M400.05,234v8.6h-.9v-6.8l-3.4,5.8h-.4l-3.4-5.7v6.8h-.9V234h.7l3.7,6.3,3.7-6.3Z" transform="translate(-0.7)"/><path class="ad38efe5-0ef6-4939-a5fa-2d90088c2d11" d="M408.25,240.2h-4.8l-1,2.3h-1l3.9-8.6h.9l3.9,8.6h-1Zm-.4-.7-2.1-4.6-2.1,4.6Z" transform="translate(-0.7)"/><path class="ad38efe5-0ef6-4939-a5fa-2d90088c2d11" d="M418.75,234v8.6h-.7l-5.5-6.9v6.9h-.9V234h.7l5.5,6.9V234Z" transform="translate(-0.7)"/></g><g class="bd39f3e4-3ea1-4088-bc93-c06ac4d5abac"><path class="ad38efe5-0ef6-4939-a5fa-2d90088c2d11" d="M427,240.2h-4.8l-1,2.3h-.9l3.9-8.6h.9l3.9,8.6h-1Zm-.4-.7-2.1-4.6-2.1,4.6Z" transform="translate(-0.7)"/></g><g class="bd39f3e4-3ea1-4088-bc93-c06ac4d5abac"><path class="ad38efe5-0ef6-4939-a5fa-2d90088c2d11" d="M436.25,238.3h.9v3.3a3.92,3.92,0,0,1-1.4.8,4.67,4.67,0,0,1-1.7.3,4.38,4.38,0,0,1-2.3-.6,4.1,4.1,0,0,1-1.6-1.6,4.28,4.28,0,0,1-.6-2.2,4,4,0,0,1,.6-2.2,4.1,4.1,0,0,1,1.6-1.6,4.65,4.65,0,0,1,2.3-.6,4.84,4.84,0,0,1,1.8.3,4.19,4.19,0,0,1,1.4.9l-.6.6a3.39,3.39,0,0,0-2.6-1,4.14,4.14,0,0,0-1.9.5,2.74,2.74,0,0,0-1.3,1.3,3.49,3.49,0,0,0,0,3.6,4,4,0,0,0,1.3,1.3,4.14,4.14,0,0,0,1.9.5,3.23,3.23,0,0,0,2.2-.7v-2.9Z" transform="translate(-0.7)"/><path class="ad38efe5-0ef6-4939-a5fa-2d90088c2d11" d="M445.75,241.8v.8h-6.1V234h5.9v.8h-5v3H445v.8h-4.4v3.2Z" transform="translate(-0.7)"/><path class="ad38efe5-0ef6-4939-a5fa-2d90088c2d11" d="M456.75,234v8.6h-.9v-6.8l-3.4,5.8h-.4l-3.4-5.7v6.8h-.9V234h.7l3.7,6.3,3.7-6.3Z" transform="translate(-0.7)"/><path class="ad38efe5-0ef6-4939-a5fa-2d90088c2d11" d="M465.55,241.8v.8h-6.1V234h5.9v.8h-5v3h4.4v.8h-4.3v3.2Z" transform="translate(-0.7)"/><path class="ad38efe5-0ef6-4939-a5fa-2d90088c2d11" d="M474.85,234v8.6h-.7l-5.5-6.9v6.9h-.9V234h.7l5.5,6.9V234Z" transform="translate(-0.7)"/><path class="ad38efe5-0ef6-4939-a5fa-2d90088c2d11" d="M479.35,234.8h-3V234h6.9v.8h-3v7.8h-.9Z" transform="translate(-0.7)"/></g><g class="bd39f3e4-3ea1-4088-bc93-c06ac4d5abac"><path class="ad38efe5-0ef6-4939-a5fa-2d90088c2d11" d="M491.9,80.67a4.15,4.15,0,0,1,.8,2.5,3.44,3.44,0,0,1-1.5,3,7.36,7.36,0,0,1-4.3,1.1h-7.1V71.87h6.6a6.78,6.78,0,0,1,4,1,3.56,3.56,0,0,1,1.4,2.9,3.8,3.8,0,0,1-.6,2.2,3.71,3.71,0,0,1-1.7,1.3A5.66,5.66,0,0,1,491.9,80.67Zm-10.5-7.4v5.6h4.9a5,5,0,0,0,2.9-.7,2.71,2.71,0,0,0,0-4.2,4.79,4.79,0,0,0-2.9-.7Zm8.6,12a2.53,2.53,0,0,0,1.1-2.2c0-1.9-1.4-2.9-4.2-2.9h-5.4V86h5.4A5.48,5.48,0,0,0,490,85.27Z" transform="translate(-0.7)"/><path class="ad38efe5-0ef6-4939-a5fa-2d90088c2d11" d="M507.3,86v1.4H496.4V72H507v1.4h-8.9v5.5h8v1.4h-8V86Z" transform="translate(-0.7)"/><path class="ad38efe5-0ef6-4939-a5fa-2d90088c2d11" d="M512.1,86.87a6.18,6.18,0,0,1-2.4-1.5l.6-1.3a6.92,6.92,0,0,0,2.2,1.4,9.29,9.29,0,0,0,2.9.5,5.22,5.22,0,0,0,3.1-.8,2.33,2.33,0,0,0,1-2,2,2,0,0,0-.6-1.5,3.22,3.22,0,0,0-1.4-.8,14.6,14.6,0,0,0-2.3-.6c-1.2-.3-2.1-.6-2.8-.8a5.67,5.67,0,0,1-1.8-1.2,3.17,3.17,0,0,1-.7-2.3,3.7,3.7,0,0,1,.6-2.1,4.24,4.24,0,0,1,1.9-1.5,7.62,7.62,0,0,1,3.2-.6,7.83,7.83,0,0,1,2.6.4,7.39,7.39,0,0,1,2.2,1l-.5,1.3a10.24,10.24,0,0,0-2.1-1,8.33,8.33,0,0,0-2.2-.3,4.89,4.89,0,0,0-3,.8,2.33,2.33,0,0,0-1,2,2,2,0,0,0,.6,1.5,3.39,3.39,0,0,0,1.4.9,18.39,18.39,0,0,0,2.3.6c1.1.3,2,.6,2.7.8a5.67,5.67,0,0,1,1.8,1.2,3.07,3.07,0,0,1,.7,2.2,3.7,3.7,0,0,1-.6,2.1,4.88,4.88,0,0,1-1.9,1.5,7.31,7.31,0,0,1-3.2.6A7.18,7.18,0,0,1,512.1,86.87Z" transform="translate(-0.7)"/><path class="ad38efe5-0ef6-4939-a5fa-2d90088c2d11" d="M535,73.37a4.78,4.78,0,0,1,1.7,3.9,4.92,4.92,0,0,1-1.7,3.9,7.21,7.21,0,0,1-4.6,1.4h-4.1v4.9h-1.6V72.07h5.8A5.93,5.93,0,0,1,535,73.37Zm-1.1,6.7a3.49,3.49,0,0,0,1.2-2.8,3.7,3.7,0,0,0-1.2-2.9,5.22,5.22,0,0,0-3.5-1h-4.1v7.7h4.1A5.83,5.83,0,0,0,533.9,80.07Z" transform="translate(-0.7)"/><path class="ad38efe5-0ef6-4939-a5fa-2d90088c2d11" d="M543,86.47a7.79,7.79,0,0,1-2.9-2.8,8.5,8.5,0,0,1,0-8,7.79,7.79,0,0,1,2.9-2.8,8.91,8.91,0,0,1,8.2,0,7.77,7.77,0,0,1,0,13.6,8,8,0,0,1-4.1,1A8.3,8.3,0,0,1,543,86.47Zm7.5-1.3a5.66,5.66,0,0,0,2.3-2.3,6.22,6.22,0,0,0,.8-3.3,7.31,7.31,0,0,0-.8-3.3,6.34,6.34,0,0,0-2.3-2.3,6.22,6.22,0,0,0-3.3-.8,7.31,7.31,0,0,0-3.3.8,5.12,5.12,0,0,0-2.3,2.3,6.22,6.22,0,0,0-.8,3.3,7.31,7.31,0,0,0,.8,3.3,6.34,6.34,0,0,0,2.3,2.3,7.31,7.31,0,0,0,3.3.8A6.22,6.22,0,0,0,550.5,85.17Z" transform="translate(-0.7)"/><path class="ad38efe5-0ef6-4939-a5fa-2d90088c2d11" d="M563.7,80.07l-3.1,3.2v4H559V71.87h1.6v9.3l9-9.3h1.9l-6.7,7,7.1,8.4H570Z" transform="translate(-0.7)"/><path class="ad38efe5-0ef6-4939-a5fa-2d90088c2d11" d="M585.4,86v1.4H574.5V72h10.6v1.4h-8.9v5.5h8v1.4h-8V86Z" transform="translate(-0.7)"/></g><g class="bd39f3e4-3ea1-4088-bc93-c06ac4d5abac"><path class="ad38efe5-0ef6-4939-a5fa-2d90088c2d11" d="M34.6,199.73v11.2h-1l-7.2-9.1v9.1H25.2v-11.2h1l7.2,9.1v-9.1Z" transform="translate(-0.7)"/><path class="ad38efe5-0ef6-4939-a5fa-2d90088c2d11" d="M38.2,199.73h1.2v11.2H38.2Z" transform="translate(-0.7)"/><path class="ad38efe5-0ef6-4939-a5fa-2d90088c2d11" d="M54.7,199.73v11.2H53.6v-9l-4.4,7.5h-.6l-4.4-7.5v8.9H43.1v-11.2h1l4.9,8.3,4.8-8.3h.9Z" transform="translate(-0.7)"/><path class="ad38efe5-0ef6-4939-a5fa-2d90088c2d11" d="M67.1,206.13a2.79,2.79,0,0,1,.6,1.8,2.53,2.53,0,0,1-1.1,2.2,5.45,5.45,0,0,1-3.1.8H58.3v-11.2h4.8a5,5,0,0,1,2.9.8,2.39,2.39,0,0,1,1,2.1,3,3,0,0,1-.5,1.6,2.68,2.68,0,0,1-1.3,1A2.64,2.64,0,0,1,67.1,206.13Zm-7.6-5.4v4.1h3.6a4.06,4.06,0,0,0,2.1-.5,1.68,1.68,0,0,0,.7-1.5,1.58,1.58,0,0,0-.7-1.5,4.06,4.06,0,0,0-2.1-.5H59.5Zm6.2,8.7a1.82,1.82,0,0,0,.8-1.6q0-2.1-3-2.1h-4v4.2h4A4.2,4.2,0,0,0,65.7,209.43Z" transform="translate(-0.7)"/><path class="ad38efe5-0ef6-4939-a5fa-2d90088c2d11" d="M70.4,199.73h1.2v10.2h6.3v1H70.4Z" transform="translate(-0.7)"/><path class="ad38efe5-0ef6-4939-a5fa-2d90088c2d11" d="M87.7,209.93v1H79.8v-11.2h7.7v1H81v4h5.8v1H81v4.2Z" transform="translate(-0.7)"/></g><rect class="a7b44219-9ed0-4ae9-9422-593a094d865f" x="364.38" width="69.64" height="13.14"/></svg>