<svg xmlns="http://www.w3.org/2000/svg" viewBox="0 0 300 300">
<rect width="300" height="300" fill="#f1f2da"/>
<g transform="translate(19, 19)">
<circle cx="130.93" cy="130.93" r="130.93" fill="#3a3a3a"/>
<path fill="#f1f2da" d="M131.09,85.49h0c-3.14,0-6.12-.64-8.84-1.79-2.72-1.15-5.17-2.81-7.22-4.87-2.06-2.06-3.72-4.5-4.87-7.22-1.15-2.72-1.79-5.71-1.79-8.84h0c0-3.14.64-6.12,1.79-8.84,1.15-2.72,2.81-5.17,4.87-7.22,2.06-2.06,4.5-3.72,7.22-4.87,2.72-1.15,5.71-1.79,8.84-1.79h0c3.14,0,6.12.64,8.84,1.79,2.72,1.15,5.17,2.81,7.22,4.87s3.72,4.5,4.87,7.22c1.15,2.72,1.79,5.71,1.79,8.84h0c0,3.14-.64,6.12-1.79,8.84-1.15,2.72-2.81,5.17-4.87,7.22-2.06,2.06-4.5,3.72-7.22,4.87s-5.71,1.79-8.84,1.79Z"/>
<path fill="#f1f2da" d="M101.51,137.16h-1.6s-1.6,0-1.6,0h-1.6s-1.6,0-1.6,0c-2.69,0-5.26-.55-7.6-1.53-2.33-.99-4.44-2.42-6.2-4.18-1.77-1.77-3.19-3.87-4.18-6.2-.99-2.33-1.53-4.9-1.53-7.6v-1.6s0-1.6,0-1.6v-1.6s0-1.6,0-1.6c0-2.69.55-5.26,1.53-7.6s2.42-4.44,4.18-6.2c1.77-1.77,3.87-3.19,6.2-4.18,2.33-.99,4.9-1.53,7.6-1.53h1.6s1.6,0,1.6,0h1.6s1.6,0,1.6,0c2.69,0,5.26.55,7.6,1.53,2.33.99,4.44,2.42,6.2,4.18,1.77,1.77,3.19,3.87,4.18,6.2s1.53,4.9,1.53,7.6v1.6s0,1.6,0,1.6v1.6s0,1.6,0,1.6c0,2.69-.55,5.26-1.53,7.6-.99,2.33-2.42,4.44-4.18,6.2-1.77,1.77-3.87,3.19-6.2,4.18s-4.9,1.53-7.6,1.53Z"/>
<path fill="#f1f2da" d="M160.67,137.16h1.6s1.6,0,1.6,0h1.6s1.6,0,1.6,0c2.69,0,5.26-.55,7.6-1.53,2.33-.99,4.44-2.42,6.2-4.18s3.19-3.87,4.18-6.2c.99-2.33,1.53-4.9,1.53-7.6v-1.6s0-1.6,0-1.6v-1.6s0-1.6,0-1.6c0-2.69-.55-5.26-1.53-7.6-.99-2.33-2.42-4.44-4.18-6.2s-3.87-3.19-6.2-4.18c-2.33-.99-4.9-1.53-7.6-1.53h-1.6s-1.6,0-1.6,0h-1.6s-1.6,0-1.6,0c-2.69,0-5.26.55-7.6,1.53-2.33.99-4.44,2.42-6.2,4.18-1.77,1.77-3.19,3.87-4.18,6.2-.99,2.33-1.53,4.9-1.53,7.6v1.6s0,1.6,0,1.6v1.6s0,1.6,0,1.6c0,2.69.55,5.26,1.53,7.6.99,2.33,2.42,4.44,4.18,6.2s3.87,3.19,6.2,4.18c2.33.99,4.9,1.53,7.6,1.53Z"/>
<path fill="#f1f2da" d="M199.3,194.81h-27.27c-2.49,0-4.74-1.01-6.37-2.64-1.63-1.63-2.64-3.88-2.64-6.37v-27.27c0-2.49,1.01-4.74,2.64-6.37,1.63-1.63,3.88-2.64,6.37-2.64h27.27c2.49,0,4.74,1.01,6.37,2.64,1.63,1.63,2.64,3.88,2.64,6.37v27.27c0,2.49-1.01,4.74-2.64,6.37-1.63,1.63-3.88,2.64-6.37,2.64Z"/>
<path fill="#f1f2da" d="M89.83,194.81h-27.27c-2.49,0-4.74-1.01-6.37-2.64-1.63-1.63-2.64-3.88-2.64-6.37v-27.27c0-2.49,1.01-4.74,2.64-6.37s3.88-2.64,6.37-2.64h27.27c2.49,0,4.74,1.01,6.37,2.64,1.63,1.63,2.64,3.88,2.64,6.37v27.27c0,2.49-1.01,4.74-2.64,6.37-1.63,1.63-3.88,2.64-6.37,2.64Z"/>
</g>
</svg>
