<svg id="b83d725d-8934-4fa3-8bc2-a6aa5b11a33e" data-name="Layer 1" xmlns="http://www.w3.org/2000/svg" viewBox="0 0 264.26 84.33"><defs><style>.b45a3b68-7d86-4e3d-a392-925feef723e3{fill:#f3f2f3;opacity:0.4;}.a97bcec1-a9ab-412d-bb1b-97f3cb1a0bee{fill:#c2b196;opacity:0.8;}.fb597a79-b997-455c-b857-5138f7d29e7c{fill:#d8d7d6;opacity:0.6;}</style></defs><path class="b45a3b68-7d86-4e3d-a392-925feef723e3" d="M47.57,76.38c4.22-1.17,8.55-2.67,12.66-4.17,4.56-1.66,9.09-3.41,13.62-5.13,8.83-3.36,17.29-6.48,26.35-9.18a183.47,183.47,0,0,1,27.21-6.08,149,149,0,0,1,27.84-1.32,151.82,151.82,0,0,1,27.58,3.89,193,193,0,0,1,26.57,8.43c4.55,1.78,8.92,3.63,13.43,5.52,4.11,1.72,8.23,3.43,12.44,4.91a83.07,83.07,0,0,0,12.58,3.46A78.66,78.66,0,0,0,262.61,78h1.65c-2.1-.14-4.19-.3-6.28-.51-1.79-.18-3.59-.39-5.37-.65a64.68,64.68,0,0,1-8.6-1.79,34.16,34.16,0,0,1-11.57-5.65,40.09,40.09,0,0,1-6-5.77c-1.81-2.11-3.45-4.33-5-6.6s-3.16-4.62-4.73-6.94-3.14-4.61-4.78-6.86A101.49,101.49,0,0,0,200.69,30.1,71.51,71.51,0,0,0,188,20.19a69.44,69.44,0,0,0-15.68-7,71.72,71.72,0,0,0-15.92-2.93,65.3,65.3,0,0,0-17.37,1,53.52,53.52,0,0,0-15,5.36,57.2,57.2,0,0,0-12.78,9.51A132.27,132.27,0,0,0,99.75,39.33c-3.1,3.93-6.17,7.87-9.52,11.6-1.91,2.12-3.9,4.15-6,6.08a70.12,70.12,0,0,1-7.74,6.1,79.22,79.22,0,0,1-12.13,6.71c-2.69,1.21-5.42,2.3-8.2,3.29-3.37,1.21-6.77,2.29-10.21,3.27" transform="translate(0 -10.11)"/><path class="a97bcec1-a9ab-412d-bb1b-97f3cb1a0bee" d="M252,67c-3.39,1.79-6.82,3.51-10.32,5.13-2.87,1.33-5.78,2.59-8.76,3.75-2.44,1-4.91,1.82-7.44,2.6-2.09.64-4.19,1.2-6.34,1.66a52.9,52.9,0,0,1-7.33,1.1,39,39,0,0,1-5.92,0,30,30,0,0,1-8.81-2,38.23,38.23,0,0,1-11-7c-1.42-1.24-2.79-2.51-4.14-3.81s-2.41-2.32-3.61-3.49c-2.09-2-4.19-4-6.37-5.93a105.76,105.76,0,0,0-11.3-8.82,95.48,95.48,0,0,0-16.51-8.83,74.66,74.66,0,0,0-15.91-4.69,52.89,52.89,0,0,0-17.35-.12,63,63,0,0,0-8.68,2c-3.13,1-6.15,2.1-9.13,3.35-2.33,1-4.61,2-6.88,3.1-2.48,1.19-4.92,2.42-7.34,3.68-5.7,3-11.3,6.13-16.82,9.33q-6.52,3.78-12.95,7.67c-2.6,1.55-5.19,3.12-7.79,4.68-3,1.81-6,3.61-9.09,5.36-4.4,2.53-8.86,5-13.5,7.15A120.15,120.15,0,0,1,0,89.94a164.86,164.86,0,0,0,19.45-8.37A116.09,116.09,0,0,0,32,74.09c3-2.09,5.91-4.3,8.7-6.61,2.32-1.92,4.57-3.9,6.78-5.91C51,58.32,54.52,55,58.09,51.76c1.68-1.54,3.38-3.06,5.12-4.55,1.48-1.27,3-2.51,4.55-3.72a66.59,66.59,0,0,1,7.78-5.31,37.46,37.46,0,0,1,6.55-3,26.41,26.41,0,0,1,5.76-1.26,26,26,0,0,1,7.43.36,38.73,38.73,0,0,1,7.43,2.26,73.72,73.72,0,0,1,8.23,4c3.4,1.88,6.72,3.94,10,6,4.41,2.81,8.75,5.71,13.1,8.6,5.4,3.58,10.82,7.14,16.37,10.55,4.86,3,10,6,15.17,8.55,2.69,1.35,5.44,2.61,8.27,3.75a81.24,81.24,0,0,0,8.87,3,69.7,69.7,0,0,0,15.6,2.52,71.53,71.53,0,0,0,9.49-.2,78.91,78.91,0,0,0,11.49-1.9,92.82,92.82,0,0,0,14.15-4.71c3-1.24,5.82-2.6,8.63-4.07C245.47,70.91,248.78,69,252,67Z" transform="translate(0 -10.11)"/><path class="fb597a79-b997-455c-b857-5138f7d29e7c" d="M32.79,94.44q7.35-2.16,14.51-4.83,6-2.27,11.93-4.92c4.6-2.07,9.1-4.32,13.57-6.68,3.85-2,7.66-4.13,11.49-6.2,4.29-2.32,8.59-4.58,13-6.59a91.14,91.14,0,0,1,12.72-4.72A74.36,74.36,0,0,1,138,58.19a123.6,123.6,0,0,1,27.42,6.29,257.22,257.22,0,0,1,26.07,10.73c4.39,2.05,8.73,4.15,13.12,6.2,4.12,1.94,8.27,3.82,12.53,5.45a85.91,85.91,0,0,0,12.07,3.72,103.61,103.61,0,0,0,15.38,2.21,150.21,150.21,0,0,1-15.65-5.73c-4-1.71-7.82-3.59-11.59-5.68-2.76-1.53-5.44-3.15-8.08-4.88-2.17-1.43-4.29-2.93-6.38-4.48q-2.64-2-5.21-4c-1.49-1.2-3-2.42-4.42-3.64-2.21-1.84-4.41-3.69-6.66-5.48-2-1.55-3.95-3.05-6-4.44a49.58,49.58,0,0,0-12-6,41.35,41.35,0,0,0-13.91-2.08c-1.23,0-2.46.1-3.69.22s-2.51.29-3.76.51a60.24,60.24,0,0,0-7.71,1.9,86.4,86.4,0,0,0-12.86,5.32c-4.66,2.35-9.14,5-13.6,7.68-3.83,2.31-7.64,4.65-11.5,6.91-4.65,2.73-9.36,5.34-14.19,7.74Q81.5,79.49,75.45,82,67.8,85.11,59.9,87.52C55.74,88.8,51.55,89.94,47.32,91,42,92.28,36.57,93.42,31.15,94.44" transform="translate(0 -10.11)"/></svg>