<svg id="b007be0a-2f65-488d-899f-b5213bbc2205" data-name="ad177dd7-6619-4fe0-b9c0-b3ebe764d2ac" xmlns="http://www.w3.org/2000/svg" viewBox="0 0 335.87 281.28"><defs><style>.a4da85e9-ba64-4744-a26c-9720ae9dd191,.bb8080c3-976e-46d6-a2dc-8bc761600539,.becc36bc-f59c-4983-95ca-d607b88e86e6{fill:#c2b196;}.a4da85e9-ba64-4744-a26c-9720ae9dd191,.bb8080c3-976e-46d6-a2dc-8bc761600539{isolation:isolate;}.a4da85e9-ba64-4744-a26c-9720ae9dd191{opacity:0.05;}.bb8080c3-976e-46d6-a2dc-8bc761600539{opacity:0.2;}</style></defs><rect class="a4da85e9-ba64-4744-a26c-9720ae9dd191" x="92.51" width="188.62" height="127.31"/><rect class="bb8080c3-976e-46d6-a2dc-8bc761600539" y="82.31" width="153.78" height="76.98"/><rect class="bb8080c3-976e-46d6-a2dc-8bc761600539" x="229.58" y="226.23" width="87.06" height="32.86"/><path class="becc36bc-f59c-4983-95ca-d607b88e86e6" d="M85.23,143.64H68.29l-3.62,8.11H61.34l13.9-30.4h3.18l13.9,30.4H89ZM84.07,141l-7.24-16.36L69.59,141Z" transform="translate(-30.15 -20.02)"/><path class="becc36bc-f59c-4983-95ca-d607b88e86e6" d="M99.7,148.71a13.72,13.72,0,0,1-3.33-9.84V121.49h3.19v17.23c0,3.48.72,6.23,2.31,8a10.56,10.56,0,0,0,13.9,0c1.6-1.73,2.32-4.34,2.32-8V121.49h3.18v17.38a13.68,13.68,0,0,1-3.33,9.84c-2.17,2.32-5.21,3.33-9.12,3.33A12.22,12.22,0,0,1,99.7,148.71Z" transform="translate(-30.15 -20.02)"/><path class="becc36bc-f59c-4983-95ca-d607b88e86e6" d="M151.82,151.9l-6.95-9.85a13.5,13.5,0,0,1-2.46.15H134.3v9.7h-3.18V121.49h11.44a13.55,13.55,0,0,1,9.12,2.75,9.55,9.55,0,0,1,3.33,7.68,10.76,10.76,0,0,1-1.74,6.08,9.79,9.79,0,0,1-5.21,3.47l7.38,10.43Zm-2.46-14.48a6.87,6.87,0,0,0,2.32-5.65,7.23,7.23,0,0,0-2.32-5.64,10.73,10.73,0,0,0-7-2H134.3v15.3h8.11A10,10,0,0,0,149.36,137.42Z" transform="translate(-30.15 -20.02)"/><path class="becc36bc-f59c-4983-95ca-d607b88e86e6" d="M162.53,121.49h3.19V151.9h-3.19Z" transform="translate(-30.15 -20.02)"/><path class="becc36bc-f59c-4983-95ca-d607b88e86e6" d="M201,121.49V151.9h-2.6l-19.55-24.62V151.9h-3.18V121.49h2.6l19.55,24.61V121.49Z" transform="translate(-30.15 -20.02)"/><path class="becc36bc-f59c-4983-95ca-d607b88e86e6" d="M232.31,136.69h3.05v11.59a14.47,14.47,0,0,1-5.07,2.89,18,18,0,0,1-6.08,1,17.43,17.43,0,0,1-8.25-2,15.17,15.17,0,0,1-5.8-5.5,14.83,14.83,0,0,1-2-8,16.78,16.78,0,0,1,2-8,13.4,13.4,0,0,1,5.8-5.5,17.43,17.43,0,0,1,8.25-2,18,18,0,0,1,6.37,1.16,12.91,12.91,0,0,1,4.92,3.33l-2,2a12.9,12.9,0,0,0-9.12-3.62,14.55,14.55,0,0,0-6.66,1.59,12.62,12.62,0,0,0-4.63,4.49,12.79,12.79,0,0,0,0,12.88,11.5,11.5,0,0,0,4.63,4.49,14.77,14.77,0,0,0,14.62-.72Z" transform="translate(-30.15 -20.02)"/><path class="becc36bc-f59c-4983-95ca-d607b88e86e6" d="M249.69,150a15.07,15.07,0,0,1-5.79-5.5,14.46,14.46,0,0,1-2-8,16.64,16.64,0,0,1,2-8,14.14,14.14,0,0,1,5.79-5.5,17.31,17.31,0,0,1,8.25-2,16.34,16.34,0,0,1,8.11,2,13.71,13.71,0,0,1,5.64,5.5,16.17,16.17,0,0,1,2,8,16.64,16.64,0,0,1-2,8,15.73,15.73,0,0,1-5.64,5.5,16.77,16.77,0,0,1-8.11,2A15.18,15.18,0,0,1,249.69,150Zm14.62-2.46a12.11,12.11,0,0,0,6.08-11A14.42,14.42,0,0,0,268.8,130a12.14,12.14,0,0,0-11-6.09,13.55,13.55,0,0,0-6.51,1.6,12.39,12.39,0,0,0-4.63,4.49,12.12,12.12,0,0,0-1.74,6.51,12.8,12.8,0,0,0,1.74,6.51,10.62,10.62,0,0,0,4.63,4.49,14.49,14.49,0,0,0,6.51,1.6A11,11,0,0,0,264.31,147.55Z" transform="translate(-30.15 -20.02)"/><path class="becc36bc-f59c-4983-95ca-d607b88e86e6" d="M306.29,121.49V151.9h-2.6l-19.55-24.62V151.9H281V121.49h2.6l19.55,24.61V121.49Z" transform="translate(-30.15 -20.02)"/><path class="becc36bc-f59c-4983-95ca-d607b88e86e6" d="M52.66,204.55A13.82,13.82,0,0,1,47,199a14.92,14.92,0,0,1-2-8,16.64,16.64,0,0,1,2-8,14.71,14.71,0,0,1,5.65-5.5A17.23,17.23,0,0,1,67,176.75a14.11,14.11,0,0,1,4.92,3.33l-2,2a11.73,11.73,0,0,0-9-3.62,13.49,13.49,0,0,0-6.52,1.59,12.43,12.43,0,0,0-4.63,17.23,11.63,11.63,0,0,0,4.63,4.49,12.78,12.78,0,0,0,6.52,1.59,11.81,11.81,0,0,0,9-3.62l2,2A12,12,0,0,1,67,205.13a17.68,17.68,0,0,1-6.23,1.15A15.48,15.48,0,0,1,52.66,204.55Z" transform="translate(-30.15 -20.02)"/><path class="becc36bc-f59c-4983-95ca-d607b88e86e6" d="M83.35,204.4a15.07,15.07,0,0,1-5.79-5.5,14.46,14.46,0,0,1-2-8,16.64,16.64,0,0,1,2-8,14.1,14.1,0,0,1,5.79-5.51,17.42,17.42,0,0,1,8.25-2,16.43,16.43,0,0,1,8.11,2,13.79,13.79,0,0,1,5.64,5.51,16.15,16.15,0,0,1,2,8,16.64,16.64,0,0,1-2,8,15.81,15.81,0,0,1-5.64,5.5,16.77,16.77,0,0,1-8.11,2A16,16,0,0,1,83.35,204.4Zm14.76-2.46a12.11,12.11,0,0,0,6.08-11,14.36,14.36,0,0,0-1.59-6.52,12.13,12.13,0,0,0-11-6.08,13.72,13.72,0,0,0-6.52,1.59,12.62,12.62,0,0,0-4.63,4.49,12.27,12.27,0,0,0-1.74,6.52,13.06,13.06,0,0,0,1.74,6.51,10.68,10.68,0,0,0,4.63,4.49,14.49,14.49,0,0,0,6.52,1.59A11.43,11.43,0,0,0,98.11,201.94Z" transform="translate(-30.15 -20.02)"/><path class="becc36bc-f59c-4983-95ca-d607b88e86e6" d="M140.1,175.88v30.4h-2.61L118,181.67v24.61h-3.33v-30.4h2.6l19.55,24.61V175.88Z" transform="translate(-30.15 -20.02)"/><path class="becc36bc-f59c-4983-95ca-d607b88e86e6" d="M151.82,205.37a12.85,12.85,0,0,1-4.77-2.89l1.3-2.47a10.8,10.8,0,0,0,4.34,2.61,15.39,15.39,0,0,0,5.65,1,9.92,9.92,0,0,0,6.08-1.44,4.83,4.83,0,0,0,2-3.91,4.07,4.07,0,0,0-1.16-2.9,7.57,7.57,0,0,0-2.75-1.74,30.34,30.34,0,0,0-4.49-1.3,40.83,40.83,0,0,1-5.5-1.74,8.4,8.4,0,0,1-3.48-2.46,6.4,6.4,0,0,1-1.44-4.48,8.26,8.26,0,0,1,1.15-4.2,8,8,0,0,1,3.77-3,15.8,15.8,0,0,1,6.22-1.16,19.71,19.71,0,0,1,5.07.72,14.84,14.84,0,0,1,4.34,2L167,180.62a14.72,14.72,0,0,0-8.26-2.47,10.53,10.53,0,0,0-6.08,1.6,4.81,4.81,0,0,0-2,3.91,4,4,0,0,0,1.15,2.89,7.4,7.4,0,0,0,2.76,1.74,34.78,34.78,0,0,0,4.48,1.3c2.18.58,4.06,1.16,5.36,1.59a8.56,8.56,0,0,1,3.47,2.46,6.32,6.32,0,0,1,1.45,4.35,7.24,7.24,0,0,1-1.3,4.2,8.07,8.07,0,0,1-3.76,3,16.16,16.16,0,0,1-6.37,1.15A19.44,19.44,0,0,1,151.82,205.37Z" transform="translate(-30.15 -20.02)"/><path class="becc36bc-f59c-4983-95ca-d607b88e86e6" d="M179.77,203.1a13.69,13.69,0,0,1-3.33-9.85V175.88h3.18v17.23c0,3.47.73,6.22,2.32,8a10.56,10.56,0,0,0,13.9,0,11.44,11.44,0,0,0,2.46-8V175.88h3.18v17.37a13.69,13.69,0,0,1-3.33,9.85c-2.17,2.31-5.21,3.33-9.12,3.33S181.94,205.37,179.77,203.1Z" transform="translate(-30.15 -20.02)"/><path class="becc36bc-f59c-4983-95ca-d607b88e86e6" d="M211,175.88h3.18v27.65h17.09v2.75H211Z" transform="translate(-30.15 -20.02)"/><path class="becc36bc-f59c-4983-95ca-d607b88e86e6" d="M239.7,178.63H229v-2.75H253.6v2.75H242.89v27.65H239.7Z" transform="translate(-30.15 -20.02)"/><path class="becc36bc-f59c-4983-95ca-d607b88e86e6" d="M258.81,175.88H262v30.4h-3.19Z" transform="translate(-30.15 -20.02)"/><path class="becc36bc-f59c-4983-95ca-d607b88e86e6" d="M297.32,175.88v30.4h-2.6l-19.55-24.61v24.61H272v-30.4h2.6l19.55,24.61V175.88Z" transform="translate(-30.15 -20.02)"/><path class="becc36bc-f59c-4983-95ca-d607b88e86e6" d="M328.59,191.08h3v11.58a14.45,14.45,0,0,1-5.06,2.9,17.76,17.76,0,0,1-6.08,1,17.46,17.46,0,0,1-8.26-2,15.17,15.17,0,0,1-5.79-5.51,14.82,14.82,0,0,1-2-8,16.63,16.63,0,0,1,2-8,13.32,13.32,0,0,1,5.79-5.5,17.35,17.35,0,0,1,8.26-2,18,18,0,0,1,6.37,1.16,12.91,12.91,0,0,1,4.92,3.33l-2,2a12.92,12.92,0,0,0-9.12-3.62,14.55,14.55,0,0,0-6.66,1.59,11.56,11.56,0,0,0-4.63,4.49,12.12,12.12,0,0,0-1.74,6.51,12,12,0,0,0,1.74,6.37,11.56,11.56,0,0,0,4.63,4.49,14.79,14.79,0,0,0,14.62-.72Z" transform="translate(-30.15 -20.02)"/><path class="becc36bc-f59c-4983-95ca-d607b88e86e6" d="M161.51,239h-2.7v-.72H165V239h-2.7v7h-.81Z" transform="translate(-30.15 -20.02)"/><path class="becc36bc-f59c-4983-95ca-d607b88e86e6" d="M171.77,245.33v.72h-5.49v-7.74h5.31V239h-4.5v2.7h4v.72h-4v2.88Z" transform="translate(-30.15 -20.02)"/><path class="becc36bc-f59c-4983-95ca-d607b88e86e6" d="M174.92,245.51a3.83,3.83,0,0,1-1.44-1.44,4,4,0,0,1-.54-2,4,4,0,0,1,2-3.42,4.11,4.11,0,0,1,2.08-.54,5,5,0,0,1,1.62.27,3.68,3.68,0,0,1,1.26.81l-.54.54a2.94,2.94,0,0,0-2.25-.9,3,3,0,0,0-1.63.45,2.46,2.46,0,0,0-1.17,1.17,3.14,3.14,0,0,0,0,3.24,3,3,0,0,0,1.17,1.17,3.72,3.72,0,0,0,1.63.45,2.86,2.86,0,0,0,2.25-.9l.54.54a3.07,3.07,0,0,1-1.26.81,4.48,4.48,0,0,1-1.62.27A4,4,0,0,1,174.92,245.51Z" transform="translate(-30.15 -20.02)"/><path class="becc36bc-f59c-4983-95ca-d607b88e86e6" d="M188,238.31v7.74h-.81v-3.6h-4.86v3.6h-.81v-7.74h.81v3.42h4.86v-3.42Z" transform="translate(-30.15 -20.02)"/><path class="becc36bc-f59c-4983-95ca-d607b88e86e6" d="M198.87,246.14l-1.08-1.08a3.33,3.33,0,0,1-2.61,1.08,3.5,3.5,0,0,1-1.35-.27,1.5,1.5,0,0,1-.9-.72,1.86,1.86,0,0,1-.36-1,2.13,2.13,0,0,1,.45-1.26,6,6,0,0,1,1.53-1.17,3.19,3.19,0,0,1-.72-1,1.36,1.36,0,0,1-.18-.81,1.45,1.45,0,0,1,.54-1.17,2.27,2.27,0,0,1,1.44-.45,2.13,2.13,0,0,1,1.35.45,1.18,1.18,0,0,1,.45,1.08,1.35,1.35,0,0,1-.36,1,6.61,6.61,0,0,1-1.35,1l2.07,2.16a3.85,3.85,0,0,0,.54-1.53l.63.18a5.32,5.32,0,0,1-.72,1.8l1.08,1.17Zm-1.53-1.62L195,242.09a5.57,5.57,0,0,0-1.26.9,1.3,1.3,0,0,0-.36.9,1.14,1.14,0,0,0,.54,1,2.22,2.22,0,0,0,1.35.36A1.91,1.91,0,0,0,197.34,244.52Zm-2.61-5.4a1.13,1.13,0,0,0-.36.72,1.39,1.39,0,0,0,.18.63,5,5,0,0,0,.72.81c.54-.36.9-.63,1.17-.81a.81.81,0,0,0,.36-.72,1,1,0,0,0-.27-.72,1,1,0,0,0-.81-.27A1.71,1.71,0,0,0,194.73,239.12Z" transform="translate(-30.15 -20.02)"/><path class="becc36bc-f59c-4983-95ca-d607b88e86e6" d="M211.66,238.31v7.74h-.81v-6.12l-3.06,5.22h-.36L204.37,240v6.12h-.81v-7.83h.63l3.33,5.67,3.33-5.67Z" transform="translate(-30.15 -20.02)"/><path class="becc36bc-f59c-4983-95ca-d607b88e86e6" d="M219,243.89h-4.32l-.9,2.07h-.9l3.51-7.74h.81l3.51,7.74h-.9Zm-.36-.63-1.89-4.14-1.89,4.14Z" transform="translate(-30.15 -20.02)"/><path class="becc36bc-f59c-4983-95ca-d607b88e86e6" d="M228.49,238.31v7.74h-.63l-5-6.21v6.21h-.81v-7.74h.63l5,6.21v-6.21Z" transform="translate(-30.15 -20.02)"/><path class="becc36bc-f59c-4983-95ca-d607b88e86e6" d="M235.92,243.89H231.6l-.9,2.07h-.81l3.51-7.74h.81l3.51,7.74h-.9Zm-.36-.63-1.89-4.14-1.89,4.14Z" transform="translate(-30.15 -20.02)"/><path class="becc36bc-f59c-4983-95ca-d607b88e86e6" d="M244.25,242.18h.81v3a3.6,3.6,0,0,1-1.26.72,4.44,4.44,0,0,1-1.53.27,4,4,0,0,1-2.07-.54,3.69,3.69,0,0,1-1.44-1.44,3.85,3.85,0,0,1-.54-2,4,4,0,0,1,2-3.42,4.53,4.53,0,0,1,3.69-.27,3.59,3.59,0,0,1,1.26.81l-.54.54a3,3,0,0,0-2.34-.9,3.63,3.63,0,0,0-1.71.45,2.42,2.42,0,0,0-1.17,1.17,3.14,3.14,0,0,0,0,3.24,3.63,3.63,0,0,0,1.17,1.17,3.76,3.76,0,0,0,1.71.45,2.9,2.9,0,0,0,2-.63v-2.61Z" transform="translate(-30.15 -20.02)"/><path class="becc36bc-f59c-4983-95ca-d607b88e86e6" d="M252.8,245.33v.72h-5.49v-7.74h5.31V239h-4.5v2.7h4v.72h-4v2.88Z" transform="translate(-30.15 -20.02)"/><path class="becc36bc-f59c-4983-95ca-d607b88e86e6" d="M262.71,238.31v7.74h-.81v-6.12l-3.06,5.22h-.36L255.41,240v6.12h-.81v-7.83h.63l3.34,5.67,3.33-5.67Z" transform="translate(-30.15 -20.02)"/><path class="becc36bc-f59c-4983-95ca-d607b88e86e6" d="M270.63,245.33v.72h-5.49v-7.74h5.31V239H266v2.7h4v.72H266v2.88Z" transform="translate(-30.15 -20.02)"/><path class="becc36bc-f59c-4983-95ca-d607b88e86e6" d="M279,238.31v7.74h-.63l-4.95-6.21v6.21h-.81v-7.74h.63l4.95,6.21v-6.21Z" transform="translate(-30.15 -20.02)"/><path class="becc36bc-f59c-4983-95ca-d607b88e86e6" d="M283.05,239h-2.7v-.72h6.22V239h-2.71v7h-.81Z" transform="translate(-30.15 -20.02)"/><path class="becc36bc-f59c-4983-95ca-d607b88e86e6" d="M281.84,295.17a3.71,3.71,0,0,1,.72,2.25,3.09,3.09,0,0,1-1.35,2.7,6.6,6.6,0,0,1-3.87,1H271V287.25h5.94a6.08,6.08,0,0,1,3.6.9,3.21,3.21,0,0,1,1.26,2.61,3.39,3.39,0,0,1-.54,2,3.29,3.29,0,0,1-1.53,1.17A5,5,0,0,1,281.84,295.17Zm-9.45-6.66v5h4.41a4.51,4.51,0,0,0,2.61-.63,2.43,2.43,0,0,0,.35-3.43,1.93,1.93,0,0,0-.35-.35,4.2,4.2,0,0,0-2.61-.63Zm7.74,10.8a2.26,2.26,0,0,0,1-2c0-1.71-1.26-2.61-3.78-2.61h-4.86V300h4.86A4.93,4.93,0,0,0,280.13,299.31Z" transform="translate(-30.15 -20.02)"/><path class="becc36bc-f59c-4983-95ca-d607b88e86e6" d="M295.71,300v1.26h-9.82V287.36h9.55v1.26h-8v5h7.21v1.26h-7.21V300Z" transform="translate(-30.15 -20.02)"/><path class="becc36bc-f59c-4983-95ca-d607b88e86e6" d="M300,300.75a5.53,5.53,0,0,1-2.16-1.35l.54-1.17a6.13,6.13,0,0,0,2,1.26,8.27,8.27,0,0,0,2.61.45,4.66,4.66,0,0,0,2.79-.72,2.09,2.09,0,0,0,.9-1.8,1.79,1.79,0,0,0-.54-1.35,2.89,2.89,0,0,0-1.26-.72,12.36,12.36,0,0,0-2.07-.54c-1.08-.27-1.89-.54-2.52-.72a5,5,0,0,1-1.62-1.08,2.83,2.83,0,0,1-.63-2.07,3.25,3.25,0,0,1,.54-1.89,3.78,3.78,0,0,1,1.71-1.35,6.77,6.77,0,0,1,2.88-.54,6.86,6.86,0,0,1,2.34.36,6.46,6.46,0,0,1,2,.9l-.45,1.17a8.86,8.86,0,0,0-1.89-.9,7.33,7.33,0,0,0-2-.27,4.39,4.39,0,0,0-2.7.72,2.07,2.07,0,0,0-.9,1.8,1.82,1.82,0,0,0,.54,1.35,3.07,3.07,0,0,0,1.26.81,18.52,18.52,0,0,0,2.07.54c1,.27,1.8.54,2.43.72a5,5,0,0,1,1.62,1.08,2.73,2.73,0,0,1,.63,2,3.25,3.25,0,0,1-.54,1.89,4.34,4.34,0,0,1-1.71,1.35,6.48,6.48,0,0,1-2.88.54A6.42,6.42,0,0,1,300,300.75Z" transform="translate(-30.15 -20.02)"/><path class="becc36bc-f59c-4983-95ca-d607b88e86e6" d="M320.65,288.6a4.31,4.31,0,0,1,1.53,3.51,4.45,4.45,0,0,1-1.53,3.51,6.5,6.5,0,0,1-4.15,1.26h-3.69v4.41h-1.44V287.43h5.23A5.32,5.32,0,0,1,320.65,288.6Zm-1,6a3.18,3.18,0,0,0,1.08-2.52,3.33,3.33,0,0,0-1.08-2.61,4.7,4.7,0,0,0-3.16-.9h-3.69v6.93h3.69A5.3,5.3,0,0,0,319.66,294.63Z" transform="translate(-30.15 -20.02)"/><path class="becc36bc-f59c-4983-95ca-d607b88e86e6" d="M327.85,300.39a6.94,6.94,0,0,1-2.61-2.52,7.65,7.65,0,0,1,0-7.2,6.86,6.86,0,0,1,2.61-2.52,8,8,0,0,1,7.38,0,7,7,0,0,1,0,12.24,7.11,7.11,0,0,1-3.69.9A7.52,7.52,0,0,1,327.85,300.39Zm6.75-1.17a5,5,0,0,0,2.07-2.07,5.59,5.59,0,0,0,.72-3,6.54,6.54,0,0,0-.72-3,5.71,5.71,0,0,0-2.07-2.07,5.59,5.59,0,0,0-3-.72,6.54,6.54,0,0,0-3,.72,4.56,4.56,0,0,0-2.07,2.07,5.59,5.59,0,0,0-.72,3,6.54,6.54,0,0,0,.72,3,5.71,5.71,0,0,0,2.07,2.07,6.54,6.54,0,0,0,3,.72A5.59,5.59,0,0,0,334.6,299.22Z" transform="translate(-30.15 -20.02)"/><path class="becc36bc-f59c-4983-95ca-d607b88e86e6" d="M346.49,294.63l-2.8,2.88v3.6h-1.44V287.25h1.44v8.37l8.11-8.37h1.71l-6,6.3,6.39,7.56h-1.71Z" transform="translate(-30.15 -20.02)"/><path class="becc36bc-f59c-4983-95ca-d607b88e86e6" d="M366,300v1.26h-9.81V287.36h9.54v1.26h-8v5h7.2v1.26h-7.2V300Z" transform="translate(-30.15 -20.02)"/><path class="becc36bc-f59c-4983-95ca-d607b88e86e6" d="M41.67,268.61V278.7h-.9l-6.49-8.19v8.19H33.2V268.61h.9l6.49,8.2v-8.2Z" transform="translate(-30.15 -20.02)"/><path class="becc36bc-f59c-4983-95ca-d607b88e86e6" d="M44.91,268.61H46V278.7H44.91Z" transform="translate(-30.15 -20.02)"/><path class="becc36bc-f59c-4983-95ca-d607b88e86e6" d="M59.76,268.61V278.7h-1v-8.1l-4,6.75h-.54l-4-6.75v8h-1V268.52h.9L54.63,276,59,268.52h.81Z" transform="translate(-30.15 -20.02)"/><path class="becc36bc-f59c-4983-95ca-d607b88e86e6" d="M70.93,274.38a2.55,2.55,0,0,1,.54,1.62,2.3,2.3,0,0,1-1,2,5,5,0,0,1-2.79.72H63V268.61h4.33a4.56,4.56,0,0,1,2.61.72,2.21,2.21,0,0,1,.9,1.9,2.75,2.75,0,0,1-.45,1.44,2.48,2.48,0,0,1-1.17.9A2.38,2.38,0,0,1,70.93,274.38Zm-6.85-4.87v3.7h3.25a3.79,3.79,0,0,0,1.89-.45,1.52,1.52,0,0,0,.63-1.35,1.43,1.43,0,0,0-.63-1.35,3.7,3.7,0,0,0-1.89-.46H64.08Zm5.59,7.84a1.65,1.65,0,0,0,.72-1.44q0-1.89-2.7-1.89H64.08v3.78h3.61a3.82,3.82,0,0,0,2-.45Z" transform="translate(-30.15 -20.02)"/><path class="becc36bc-f59c-4983-95ca-d607b88e86e6" d="M73.9,268.61H75v9.19h5.67v.9H73.9Z" transform="translate(-30.15 -20.02)"/><path class="becc36bc-f59c-4983-95ca-d607b88e86e6" d="M89.47,277.8v.9H82.36V268.61h6.93v.9H83.44v3.61h5.22v.9H83.44v3.78Z" transform="translate(-30.15 -20.02)"/><rect class="bb8080c3-976e-46d6-a2dc-8bc761600539" x="254.73" y="25.92" width="62.7" height="31.5"/><rect class="a4da85e9-ba64-4744-a26c-9720ae9dd191" x="63.92" y="139.83" width="188.62" height="127.31"/></svg>