<svg id="ad177dd7-6619-4fe0-b9c0-b3ebe764d2ac" data-name="Layer 1" xmlns="http://www.w3.org/2000/svg" viewBox="0 0 588.5 585.4"><defs><style>.a92eb630-83d1-4eeb-bfb4-a8df956ce149,.b2b431c0-744a-40cb-9da0-04405d8f21b2,.b75b540f-8c95-4ec2-9cdb-f916b7f98300,.b8d1a172-b113-4cd3-8291-156d1e56930d{fill:#c3b197;}.a4c8d1db-35e9-4515-947f-3f5e163dbd84,.a92eb630-83d1-4eeb-bfb4-a8df956ce149,.b2b431c0-744a-40cb-9da0-04405d8f21b2,.b8d1a172-b113-4cd3-8291-156d1e56930d{isolation:isolate;}.b2b431c0-744a-40cb-9da0-04405d8f21b2{opacity:0.05;}.a92eb630-83d1-4eeb-bfb4-a8df956ce149{opacity:0.2;}.b8d1a172-b113-4cd3-8291-156d1e56930d{opacity:0.25;}.a4f202c5-05fa-4fcc-a9a7-ca0c791e8962{fill:#c2b196;}</style></defs><rect class="b2b431c0-744a-40cb-9da0-04405d8f21b2" x="166.8" width="209.5" height="141.4"/><rect class="a92eb630-83d1-4eeb-bfb4-a8df956ce149" y="69.57" width="170.8" height="85.5"/><rect class="b8d1a172-b113-4cd3-8291-156d1e56930d" x="453.8" y="76.17" width="134.7" height="48.3"/><rect class="a92eb630-83d1-4eeb-bfb4-a8df956ce149" x="376.45" y="167.82" width="96.7" height="36.5"/><g class="a4c8d1db-35e9-4515-947f-3f5e163dbd84"><path class="b75b540f-8c95-4ec2-9cdb-f916b7f98300" d="M40.21,56.17H28.51L26,61.77h-2.3l9.6-21h2.2l9.6,21h-2.3Zm-.8-1.8-5-11.3-5,11.3Z" transform="translate(-10.51 -2.31)"/></g><g class="a4c8d1db-35e9-4515-947f-3f5e163dbd84"><path class="b75b540f-8c95-4ec2-9cdb-f916b7f98300" d="M50.21,59.67a9.47,9.47,0,0,1-2.3-6.8v-12h2.2v11.9c0,2.4.5,4.3,1.6,5.5a6.19,6.19,0,0,0,4.8,1.8,6.19,6.19,0,0,0,4.8-1.8c1.1-1.2,1.6-3,1.6-5.5V40.87h2.2v12a9.47,9.47,0,0,1-2.3,6.8c-1.5,1.6-3.6,2.3-6.3,2.3A8.45,8.45,0,0,1,50.21,59.67Z" transform="translate(-10.51 -2.31)"/><path class="b75b540f-8c95-4ec2-9cdb-f916b7f98300" d="M86.21,61.87l-4.8-6.8a9.15,9.15,0,0,1-1.7.1h-5.6v6.7h-2.2v-21h7.9a9.3,9.3,0,0,1,6.3,1.9,6.59,6.59,0,0,1,2.3,5.3,7.39,7.39,0,0,1-1.2,4.2,6.77,6.77,0,0,1-3.6,2.4l5.1,7.2Zm-1.7-10a4.72,4.72,0,0,0,1.6-3.9,5,5,0,0,0-1.6-3.9,7.42,7.42,0,0,0-4.8-1.4h-5.6v10.6h5.6A6.89,6.89,0,0,0,84.51,51.87Z" transform="translate(-10.51 -2.31)"/><path class="b75b540f-8c95-4ec2-9cdb-f916b7f98300" d="M93.61,40.87h2.2v21h-2.2Z" transform="translate(-10.51 -2.31)"/><path class="b75b540f-8c95-4ec2-9cdb-f916b7f98300" d="M120.21,40.87v21h-1.8l-13.5-17v17h-2.2v-21h1.8l13.5,17v-17Z" transform="translate(-10.51 -2.31)"/><path class="b75b540f-8c95-4ec2-9cdb-f916b7f98300" d="M141.81,51.37h2.1v8a10,10,0,0,1-3.5,2,12.34,12.34,0,0,1-4.2.7,12,12,0,0,1-5.7-1.4,10.44,10.44,0,0,1-4-3.8,10.25,10.25,0,0,1-1.4-5.5,11.52,11.52,0,0,1,1.4-5.5,9.18,9.18,0,0,1,4-3.8,12,12,0,0,1,5.7-1.4,12.31,12.31,0,0,1,4.4.8,8.92,8.92,0,0,1,3.4,2.3l-1.4,1.4a8.92,8.92,0,0,0-6.3-2.5,10.07,10.07,0,0,0-4.6,1.1,8.66,8.66,0,0,0-3.2,3.1,8.41,8.41,0,0,0-1.2,4.5,8.31,8.31,0,0,0,1.2,4.4,8,8,0,0,0,3.2,3.1,10.21,10.21,0,0,0,10.1-.5Z" transform="translate(-10.51 -2.31)"/><path class="b75b540f-8c95-4ec2-9cdb-f916b7f98300" d="M153.81,60.57a10.44,10.44,0,0,1-4-3.8,10,10,0,0,1-1.4-5.5,11.52,11.52,0,0,1,1.4-5.5,9.78,9.78,0,0,1,4-3.8,12,12,0,0,1,5.7-1.4,11.34,11.34,0,0,1,5.6,1.4,9.52,9.52,0,0,1,3.9,3.8,11.24,11.24,0,0,1,1.4,5.5,11.52,11.52,0,0,1-1.4,5.5,10.91,10.91,0,0,1-3.9,3.8,11.62,11.62,0,0,1-5.6,1.4A10.5,10.5,0,0,1,153.81,60.57Zm10.1-1.7a8.37,8.37,0,0,0,4.2-7.6,10,10,0,0,0-1.1-4.5,8.37,8.37,0,0,0-7.6-4.2,9.36,9.36,0,0,0-4.5,1.1,8.64,8.64,0,0,0-3.2,3.1,8.41,8.41,0,0,0-1.2,4.5,8.92,8.92,0,0,0,1.2,4.5,7.36,7.36,0,0,0,3.2,3.1,10,10,0,0,0,4.5,1.1A7.56,7.56,0,0,0,163.91,58.87Z" transform="translate(-10.51 -2.31)"/><path class="b75b540f-8c95-4ec2-9cdb-f916b7f98300" d="M192.91,40.87v21h-1.8l-13.5-17v17h-2.2v-21h1.8l13.5,17v-17Z" transform="translate(-10.51 -2.31)"/></g><g class="a4c8d1db-35e9-4515-947f-3f5e163dbd84"><path class="b75b540f-8c95-4ec2-9cdb-f916b7f98300" d="M211.11,60.67a9.52,9.52,0,0,1-3.9-3.8,10.25,10.25,0,0,1-1.4-5.5,11.52,11.52,0,0,1,1.4-5.5,10.17,10.17,0,0,1,3.9-3.8,11.92,11.92,0,0,1,5.6-1.4,11.76,11.76,0,0,1,4.3.8,9.76,9.76,0,0,1,3.4,2.3l-1.4,1.4a8.14,8.14,0,0,0-6.2-2.5,9.36,9.36,0,0,0-4.5,1.1,8.66,8.66,0,0,0-3.2,3.1,8.67,8.67,0,0,0,0,8.8,8,8,0,0,0,3.2,3.1,8.83,8.83,0,0,0,4.5,1.1,8.14,8.14,0,0,0,6.2-2.5l1.4,1.4a8.22,8.22,0,0,1-3.4,2.3,12.17,12.17,0,0,1-4.3.8A10.7,10.7,0,0,1,211.11,60.67Z" transform="translate(-10.51 -2.31)"/></g><g class="a4c8d1db-35e9-4515-947f-3f5e163dbd84"><path class="b75b540f-8c95-4ec2-9cdb-f916b7f98300" d="M232.31,60.57a10.44,10.44,0,0,1-4-3.8,10,10,0,0,1-1.4-5.5,11.52,11.52,0,0,1,1.4-5.5,9.78,9.78,0,0,1,4-3.8,12,12,0,0,1,5.7-1.4,11.34,11.34,0,0,1,5.6,1.4,9.52,9.52,0,0,1,3.9,3.8,11.24,11.24,0,0,1,1.4,5.5,11.52,11.52,0,0,1-1.4,5.5,10.91,10.91,0,0,1-3.9,3.8A11.62,11.62,0,0,1,238,62,11,11,0,0,1,232.31,60.57Zm10.2-1.7a8.37,8.37,0,0,0,4.2-7.6,10,10,0,0,0-1.1-4.5,8.37,8.37,0,0,0-7.6-4.2,9.36,9.36,0,0,0-4.5,1.1,8.64,8.64,0,0,0-3.2,3.1,8.41,8.41,0,0,0-1.2,4.5,8.92,8.92,0,0,0,1.2,4.5,7.36,7.36,0,0,0,3.2,3.1A10,10,0,0,0,238,60,7.93,7.93,0,0,0,242.51,58.87Z" transform="translate(-10.51 -2.31)"/><path class="b75b540f-8c95-4ec2-9cdb-f916b7f98300" d="M271.51,40.87v21h-1.8l-13.5-17v17h-2.3v-21h1.8l13.5,17v-17Z" transform="translate(-10.51 -2.31)"/><path class="b75b540f-8c95-4ec2-9cdb-f916b7f98300" d="M279.61,61.27a8.81,8.81,0,0,1-3.3-2l.9-1.7a7.53,7.53,0,0,0,3,1.8,10.72,10.72,0,0,0,3.9.7,6.85,6.85,0,0,0,4.2-1,3.32,3.32,0,0,0,1.4-2.7,2.79,2.79,0,0,0-.8-2,5.16,5.16,0,0,0-1.9-1.2,20.42,20.42,0,0,0-3.1-.9,29,29,0,0,1-3.8-1.2,5.86,5.86,0,0,1-2.4-1.7,4.45,4.45,0,0,1-1-3.1,5.74,5.74,0,0,1,.8-2.9,5.53,5.53,0,0,1,2.6-2.1,11,11,0,0,1,4.3-.8,13.45,13.45,0,0,1,3.5.5,10.32,10.32,0,0,1,3,1.4l-.8,1.8a10.14,10.14,0,0,0-5.7-1.7,7.23,7.23,0,0,0-4.2,1.1,3.32,3.32,0,0,0-1.4,2.7,2.79,2.79,0,0,0,.8,2,5.16,5.16,0,0,0,1.9,1.2,24.63,24.63,0,0,0,3.1.9c1.5.4,2.8.8,3.7,1.1a5.86,5.86,0,0,1,2.4,1.7,4.36,4.36,0,0,1,1,3,5,5,0,0,1-.9,2.9,5.53,5.53,0,0,1-2.6,2.1,11.16,11.16,0,0,1-4.4.8A13.64,13.64,0,0,1,279.61,61.27Z" transform="translate(-10.51 -2.31)"/><path class="b75b540f-8c95-4ec2-9cdb-f916b7f98300" d="M298.91,59.67a9.47,9.47,0,0,1-2.3-6.8v-12h2.2v11.9c0,2.4.5,4.3,1.6,5.5a7.3,7.3,0,0,0,9.6,0,7.87,7.87,0,0,0,1.7-5.5V40.87h2.2v12a9.47,9.47,0,0,1-2.3,6.8c-1.5,1.6-3.6,2.3-6.3,2.3S300.41,61.27,298.91,59.67Z" transform="translate(-10.51 -2.31)"/></g><g class="a4c8d1db-35e9-4515-947f-3f5e163dbd84"><path class="b75b540f-8c95-4ec2-9cdb-f916b7f98300" d="M320.51,40.87h2.2V60h11.8v1.9h-14Z" transform="translate(-10.51 -2.31)"/></g><g class="a4c8d1db-35e9-4515-947f-3f5e163dbd84"><path class="b75b540f-8c95-4ec2-9cdb-f916b7f98300" d="M340.31,42.77h-7.4v-1.9h17v1.9h-7.4v19.1h-2.2Z" transform="translate(-10.51 -2.31)"/><path class="b75b540f-8c95-4ec2-9cdb-f916b7f98300" d="M353.51,40.87h2.2v21h-2.2Z" transform="translate(-10.51 -2.31)"/><path class="b75b540f-8c95-4ec2-9cdb-f916b7f98300" d="M380.11,40.87v21h-1.8l-13.5-17v17h-2.2v-21h1.8l13.5,17v-17Z" transform="translate(-10.51 -2.31)"/><path class="b75b540f-8c95-4ec2-9cdb-f916b7f98300" d="M401.71,51.37h2.1v8a10,10,0,0,1-3.5,2,12.34,12.34,0,0,1-4.2.7,12,12,0,0,1-5.7-1.4,10.44,10.44,0,0,1-4-3.8,10.25,10.25,0,0,1-1.4-5.5,11.52,11.52,0,0,1,1.4-5.5,9.18,9.18,0,0,1,4-3.8,12,12,0,0,1,5.7-1.4,12.31,12.31,0,0,1,4.4.8,8.92,8.92,0,0,1,3.4,2.3l-1.4,1.4a8.92,8.92,0,0,0-6.3-2.5,10.07,10.07,0,0,0-4.6,1.1,8,8,0,0,0-3.2,3.1,8.41,8.41,0,0,0-1.2,4.5,8.31,8.31,0,0,0,1.2,4.4,8,8,0,0,0,3.2,3.1,10.21,10.21,0,0,0,10.1-.5Z" transform="translate(-10.51 -2.31)"/></g><g class="a4c8d1db-35e9-4515-947f-3f5e163dbd84"><path class="b75b540f-8c95-4ec2-9cdb-f916b7f98300" d="M286.81,182.07h-3v-.8h6.9v.8h-3v7.8h-.9Z" transform="translate(-10.51 -2.31)"/></g><g class="a4c8d1db-35e9-4515-947f-3f5e163dbd84"><path class="b75b540f-8c95-4ec2-9cdb-f916b7f98300" d="M298.21,189.07v.8h-6.1v-8.6H298v.8h-5v3h4.4v.8H293v3.2Z" transform="translate(-10.51 -2.31)"/></g><g class="a4c8d1db-35e9-4515-947f-3f5e163dbd84"><path class="b75b540f-8c95-4ec2-9cdb-f916b7f98300" d="M301.71,189.27a4.1,4.1,0,0,1-1.6-1.6,4.28,4.28,0,0,1-.6-2.2,4,4,0,0,1,.6-2.2,4.1,4.1,0,0,1,1.6-1.6,4.65,4.65,0,0,1,2.3-.6,5.66,5.66,0,0,1,1.8.3,4.19,4.19,0,0,1,1.4.9l-.6.6a3.32,3.32,0,0,0-2.5-1,3.45,3.45,0,0,0-1.8.5,2.74,2.74,0,0,0-1.3,1.3,3.49,3.49,0,0,0,0,3.6,3.25,3.25,0,0,0,1.3,1.3,4.07,4.07,0,0,0,1.8.5,3.17,3.17,0,0,0,2.5-1l.6.6a3.39,3.39,0,0,1-1.4.9,4.84,4.84,0,0,1-1.8.3A4.38,4.38,0,0,1,301.71,189.27Z" transform="translate(-10.51 -2.31)"/><path class="b75b540f-8c95-4ec2-9cdb-f916b7f98300" d="M316.21,181.27v8.6h-.9v-4h-5.4v4H309v-8.6h.9v3.8h5.4v-3.8Z" transform="translate(-10.51 -2.31)"/><path class="b75b540f-8c95-4ec2-9cdb-f916b7f98300" d="M328.31,190l-1.2-1.2a3.7,3.7,0,0,1-2.9,1.2,3.65,3.65,0,0,1-1.5-.3,1.65,1.65,0,0,1-1-.8,2.1,2.1,0,0,1-.4-1.1,2.39,2.39,0,0,1,.5-1.4,6.68,6.68,0,0,1,1.7-1.3,3.32,3.32,0,0,1-.8-1.1,1.49,1.49,0,0,1-.2-.9,1.61,1.61,0,0,1,.6-1.3,2.54,2.54,0,0,1,1.6-.5,2.46,2.46,0,0,1,1.5.5,1.35,1.35,0,0,1,.5,1.2,1.5,1.5,0,0,1-.4,1.1,7.25,7.25,0,0,1-1.5,1.1l2.3,2.4a4.28,4.28,0,0,0,.6-1.7l.7.2a6,6,0,0,1-.8,2l1.2,1.3Zm-1.7-1.8-2.6-2.7a6.38,6.38,0,0,0-1.4,1,1.43,1.43,0,0,0-.4,1,1.25,1.25,0,0,0,.6,1.1,2.41,2.41,0,0,0,1.5.4A2.13,2.13,0,0,0,326.61,188.17Zm-2.9-6a1.23,1.23,0,0,0-.4.8,1.45,1.45,0,0,0,.2.7,5.06,5.06,0,0,0,.8.9c.6-.4,1-.7,1.3-.9a.91.91,0,0,0,.4-.8,1.14,1.14,0,0,0-.3-.8,1.22,1.22,0,0,0-.9-.3A1.93,1.93,0,0,0,323.71,182.17Z" transform="translate(-10.51 -2.31)"/><path class="b75b540f-8c95-4ec2-9cdb-f916b7f98300" d="M342.51,181.27v8.6h-.9v-6.8l-3.4,5.8h-.4l-3.4-5.7V190h-.9v-8.7h.7l3.7,6.3,3.7-6.3Z" transform="translate(-10.51 -2.31)"/><path class="b75b540f-8c95-4ec2-9cdb-f916b7f98300" d="M350.71,187.47h-4.8l-1,2.3h-1l3.9-8.6h.9l3.9,8.6h-1Zm-.4-.7-2.1-4.6-2.1,4.6Z" transform="translate(-10.51 -2.31)"/><path class="b75b540f-8c95-4ec2-9cdb-f916b7f98300" d="M361.21,181.27v8.6h-.7L355,183v6.9h-.9v-8.6h.7l5.5,6.9v-6.9Z" transform="translate(-10.51 -2.31)"/></g><g class="a4c8d1db-35e9-4515-947f-3f5e163dbd84"><path class="b75b540f-8c95-4ec2-9cdb-f916b7f98300" d="M369.41,187.47h-4.8l-1,2.3h-.9l3.9-8.6h.9l3.9,8.6h-1Zm-.4-.7-2.1-4.6-2.1,4.6Z" transform="translate(-10.51 -2.31)"/></g><g class="a4c8d1db-35e9-4515-947f-3f5e163dbd84"><path class="b75b540f-8c95-4ec2-9cdb-f916b7f98300" d="M378.71,185.57h.9v3.3a3.92,3.92,0,0,1-1.4.8,4.67,4.67,0,0,1-1.7.3,4.38,4.38,0,0,1-2.3-.6,4.1,4.1,0,0,1-1.6-1.6,4.28,4.28,0,0,1-.6-2.2,4,4,0,0,1,.6-2.2,4.1,4.1,0,0,1,1.6-1.6,4.65,4.65,0,0,1,2.3-.6,4.84,4.84,0,0,1,1.8.3,4.19,4.19,0,0,1,1.4.9l-.6.6a3.39,3.39,0,0,0-2.6-1,4.14,4.14,0,0,0-1.9.5,2.74,2.74,0,0,0-1.3,1.3,3.49,3.49,0,0,0,0,3.6,4,4,0,0,0,1.3,1.3,4.14,4.14,0,0,0,1.9.5,3.23,3.23,0,0,0,2.2-.7v-2.9Z" transform="translate(-10.51 -2.31)"/><path class="b75b540f-8c95-4ec2-9cdb-f916b7f98300" d="M388.21,189.07v.8h-6.1v-8.6H388v.8h-5v3h4.4v.8H383v3.2Z" transform="translate(-10.51 -2.31)"/><path class="b75b540f-8c95-4ec2-9cdb-f916b7f98300" d="M399.21,181.27v8.6h-.9v-6.8l-3.4,5.8h-.4l-3.4-5.7V190h-.9v-8.7h.7l3.7,6.3,3.7-6.3Z" transform="translate(-10.51 -2.31)"/><path class="b75b540f-8c95-4ec2-9cdb-f916b7f98300" d="M408,189.07v.8h-6.1v-8.6h5.9v.8h-5v3h4.4v.8h-4.3v3.2Z" transform="translate(-10.51 -2.31)"/><path class="b75b540f-8c95-4ec2-9cdb-f916b7f98300" d="M417.31,181.27v8.6h-.7l-5.5-6.9v6.9h-.9v-8.6h.7l5.5,6.9v-6.9Z" transform="translate(-10.51 -2.31)"/><path class="b75b540f-8c95-4ec2-9cdb-f916b7f98300" d="M421.81,182.07h-3v-.8h6.9v.8h-3v7.8h-.9Z" transform="translate(-10.51 -2.31)"/></g><g class="a4c8d1db-35e9-4515-947f-3f5e163dbd84"><path class="b75b540f-8c95-4ec2-9cdb-f916b7f98300" d="M390.51,122.07a4.15,4.15,0,0,1,.8,2.5,3.44,3.44,0,0,1-1.5,3,7.36,7.36,0,0,1-4.3,1.1h-7.1v-15.4H385a6.78,6.78,0,0,1,4,1,3.56,3.56,0,0,1,1.4,2.9,3.8,3.8,0,0,1-.6,2.2,3.71,3.71,0,0,1-1.7,1.3A5.66,5.66,0,0,1,390.51,122.07Zm-10.5-7.4v5.6h4.9a5,5,0,0,0,2.9-.7,2.71,2.71,0,0,0,0-4.2,4.79,4.79,0,0,0-2.9-.7Zm8.6,12a2.53,2.53,0,0,0,1.1-2.2c0-1.9-1.4-2.9-4.2-2.9h-5.4v5.8h5.4A5.48,5.48,0,0,0,388.61,126.67Z" transform="translate(-10.51 -2.31)"/><path class="b75b540f-8c95-4ec2-9cdb-f916b7f98300" d="M405.91,127.37v1.4H395v-15.4h10.6v1.4h-8.9v5.5h8v1.4h-8v5.7Z" transform="translate(-10.51 -2.31)"/><path class="b75b540f-8c95-4ec2-9cdb-f916b7f98300" d="M410.71,128.27a6.18,6.18,0,0,1-2.4-1.5l.6-1.3a6.92,6.92,0,0,0,2.2,1.4,9.29,9.29,0,0,0,2.9.5,5.22,5.22,0,0,0,3.1-.8,2.33,2.33,0,0,0,1-2,2,2,0,0,0-.6-1.5,3.22,3.22,0,0,0-1.4-.8,14.6,14.6,0,0,0-2.3-.6c-1.2-.3-2.1-.6-2.8-.8a5.67,5.67,0,0,1-1.8-1.2,3.17,3.17,0,0,1-.7-2.3,3.7,3.7,0,0,1,.6-2.1,4.24,4.24,0,0,1,1.9-1.5,7.62,7.62,0,0,1,3.2-.6,7.83,7.83,0,0,1,2.6.4,7.39,7.39,0,0,1,2.2,1l-.5,1.3a10.24,10.24,0,0,0-2.1-1,8.33,8.33,0,0,0-2.2-.3,4.89,4.89,0,0,0-3,.8,2.33,2.33,0,0,0-1,2,2,2,0,0,0,.6,1.5,3.39,3.39,0,0,0,1.4.9,18.39,18.39,0,0,0,2.3.6c1.1.3,2,.6,2.7.8a5.67,5.67,0,0,1,1.8,1.2,3.07,3.07,0,0,1,.7,2.2,3.7,3.7,0,0,1-.6,2.1,4.88,4.88,0,0,1-1.9,1.5,7.31,7.31,0,0,1-3.2.6A7.18,7.18,0,0,1,410.71,128.27Z" transform="translate(-10.51 -2.31)"/><path class="b75b540f-8c95-4ec2-9cdb-f916b7f98300" d="M433.61,114.77a4.78,4.78,0,0,1,1.7,3.9,4.92,4.92,0,0,1-1.7,3.9A7.21,7.21,0,0,1,429,124h-4.1v4.9h-1.6v-15.4h5.8A5.93,5.93,0,0,1,433.61,114.77Zm-1.1,6.7a3.49,3.49,0,0,0,1.2-2.8,3.7,3.7,0,0,0-1.2-2.9,5.22,5.22,0,0,0-3.5-1h-4.1v7.7H429A5.83,5.83,0,0,0,432.51,121.47Z" transform="translate(-10.51 -2.31)"/><path class="b75b540f-8c95-4ec2-9cdb-f916b7f98300" d="M441.61,127.87a7.79,7.79,0,0,1-2.9-2.8,8.5,8.5,0,0,1,0-8,7.79,7.79,0,0,1,2.9-2.8,8.9,8.9,0,0,1,8.2,0,7.77,7.77,0,0,1,0,13.6,8,8,0,0,1-4.1,1A8.3,8.3,0,0,1,441.61,127.87Zm7.5-1.3a5.66,5.66,0,0,0,2.3-2.3,6.22,6.22,0,0,0,.8-3.3,7.31,7.31,0,0,0-.8-3.3,6.34,6.34,0,0,0-2.3-2.3,6.22,6.22,0,0,0-3.3-.8,7.31,7.31,0,0,0-3.3.8,5.12,5.12,0,0,0-2.3,2.3,6.22,6.22,0,0,0-.8,3.3,7.31,7.31,0,0,0,.8,3.3,6.34,6.34,0,0,0,2.3,2.3,7.31,7.31,0,0,0,3.3.8A6.22,6.22,0,0,0,449.11,126.57Z" transform="translate(-10.51 -2.31)"/><path class="b75b540f-8c95-4ec2-9cdb-f916b7f98300" d="M462.31,121.47l-3.1,3.2v4h-1.6v-15.4h1.6v9.3l9-9.3h1.9l-6.7,7,7.1,8.4h-1.9Z" transform="translate(-10.51 -2.31)"/><path class="b75b540f-8c95-4ec2-9cdb-f916b7f98300" d="M484,127.37v1.4h-10.9v-15.4h10.6v1.4h-8.9v5.5h8v1.4h-8v5.7Z" transform="translate(-10.51 -2.31)"/></g><g class="a4c8d1db-35e9-4515-947f-3f5e163dbd84"><path class="b75b540f-8c95-4ec2-9cdb-f916b7f98300" d="M118.81,134.57v11.2h-1l-7.2-9.1v9.1h-1.2v-11.2h1l7.2,9.1v-9.1Z" transform="translate(-10.51 -2.31)"/><path class="b75b540f-8c95-4ec2-9cdb-f916b7f98300" d="M122.41,134.57h1.2v11.2h-1.2Z" transform="translate(-10.51 -2.31)"/><path class="b75b540f-8c95-4ec2-9cdb-f916b7f98300" d="M138.91,134.57v11.2h-1.1v-9l-4.4,7.5h-.6l-4.4-7.5v8.9h-1.1v-11.2h1l4.9,8.3,4.8-8.3h.9Z" transform="translate(-10.51 -2.31)"/><path class="b75b540f-8c95-4ec2-9cdb-f916b7f98300" d="M151.31,141a2.79,2.79,0,0,1,.6,1.8,2.53,2.53,0,0,1-1.1,2.2,5.45,5.45,0,0,1-3.1.8h-5.2v-11.2h4.8a5,5,0,0,1,2.9.8,2.39,2.39,0,0,1,1,2.1,3,3,0,0,1-.5,1.6,2.68,2.68,0,0,1-1.3,1A2.64,2.64,0,0,1,151.31,141Zm-7.6-5.4v4.1h3.6a4.06,4.06,0,0,0,2.1-.5,1.68,1.68,0,0,0,.7-1.5,1.58,1.58,0,0,0-.7-1.5,4.06,4.06,0,0,0-2.1-.5h-3.6Zm6.2,8.7a1.82,1.82,0,0,0,.8-1.6q0-2.1-3-2.1h-4v4.2h4A4.2,4.2,0,0,0,149.91,144.27Z" transform="translate(-10.51 -2.31)"/><path class="b75b540f-8c95-4ec2-9cdb-f916b7f98300" d="M154.61,134.57h1.2v10.2h6.3v1h-7.5Z" transform="translate(-10.51 -2.31)"/><path class="b75b540f-8c95-4ec2-9cdb-f916b7f98300" d="M171.91,144.77v1H164v-11.2h7.7v1h-6.5v4H171v1h-5.8v4.2Z" transform="translate(-10.51 -2.31)"/></g><path class="a4f202c5-05fa-4fcc-a9a7-ca0c791e8962" d="M147.42,318.55l-.07-41.36-20.12,35h-1.18l-20.19-34.87v41.23h-2.17V272.67h1.84l21.11,36.71,21-36.71h1.83l.07,45.88Z" transform="translate(-10.51 -2.31)"/><path class="a4f202c5-05fa-4fcc-a9a7-ca0c791e8962" d="M173.28,315.8a22,22,0,0,1-8.49-8.32,24.39,24.39,0,0,1,0-23.73,22,22,0,0,1,8.49-8.33,25.79,25.79,0,0,1,24.22,0,22.07,22.07,0,0,1,8.52,8.33,24.39,24.39,0,0,1,0,23.73,22.12,22.12,0,0,1-8.52,8.32,25.79,25.79,0,0,1-24.22,0Zm23-1.77a20.23,20.23,0,0,0,7.73-7.6,22.17,22.17,0,0,0,0-21.64,20.23,20.23,0,0,0-7.73-7.6,22,22,0,0,0-10.95-2.75,21.76,21.76,0,0,0-10.91,2.75,20.31,20.31,0,0,0-7.71,7.6,22.17,22.17,0,0,0,0,21.64,20.31,20.31,0,0,0,7.71,7.6,21.76,21.76,0,0,0,10.91,2.75A22,22,0,0,0,196.32,314Z" transform="translate(-10.51 -2.31)"/><path class="a4f202c5-05fa-4fcc-a9a7-ca0c791e8962" d="M255.12,298.72a10.9,10.9,0,0,1,2.75,7.77q0,5.89-4.2,9t-12.52,3.08H221.23V272.67h18.61q7.28,0,11.41,3a10.08,10.08,0,0,1,4.13,8.65,10.29,10.29,0,0,1-2.23,6.82A12,12,0,0,1,247,295Q252.36,295.8,255.12,298.72Zm-31.66-24.09V294.3h16.45q6.36,0,9.83-2.52a9.42,9.42,0,0,0,0-14.62q-3.48-2.52-9.83-2.53ZM252,314.1q3.6-2.49,3.6-7.67t-3.6-7.74q-3.61-2.49-10.75-2.49H223.46v20.39h17.83Q248.43,316.59,252,314.1Z" transform="translate(-10.51 -2.31)"/><path class="a4f202c5-05fa-4fcc-a9a7-ca0c791e8962" d="M270.39,272.67h2.23v45.88h-2.23Z" transform="translate(-10.51 -2.31)"/><path class="a4f202c5-05fa-4fcc-a9a7-ca0c791e8962" d="M289.4,272.67h2.23v43.85h26.88v2H289.4Z" transform="translate(-10.51 -2.31)"/><path class="a4f202c5-05fa-4fcc-a9a7-ca0c791e8962" d="M358.56,316.52v2h-31V272.67h30.09v2H329.78v19.53h24.91v2H329.78v20.25Z" transform="translate(-10.51 -2.31)"/><path class="a4f202c5-05fa-4fcc-a9a7-ca0c791e8962" d="M390.05,317.05a17.21,17.21,0,0,1-6.91-4.59l1.18-1.58a16.74,16.74,0,0,0,6.39,4.3,23,23,0,0,0,8.75,1.67q6.89,0,10.39-2.72a8.45,8.45,0,0,0,3.51-7,7.47,7.47,0,0,0-1.84-5.28,11.65,11.65,0,0,0-4.52-3,66.54,66.54,0,0,0-7.34-2.13,67.47,67.47,0,0,1-8-2.42,12.86,12.86,0,0,1-5.11-3.61,9.56,9.56,0,0,1-2.1-6.49,10.87,10.87,0,0,1,1.7-5.9,11.76,11.76,0,0,1,5.22-4.29,21,21,0,0,1,8.75-1.61,25.1,25.1,0,0,1,7.37,1.12,19.35,19.35,0,0,1,6.2,3.08l-1,1.77a20.06,20.06,0,0,0-6-3,22,22,0,0,0-6.52-1q-6.69,0-10.13,2.79a8.69,8.69,0,0,0-3.44,7,7.56,7.56,0,0,0,1.87,5.35,12.14,12.14,0,0,0,4.59,3,60.26,60.26,0,0,0,7.31,2.17,74.54,74.54,0,0,1,8,2.39,12.56,12.56,0,0,1,5.08,3.54,9.49,9.49,0,0,1,2.06,6.39,10.64,10.64,0,0,1-1.74,5.9,11.67,11.67,0,0,1-5.34,4.26,22.24,22.24,0,0,1-8.91,1.58A25.67,25.67,0,0,1,390.05,317.05Z" transform="translate(-10.51 -2.31)"/><path class="a4f202c5-05fa-4fcc-a9a7-ca0c791e8962" d="M427.52,272.67h2.23v45.88h-2.23Z" transform="translate(-10.51 -2.31)"/><path class="a4f202c5-05fa-4fcc-a9a7-ca0c791e8962" d="M455.25,274.7H438.4v-2h35.85v2H457.41v43.85h-2.16Z" transform="translate(-10.51 -2.31)"/><path class="a4f202c5-05fa-4fcc-a9a7-ca0c791e8962" d="M513.91,316.52v2h-31V272.67H513v2H485.14v19.53h24.91v2H485.14v20.25Z" transform="translate(-10.51 -2.31)"/><path class="a4f202c5-05fa-4fcc-a9a7-ca0c791e8962" d="M178.88,394.46a22.11,22.11,0,0,1-8.49-8.32,24.39,24.39,0,0,1,0-23.73,22.13,22.13,0,0,1,8.49-8.33,24.42,24.42,0,0,1,12.09-3,25,25,0,0,1,8.85,1.54,18.89,18.89,0,0,1,7.08,4.55l-1.37,1.44A20,20,0,0,0,191,353.1a21.9,21.9,0,0,0-10.95,2.78,20.54,20.54,0,0,0-7.73,7.64,21.9,21.9,0,0,0,0,21.5,20.47,20.47,0,0,0,7.73,7.64A21.81,21.81,0,0,0,191,395.45a20,20,0,0,0,14.49-5.58l1.37,1.45a19.43,19.43,0,0,1-7,4.58,25.75,25.75,0,0,1-21-1.44Z" transform="translate(-10.51 -2.31)"/><path class="a4f202c5-05fa-4fcc-a9a7-ca0c791e8962" d="M224.64,394.46a22,22,0,0,1-8.49-8.32,24.39,24.39,0,0,1,0-23.73,22,22,0,0,1,8.49-8.33,25.87,25.87,0,0,1,24.22,0,22.07,22.07,0,0,1,8.52,8.33,24.39,24.39,0,0,1,0,23.73,22,22,0,0,1-8.52,8.32,25.79,25.79,0,0,1-24.22,0Zm23-1.77a20.16,20.16,0,0,0,7.73-7.6,22.15,22.15,0,0,0,0-21.63,20.18,20.18,0,0,0-7.73-7.61,22.09,22.09,0,0,0-11-2.75,21.86,21.86,0,0,0-10.91,2.75,20.27,20.27,0,0,0-7.71,7.61,22.15,22.15,0,0,0,0,21.63,20.24,20.24,0,0,0,7.71,7.6,21.76,21.76,0,0,0,10.91,2.76A22,22,0,0,0,247.68,392.69Z" transform="translate(-10.51 -2.31)"/><path class="a4f202c5-05fa-4fcc-a9a7-ca0c791e8962" d="M316.31,397.22l-.07-41.37-20.12,35h-1.18L274.75,356v41.24h-2.16V351.33h1.83L295.53,388l21-36.71h1.84l.06,45.89Z" transform="translate(-10.51 -2.31)"/><path class="a4f202c5-05fa-4fcc-a9a7-ca0c791e8962" d="M335.25,351.33h2.23v45.89h-2.23Z" transform="translate(-10.51 -2.31)"/><path class="a4f202c5-05fa-4fcc-a9a7-ca0c791e8962" d="M390.91,351.33v45.89h-1.84l-32.58-41.83v41.83h-2.23V351.33h1.84l32.58,41.82V351.33Z" transform="translate(-10.51 -2.31)"/><path class="a4f202c5-05fa-4fcc-a9a7-ca0c791e8962" d="M440.86,374.6H443v17a20.16,20.16,0,0,1-7.17,4.39,25.82,25.82,0,0,1-8.89,1.51,24.73,24.73,0,0,1-12.19-3,22.13,22.13,0,0,1-8.55-8.32,24.12,24.12,0,0,1,0-23.73,22.15,22.15,0,0,1,8.55-8.33,24.72,24.72,0,0,1,12.19-3,26.32,26.32,0,0,1,9.05,1.5A18.88,18.88,0,0,1,443,357.1l-1.31,1.5q-5.7-5.5-14.75-5.5a22.32,22.32,0,0,0-11.11,2.78,20.44,20.44,0,0,0-7.77,7.64,21.9,21.9,0,0,0,0,21.5,20.37,20.37,0,0,0,7.77,7.64A22.22,22.22,0,0,0,427,395.45q8.58,0,13.9-4.79Z" transform="translate(-10.51 -2.31)"/><path class="a4f202c5-05fa-4fcc-a9a7-ca0c791e8962" d="M207.89,474.37a17.25,17.25,0,0,1-6.92-4.59l1.18-1.57a16.61,16.61,0,0,0,6.39,4.29,22.83,22.83,0,0,0,8.75,1.67q6.89,0,10.39-2.72a8.45,8.45,0,0,0,3.51-7,7.5,7.5,0,0,0-1.83-5.27,11.65,11.65,0,0,0-4.53-3,62.4,62.4,0,0,0-7.34-2.13,67.23,67.23,0,0,1-8-2.43,12.74,12.74,0,0,1-5.11-3.6,9.58,9.58,0,0,1-2.1-6.49,10.77,10.77,0,0,1,1.71-5.9,11.68,11.68,0,0,1,5.21-4.29,21,21,0,0,1,8.75-1.61,25.09,25.09,0,0,1,7.37,1.11,19.36,19.36,0,0,1,6.2,3.09l-1,1.77a20.08,20.08,0,0,0-6-3,22.4,22.4,0,0,0-6.53-1q-6.67,0-10.12,2.78a8.68,8.68,0,0,0-3.44,7,7.52,7.52,0,0,0,1.86,5.34,12.16,12.16,0,0,0,4.59,3.05,61.07,61.07,0,0,0,7.31,2.16,72,72,0,0,1,8,2.4,12.37,12.37,0,0,1,5.08,3.54,9.4,9.4,0,0,1,2.06,6.39,10.71,10.71,0,0,1-1.73,5.9,11.7,11.7,0,0,1-5.35,4.26,22.25,22.25,0,0,1-8.91,1.57A25.57,25.57,0,0,1,207.89,474.37Z" transform="translate(-10.51 -2.31)"/><path class="a4f202c5-05fa-4fcc-a9a7-ca0c791e8962" d="M252.27,473.13a22,22,0,0,1-8.49-8.33,24.39,24.39,0,0,1,0-23.73,22,22,0,0,1,8.49-8.32,25.79,25.79,0,0,1,24.22,0,22,22,0,0,1,8.52,8.32,24.39,24.39,0,0,1,0,23.73,22.07,22.07,0,0,1-8.52,8.33,25.87,25.87,0,0,1-24.22,0Zm23-1.77a20.25,20.25,0,0,0,7.73-7.61,22.15,22.15,0,0,0,0-21.63,20.23,20.23,0,0,0-7.73-7.6,22,22,0,0,0-10.95-2.76,21.76,21.76,0,0,0-10.91,2.76,20.24,20.24,0,0,0-7.71,7.6,22.15,22.15,0,0,0,0,21.63,20.27,20.27,0,0,0,7.71,7.61,21.86,21.86,0,0,0,10.91,2.75A22.09,22.09,0,0,0,275.31,471.36Z" transform="translate(-10.51 -2.31)"/><path class="a4f202c5-05fa-4fcc-a9a7-ca0c791e8962" d="M307.13,473.13a22.13,22.13,0,0,1-8.49-8.33,24.39,24.39,0,0,1,0-23.73,22.11,22.11,0,0,1,8.49-8.32,25.79,25.79,0,0,1,24.22,0,22,22,0,0,1,8.53,8.32,24.39,24.39,0,0,1,0,23.73,22,22,0,0,1-8.53,8.33,25.87,25.87,0,0,1-24.22,0Zm23-1.77a20.21,20.21,0,0,0,7.74-7.61,22.15,22.15,0,0,0,0-21.63,20.18,20.18,0,0,0-7.74-7.6,23,23,0,0,0-21.86,0,20.29,20.29,0,0,0-7.7,7.6,22.15,22.15,0,0,0,0,21.63,20.31,20.31,0,0,0,7.7,7.61,23.1,23.1,0,0,0,21.86,0Z" transform="translate(-10.51 -2.31)"/><path class="a4f202c5-05fa-4fcc-a9a7-ca0c791e8962" d="M391.73,430v45.89h-1.84l-32.58-41.82v41.82h-2.23V430h1.84l32.58,41.82V430Z" transform="translate(-10.51 -2.31)"/><path class="a4f202c5-05fa-4fcc-a9a7-ca0c791e8962" d="M406.7,475.45a2,2,0,0,1-.62-1.47,2.1,2.1,0,0,1,.62-1.54,2,2,0,0,1,1.48-.63,2.13,2.13,0,0,1,2.16,2.17,2,2,0,0,1-.62,1.47,2.09,2.09,0,0,1-1.54.63A2,2,0,0,1,406.7,475.45ZM407,430h2.42L409,463.16h-1.64Z" transform="translate(-10.51 -2.31)"/><path class="a4f202c5-05fa-4fcc-a9a7-ca0c791e8962" d="M87.69,581.37a34.54,34.54,0,0,1,0-15.45,22.29,22.29,0,0,1,2.51-6.29h.93q-3.33,5.61-3.33,14t3.33,14h-.93A22.83,22.83,0,0,1,87.69,581.37Z" transform="translate(-10.51 -2.31)"/><path class="a4f202c5-05fa-4fcc-a9a7-ca0c791e8962" d="M97.59,561.82v9.6H109v.9H97.59v9.57h-1v-21h13.77v.93Z" transform="translate(-10.51 -2.31)"/><path class="a4f202c5-05fa-4fcc-a9a7-ca0c791e8962" d="M116.35,581a7.12,7.12,0,0,1-2.74-2.81,8.9,8.9,0,0,1,0-8.16,7.1,7.1,0,0,1,2.74-2.8,8.13,8.13,0,0,1,7.85,0,7.14,7.14,0,0,1,2.73,2.8,8.9,8.9,0,0,1,0,8.16A7.16,7.16,0,0,1,124.2,581a8.2,8.2,0,0,1-7.85,0Zm7.32-.78a6.34,6.34,0,0,0,2.39-2.48,7.44,7.44,0,0,0,.87-3.63,7.33,7.33,0,0,0-.87-3.61,6.35,6.35,0,0,0-2.39-2.46,7,7,0,0,0-6.81,0,6.33,6.33,0,0,0-2.38,2.46,7.33,7.33,0,0,0-.87,3.61,7.44,7.44,0,0,0,.87,3.63,6.31,6.31,0,0,0,2.38,2.48,7,7,0,0,0,6.81,0Z" transform="translate(-10.51 -2.31)"/><path class="a4f202c5-05fa-4fcc-a9a7-ca0c791e8962" d="M136,567.21a6.89,6.89,0,0,1,3.83-1v1h-.27a5.38,5.38,0,0,0-4.23,1.71,6.81,6.81,0,0,0-1.53,4.71v8.28h-1V566.32h1v3.75A5.63,5.63,0,0,1,136,567.21Z" transform="translate(-10.51 -2.31)"/><path class="a4f202c5-05fa-4fcc-a9a7-ca0c791e8962" d="M164,567.9a6.58,6.58,0,0,1,1.69,4.84v9.15h-1V572.8a5.89,5.89,0,0,0-1.4-4.22,5.3,5.3,0,0,0-4-1.45,6.09,6.09,0,0,0-4.58,1.73,6.31,6.31,0,0,0-1.68,4.63v8.4h-1V566.32h1v3.81a6,6,0,0,1,2.41-2.88,7.28,7.28,0,0,1,4-1A6.16,6.16,0,0,1,164,567.9Z" transform="translate(-10.51 -2.31)"/><path class="a4f202c5-05fa-4fcc-a9a7-ca0c791e8962" d="M174.13,581a7.15,7.15,0,0,1-2.75-2.81,8.9,8.9,0,0,1,0-8.16,7.12,7.12,0,0,1,2.75-2.8,8.11,8.11,0,0,1,7.84,0,7.23,7.23,0,0,1,2.74,2.8,8.9,8.9,0,0,1,0,8.16A7.26,7.26,0,0,1,182,581a8.18,8.18,0,0,1-7.84,0Zm7.32-.78a6.31,6.31,0,0,0,2.38-2.48,7.33,7.33,0,0,0,.88-3.63,7.23,7.23,0,0,0-.88-3.61,6.33,6.33,0,0,0-2.38-2.46,7,7,0,0,0-6.81,0,6.35,6.35,0,0,0-2.39,2.46,7.33,7.33,0,0,0-.87,3.61,7.44,7.44,0,0,0,.87,3.63,6.34,6.34,0,0,0,2.39,2.48,7,7,0,0,0,6.81,0Z" transform="translate(-10.51 -2.31)"/><path class="a4f202c5-05fa-4fcc-a9a7-ca0c791e8962" d="M211.92,566.32,206,581.89H205l-5.52-14.25L194,581.89h-.87l-6-15.57h1l5.43,14.43,5.55-14.43h.9l5.53,14.43L211,566.32Z" transform="translate(-10.51 -2.31)"/><path class="a4f202c5-05fa-4fcc-a9a7-ca0c791e8962" d="M214.75,580.3a1,1,0,0,1,.28.69,2.55,2.55,0,0,1-.07.59c-.05.21-.09.38-.11.52l-1.08,4H213l.93-4.14a1,1,0,0,1-.63-.33A1,1,0,0,1,214,580,.94.94,0,0,1,214.75,580.3Z" transform="translate(-10.51 -2.31)"/><path class="a4f202c5-05fa-4fcc-a9a7-ca0c791e8962" d="M241.13,566.32v15.57h-1v-3.78a5.82,5.82,0,0,1-2.31,2.85,6.85,6.85,0,0,1-3.78,1,5.9,5.9,0,0,1-6.45-6.51v-9.15h1v9.09a5.75,5.75,0,0,0,1.43,4.21,5.38,5.38,0,0,0,4.06,1.46,5.75,5.75,0,0,0,4.41-1.72,6.51,6.51,0,0,0,1.62-4.64v-8.4Z" transform="translate(-10.51 -2.31)"/><path class="a4f202c5-05fa-4fcc-a9a7-ca0c791e8962" d="M248,581.41a6.68,6.68,0,0,1-2.6-1.5l.48-.78a8,8,0,0,0,2.48,1.41,9.05,9.05,0,0,0,3.22.57,6.47,6.47,0,0,0,3.72-.85,2.77,2.77,0,0,0,1.2-2.39,2.28,2.28,0,0,0-.64-1.71,4,4,0,0,0-1.61-.93,23.14,23.14,0,0,0-2.58-.6,24.29,24.29,0,0,1-3-.73,4.52,4.52,0,0,1-1.91-1.22,3.31,3.31,0,0,1-.78-2.34,3.66,3.66,0,0,1,1.46-3,6.57,6.57,0,0,1,4.24-1.19,9.92,9.92,0,0,1,2.88.44,6.91,6.91,0,0,1,2.34,1.15l-.51.78a6.61,6.61,0,0,0-2.17-1.09,8.88,8.88,0,0,0-2.57-.38,5.72,5.72,0,0,0-3.48.89,2.77,2.77,0,0,0-1.17,2.32,2.43,2.43,0,0,0,.66,1.8,3.92,3.92,0,0,0,1.64,1,23.9,23.9,0,0,0,2.65.65,21.41,21.41,0,0,1,2.91.71,4.53,4.53,0,0,1,1.88,1.18,3.14,3.14,0,0,1,.76,2.25,3.52,3.52,0,0,1-1.53,3,7.44,7.44,0,0,1-4.41,1.11A10.87,10.87,0,0,1,248,581.41Z" transform="translate(-10.51 -2.31)"/><path class="a4f202c5-05fa-4fcc-a9a7-ca0c791e8962" d="M274.73,574.24H261.08a7.18,7.18,0,0,0,.93,3.54,6.37,6.37,0,0,0,2.48,2.43,7.15,7.15,0,0,0,3.52.87,7.31,7.31,0,0,0,2.94-.58,5.5,5.5,0,0,0,2.22-1.73l.63.66a7,7,0,0,1-2.55,1.89A8,8,0,0,1,268,582a8.12,8.12,0,0,1-4.06-1,7.3,7.3,0,0,1-2.81-2.81,8.13,8.13,0,0,1-1-4.08,8.65,8.65,0,0,1,.95-4.08,6.94,6.94,0,0,1,2.62-2.8,7.46,7.46,0,0,1,7.46,0,7,7,0,0,1,2.62,2.76,8.3,8.3,0,0,1,1,4Zm-10.44-6.33a6.05,6.05,0,0,0-2.25,2.27,7.1,7.1,0,0,0-.93,3.25H273.8a7.26,7.26,0,0,0-1-3.25,6.34,6.34,0,0,0-8.54-2.27Z" transform="translate(-10.51 -2.31)"/><path class="a4f202c5-05fa-4fcc-a9a7-ca0c791e8962" d="M300.74,559.63v22.26h-1v-4.26a7,7,0,0,1-2.65,3.2,7.33,7.33,0,0,1-4.07,1.15,7.59,7.59,0,0,1-3.87-1,7.26,7.26,0,0,1-2.74-2.81,8.75,8.75,0,0,1,0-8.16,7.23,7.23,0,0,1,2.74-2.8,7.6,7.6,0,0,1,3.87-1,7.35,7.35,0,0,1,4,1.14,6.88,6.88,0,0,1,2.65,3.15V559.63ZM296.5,580.2a6.31,6.31,0,0,0,2.38-2.48,7.44,7.44,0,0,0,.87-3.63,7.33,7.33,0,0,0-.87-3.61A6.33,6.33,0,0,0,296.5,568a7,7,0,0,0-6.81,0,6.35,6.35,0,0,0-2.39,2.46,7.33,7.33,0,0,0-.87,3.61,7.44,7.44,0,0,0,.87,3.63,6.34,6.34,0,0,0,2.39,2.48,7,7,0,0,0,6.81,0Z" transform="translate(-10.51 -2.31)"/><path class="a4f202c5-05fa-4fcc-a9a7-ca0c791e8962" d="M320.24,574.24H306.59a7.18,7.18,0,0,0,.93,3.54,6.37,6.37,0,0,0,2.48,2.43,7.15,7.15,0,0,0,3.52.87,7.31,7.31,0,0,0,2.94-.58,5.5,5.5,0,0,0,2.22-1.73l.63.66a7,7,0,0,1-2.55,1.89,8,8,0,0,1-3.24.66,8.12,8.12,0,0,1-4.06-1,7.3,7.3,0,0,1-2.81-2.81,8.13,8.13,0,0,1-1-4.08,8.65,8.65,0,0,1,.95-4.08,6.94,6.94,0,0,1,2.62-2.8,7.46,7.46,0,0,1,7.46,0,7,7,0,0,1,2.62,2.76,8.3,8.3,0,0,1,1,4Zm-10.44-6.33a6.05,6.05,0,0,0-2.25,2.27,7.1,7.1,0,0,0-.93,3.25h12.69a7.26,7.26,0,0,0-1-3.25,6.34,6.34,0,0,0-8.54-2.27Z" transform="translate(-10.51 -2.31)"/><path class="a4f202c5-05fa-4fcc-a9a7-ca0c791e8962" d="M325.33,581.41a6.68,6.68,0,0,1-2.6-1.5l.48-.78a8,8,0,0,0,2.48,1.41,9.05,9.05,0,0,0,3.22.57,6.47,6.47,0,0,0,3.72-.85,2.77,2.77,0,0,0,1.2-2.39,2.28,2.28,0,0,0-.64-1.71,4,4,0,0,0-1.61-.93,23.14,23.14,0,0,0-2.58-.6,24.29,24.29,0,0,1-3-.73,4.52,4.52,0,0,1-1.91-1.22,3.31,3.31,0,0,1-.78-2.34,3.66,3.66,0,0,1,1.46-3A6.57,6.57,0,0,1,329,566.2a9.92,9.92,0,0,1,2.88.44,6.91,6.91,0,0,1,2.34,1.15l-.51.78a6.61,6.61,0,0,0-2.17-1.09,8.88,8.88,0,0,0-2.57-.38,5.72,5.72,0,0,0-3.48.89,2.77,2.77,0,0,0-1.17,2.32,2.43,2.43,0,0,0,.66,1.8,3.92,3.92,0,0,0,1.64,1,23.9,23.9,0,0,0,2.65.65,21.41,21.41,0,0,1,2.91.71,4.53,4.53,0,0,1,1.88,1.18,3.14,3.14,0,0,1,.76,2.25,3.52,3.52,0,0,1-1.53,3,7.44,7.44,0,0,1-4.41,1.11A10.87,10.87,0,0,1,325.33,581.41Z" transform="translate(-10.51 -2.31)"/><path class="a4f202c5-05fa-4fcc-a9a7-ca0c791e8962" d="M344.57,573.16l-4.35,4v4.74h-1V559.63h1V576l10.56-9.63h1.32l-6.75,6.24,7.44,9.33h-1.26Z" transform="translate(-10.51 -2.31)"/><path class="a4f202c5-05fa-4fcc-a9a7-ca0c791e8962" d="M363.92,580.9a3.72,3.72,0,0,1-1.38.8,5.37,5.37,0,0,1-1.74.28,3.88,3.88,0,0,1-2.92-1.06,4,4,0,0,1-1-2.93v-10.8H353.9v-.87h2.94V562.9h1v3.42H363v.87h-5.13v10.65a3.45,3.45,0,0,0,.78,2.43,3,3,0,0,0,2.28.84,3.6,3.6,0,0,0,2.52-.93Z" transform="translate(-10.51 -2.31)"/><path class="a4f202c5-05fa-4fcc-a9a7-ca0c791e8962" d="M369.7,581a7.15,7.15,0,0,1-2.75-2.81,8.9,8.9,0,0,1,0-8.16,7.12,7.12,0,0,1,2.75-2.8,8.11,8.11,0,0,1,7.84,0,7.14,7.14,0,0,1,2.73,2.8,8.9,8.9,0,0,1,0,8.16,7.16,7.16,0,0,1-2.73,2.81,8.18,8.18,0,0,1-7.84,0Zm7.32-.78a6.31,6.31,0,0,0,2.38-2.48,7.44,7.44,0,0,0,.87-3.63,7.33,7.33,0,0,0-.87-3.61A6.33,6.33,0,0,0,377,568a6.67,6.67,0,0,0-3.41-.89,6.58,6.58,0,0,0-3.4.89,6.35,6.35,0,0,0-2.39,2.46,7.33,7.33,0,0,0-.87,3.61,7.44,7.44,0,0,0,.87,3.63,6.34,6.34,0,0,0,2.39,2.48,6.58,6.58,0,0,0,3.4.88A6.67,6.67,0,0,0,377,580.2Z" transform="translate(-10.51 -2.31)"/><path class="a4f202c5-05fa-4fcc-a9a7-ca0c791e8962" d="M397.7,567.21a7.24,7.24,0,0,1,2.75,2.82,8.29,8.29,0,0,1,1,4.09,8.16,8.16,0,0,1-1,4.07A7.3,7.3,0,0,1,397.7,581a7.59,7.59,0,0,1-3.87,1,7.38,7.38,0,0,1-4-1.14,7,7,0,0,1-2.65-3.12v10h-1V566.32h1v4.26a7.06,7.06,0,0,1,2.66-3.21,7.23,7.23,0,0,1,4.06-1.17A7.6,7.6,0,0,1,397.7,567.21Zm-.49,13a6.4,6.4,0,0,0,2.38-2.46,8,8,0,0,0,0-7.25,6.36,6.36,0,0,0-2.38-2.47,7,7,0,0,0-6.81,0,6.24,6.24,0,0,0-2.39,2.47,8,8,0,0,0,0,7.25,6.28,6.28,0,0,0,2.39,2.46,7,7,0,0,0,6.81,0Z" transform="translate(-10.51 -2.31)"/><path class="a4f202c5-05fa-4fcc-a9a7-ca0c791e8962" d="M426,566.32l-7.11,15.57h-1l-7.11-15.57h1.08l6.54,14.46,6.54-14.46Z" transform="translate(-10.51 -2.31)"/><path class="a4f202c5-05fa-4fcc-a9a7-ca0c791e8962" d="M441.83,574.24H428.18a7.18,7.18,0,0,0,.93,3.54,6.34,6.34,0,0,0,2.47,2.43,7.19,7.19,0,0,0,3.53.87,7.31,7.31,0,0,0,2.94-.58,5.5,5.5,0,0,0,2.22-1.73l.63.66a7,7,0,0,1-2.55,1.89,8,8,0,0,1-3.24.66,8.16,8.16,0,0,1-4.07-1,7.27,7.27,0,0,1-2.8-2.81,8.13,8.13,0,0,1-1-4.08,8.64,8.64,0,0,1,.94-4.08,7,7,0,0,1,2.63-2.8,7.17,7.17,0,0,1,3.75-1,7.06,7.06,0,0,1,6.33,3.75,8.3,8.3,0,0,1,1,4Zm-10.44-6.33a6.05,6.05,0,0,0-2.25,2.27,7.1,7.1,0,0,0-.93,3.25H440.9a7.27,7.27,0,0,0-1-3.25,6.2,6.2,0,0,0-2.25-2.27,6.11,6.11,0,0,0-3.13-.81A6.21,6.21,0,0,0,431.39,567.91Z" transform="translate(-10.51 -2.31)"/><path class="a4f202c5-05fa-4fcc-a9a7-ca0c791e8962" d="M449.91,567.21a6.89,6.89,0,0,1,3.83-1v1h-.27a5.38,5.38,0,0,0-4.23,1.71,6.81,6.81,0,0,0-1.53,4.71v8.28h-1V566.32h1v3.75A5.63,5.63,0,0,1,449.91,567.21Z" transform="translate(-10.51 -2.31)"/><path class="a4f202c5-05fa-4fcc-a9a7-ca0c791e8962" d="M458.4,581.41a6.64,6.64,0,0,1-2.59-1.5l.48-.78a8,8,0,0,0,2.47,1.41,9.11,9.11,0,0,0,3.23.57,6.47,6.47,0,0,0,3.72-.85,2.77,2.77,0,0,0,1.2-2.39,2.28,2.28,0,0,0-.65-1.71,3.91,3.91,0,0,0-1.6-.93,23.14,23.14,0,0,0-2.58-.6,24.51,24.51,0,0,1-3-.73,4.48,4.48,0,0,1-1.9-1.22,3.31,3.31,0,0,1-.78-2.34,3.65,3.65,0,0,1,1.45-3,6.6,6.6,0,0,1,4.25-1.19,9.92,9.92,0,0,1,2.88.44,6.91,6.91,0,0,1,2.34,1.15l-.51.78a6.66,6.66,0,0,0-2.18-1.09,8.82,8.82,0,0,0-2.56-.38,5.72,5.72,0,0,0-3.48.89,2.77,2.77,0,0,0-1.17,2.32,2.43,2.43,0,0,0,.66,1.8,3.88,3.88,0,0,0,1.63,1,24.17,24.17,0,0,0,2.66.65,21.41,21.41,0,0,1,2.91.71,4.5,4.5,0,0,1,1.87,1.18,3.15,3.15,0,0,1,.77,2.25,3.52,3.52,0,0,1-1.53,3A7.44,7.44,0,0,1,462,582,10.93,10.93,0,0,1,458.4,581.41Z" transform="translate(-10.51 -2.31)"/><path class="a4f202c5-05fa-4fcc-a9a7-ca0c791e8962" d="M472.1,562a.91.91,0,0,1-.3-.68.94.94,0,0,1,.28-.7,1,1,0,0,1,1.4,0,.89.89,0,0,1,.3.67,1,1,0,0,1-1,1A1,1,0,0,1,472.1,562Zm.21,4.36h1v15.57h-1Z" transform="translate(-10.51 -2.31)"/><path class="a4f202c5-05fa-4fcc-a9a7-ca0c791e8962" d="M481.92,581a7.12,7.12,0,0,1-2.74-2.81,8.9,8.9,0,0,1,0-8.16,7.1,7.1,0,0,1,2.74-2.8,8.13,8.13,0,0,1,7.85,0,7.14,7.14,0,0,1,2.73,2.8,8.9,8.9,0,0,1,0,8.16,7.16,7.16,0,0,1-2.73,2.81,8.2,8.2,0,0,1-7.85,0Zm7.32-.78a6.34,6.34,0,0,0,2.39-2.48,7.44,7.44,0,0,0,.87-3.63,7.33,7.33,0,0,0-.87-3.61,6.35,6.35,0,0,0-2.39-2.46,7,7,0,0,0-6.81,0,6.33,6.33,0,0,0-2.38,2.46,7.33,7.33,0,0,0-.87,3.61,7.44,7.44,0,0,0,.87,3.63,6.31,6.31,0,0,0,2.38,2.48,7,7,0,0,0,6.81,0Z" transform="translate(-10.51 -2.31)"/><path class="a4f202c5-05fa-4fcc-a9a7-ca0c791e8962" d="M510.32,567.9a6.58,6.58,0,0,1,1.68,4.84v9.15h-1V572.8a5.89,5.89,0,0,0-1.4-4.22,5.27,5.27,0,0,0-4-1.45,6.11,6.11,0,0,0-4.59,1.73,6.35,6.35,0,0,0-1.68,4.63v8.4h-1V566.32h1v3.81a6,6,0,0,1,2.41-2.88,7.32,7.32,0,0,1,4-1A6.17,6.17,0,0,1,510.32,567.9Z" transform="translate(-10.51 -2.31)"/><path class="a4f202c5-05fa-4fcc-a9a7-ca0c791e8962" d="M517.29,581.7A1,1,0,0,1,517,581a.92.92,0,0,1,.3-.7A1,1,0,0,1,518,580a1,1,0,0,1,1,1,1,1,0,0,1-.29.71.94.94,0,0,1-.7.28A1,1,0,0,1,517.29,581.7Z" transform="translate(-10.51 -2.31)"/><path class="a4f202c5-05fa-4fcc-a9a7-ca0c791e8962" d="M522.47,587.71q3.33-5.7,3.33-14t-3.33-14h.93a22,22,0,0,1,2.49,6.29,34.86,34.86,0,0,1,0,15.48,22.84,22.84,0,0,1-2.49,6.31Z" transform="translate(-10.51 -2.31)"/></svg>