<svg id="fea93bfe-57c5-49f4-a1e2-d56c67b3c3c1" data-name="ad177dd7-6619-4fe0-b9c0-b3ebe764d2ac" xmlns="http://www.w3.org/2000/svg" viewBox="0 0 530.29 270.43"><defs><style>.a2b4005a-10a6-496d-92a9-459e88231758,.a36387c4-3c53-45ab-a400-82312b1466ce,.bf5a4d85-2438-4732-bcaa-ec1eac909666,.e50d2b10-7a30-44f8-bfde-a9547b1ebc34{fill:#c2b196;}.a2b4005a-10a6-496d-92a9-459e88231758,.bf5a4d85-2438-4732-bcaa-ec1eac909666,.e50d2b10-7a30-44f8-bfde-a9547b1ebc34{isolation:isolate;}.bf5a4d85-2438-4732-bcaa-ec1eac909666{opacity:0.05;}.a2b4005a-10a6-496d-92a9-459e88231758{opacity:0.2;}.e50d2b10-7a30-44f8-bfde-a9547b1ebc34{opacity:0.25;}</style></defs><rect class="bf5a4d85-2438-4732-bcaa-ec1eac909666" x="150.18" y="19.67" width="188.62" height="127.31"/><rect class="a2b4005a-10a6-496d-92a9-459e88231758" y="82.31" width="153.78" height="76.98"/><rect class="e50d2b10-7a30-44f8-bfde-a9547b1ebc34" x="427.21" y="90.68" width="103.09" height="43.49"/><rect class="a2b4005a-10a6-496d-92a9-459e88231758" x="361.89" y="237.57" width="87.06" height="32.86"/><path class="a36387c4-3c53-45ab-a400-82312b1466ce" d="M79.49,168.37H69l-2.26,5H64.63l8.65-18.91h2l8.64,18.91H81.83Zm-.72-1.62-4.5-10.17-4.5,10.17Z" transform="translate(-30.15 -20.02)"/><path class="a36387c4-3c53-45ab-a400-82312b1466ce" d="M88.49,171.53a8.56,8.56,0,0,1-2.07-6.13V154.6h2v10.71a7.27,7.27,0,0,0,1.44,5,6.58,6.58,0,0,0,8.65,0c1-1.09,1.44-2.71,1.44-5V154.6h2v10.8a8.56,8.56,0,0,1-2.07,6.13,7.35,7.35,0,0,1-5.68,2.07A7.64,7.64,0,0,1,88.49,171.53Z" transform="translate(-30.15 -20.02)"/><path class="a36387c4-3c53-45ab-a400-82312b1466ce" d="M120.9,173.51l-4.32-6.13a7.82,7.82,0,0,1-1.53.09h-5v6h-2V154.6h7.11a8.36,8.36,0,0,1,5.67,1.71,5.94,5.94,0,0,1,2.08,4.77,6.74,6.74,0,0,1-1.08,3.78,6.06,6.06,0,0,1-3.25,2.16l4.6,6.49Zm-1.53-9a4.23,4.23,0,0,0,1.44-3.51,4.45,4.45,0,0,0-1.44-3.51,6.66,6.66,0,0,0-4.32-1.26h-5v9.52h5A6.19,6.19,0,0,0,119.37,164.5Z" transform="translate(-30.15 -20.02)"/><path class="a36387c4-3c53-45ab-a400-82312b1466ce" d="M127.57,154.6h2v18.91h-2Z" transform="translate(-30.15 -20.02)"/><path class="a36387c4-3c53-45ab-a400-82312b1466ce" d="M151.52,154.6v18.91H149.9L137.74,158.2v15.31h-2V154.6h1.62l12.16,15.31V154.6Z" transform="translate(-30.15 -20.02)"/><path class="a36387c4-3c53-45ab-a400-82312b1466ce" d="M171,164.05h1.89v7.21a9.07,9.07,0,0,1-3.15,1.8,11.28,11.28,0,0,1-3.78.63,10.91,10.91,0,0,1-5.13-1.26,9.34,9.34,0,0,1-3.6-3.43,9.12,9.12,0,0,1-1.26-4.95,10.32,10.32,0,0,1,1.26-5,8.26,8.26,0,0,1,3.6-3.42,10.79,10.79,0,0,1,5.13-1.26,11.15,11.15,0,0,1,4,.72,7.92,7.92,0,0,1,3.06,2.07l-1.26,1.26a8,8,0,0,0-5.67-2.25,9.15,9.15,0,0,0-4.14,1A7.79,7.79,0,0,0,159,160a8,8,0,0,0,0,8,7.18,7.18,0,0,0,2.88,2.8,9.22,9.22,0,0,0,9.09-.45Z" transform="translate(-30.15 -20.02)"/><path class="a36387c4-3c53-45ab-a400-82312b1466ce" d="M181.77,172.34a9.34,9.34,0,0,1-3.6-3.43,9,9,0,0,1-1.26-4.95,10.32,10.32,0,0,1,1.26-5,8.73,8.73,0,0,1,3.6-3.42,10.79,10.79,0,0,1,5.13-1.26,10.19,10.19,0,0,1,5,1.26,8.5,8.5,0,0,1,3.51,3.42,10.1,10.1,0,0,1,1.26,5,10.29,10.29,0,0,1-1.26,4.95,9.86,9.86,0,0,1-3.51,3.43,10.55,10.55,0,0,1-5,1.26A9.47,9.47,0,0,1,181.77,172.34Zm9.09-1.53a7.53,7.53,0,0,0,3.78-6.85,9.07,9.07,0,0,0-1-4.05,7.53,7.53,0,0,0-6.84-3.78,8.51,8.51,0,0,0-4.05,1,7.79,7.79,0,0,0-2.88,2.79A7.51,7.51,0,0,0,178.8,164a7.88,7.88,0,0,0,1.08,4,6.6,6.6,0,0,0,2.88,2.8,9,9,0,0,0,4.05,1A6.85,6.85,0,0,0,190.86,170.81Z" transform="translate(-30.15 -20.02)"/><path class="a36387c4-3c53-45ab-a400-82312b1466ce" d="M217,154.6v18.91h-1.62L203.19,158.2v15.31h-2V154.6h1.62L215,169.91V154.6Z" transform="translate(-30.15 -20.02)"/><path class="a36387c4-3c53-45ab-a400-82312b1466ce" d="M233.36,172.43a8.67,8.67,0,0,1-3.52-3.43,9.3,9.3,0,0,1-1.26-4.95,10.43,10.43,0,0,1,1.26-5,9.18,9.18,0,0,1,3.52-3.42,10.73,10.73,0,0,1,8.91-.54,8.87,8.87,0,0,1,3.06,2.07l-1.26,1.26a7.36,7.36,0,0,0-5.58-2.25,8.51,8.51,0,0,0-4.05,1,7.72,7.72,0,0,0-2.88,10.71,7.12,7.12,0,0,0,2.88,2.8,8,8,0,0,0,4.05,1,7.33,7.33,0,0,0,5.58-2.26l1.26,1.27a7.47,7.47,0,0,1-3.06,2.07,11.15,11.15,0,0,1-3.87.72A9.68,9.68,0,0,1,233.36,172.43Z" transform="translate(-30.15 -20.02)"/><path class="a36387c4-3c53-45ab-a400-82312b1466ce" d="M252.44,172.34a9.41,9.41,0,0,1-3.6-3.43,9,9,0,0,1-1.26-4.95,10.43,10.43,0,0,1,1.26-5,8.85,8.85,0,0,1,3.6-3.42,10.82,10.82,0,0,1,5.13-1.26,10.23,10.23,0,0,1,5.05,1.26,8.5,8.5,0,0,1,3.51,3.42,10.21,10.21,0,0,1,1.26,5,10.4,10.4,0,0,1-1.26,4.95,9.86,9.86,0,0,1-3.51,3.43,10.59,10.59,0,0,1-5.05,1.26A10,10,0,0,1,252.44,172.34Zm9.19-1.53a7.57,7.57,0,0,0,3.78-6.85,9.07,9.07,0,0,0-1-4.05,7.55,7.55,0,0,0-6.85-3.78,8.54,8.54,0,0,0-4,1,7.86,7.86,0,0,0-2.88,2.79,7.6,7.6,0,0,0-1.08,4.05,8.08,8.08,0,0,0,1.08,4,6.65,6.65,0,0,0,2.88,2.8,9.1,9.1,0,0,0,4,1A7.23,7.23,0,0,0,261.63,170.81Z" transform="translate(-30.15 -20.02)"/><path class="a36387c4-3c53-45ab-a400-82312b1466ce" d="M287.74,154.6v18.91h-1.62L274,158.2v15.31h-2.07V154.6h1.62l12.16,15.31V154.6Z" transform="translate(-30.15 -20.02)"/><path class="a36387c4-3c53-45ab-a400-82312b1466ce" d="M295,172.94a7.88,7.88,0,0,1-3-1.8l.81-1.53a6.78,6.78,0,0,0,2.7,1.62,9.56,9.56,0,0,0,3.51.63,6.21,6.21,0,0,0,3.78-.9,3,3,0,0,0,1.26-2.43,2.52,2.52,0,0,0-.72-1.8,4.65,4.65,0,0,0-1.71-1.08,17.1,17.1,0,0,0-2.79-.81,28.89,28.89,0,0,1-3.42-1.08,5.34,5.34,0,0,1-2.16-1.53,4,4,0,0,1-.9-2.8,5.13,5.13,0,0,1,.72-2.61,5,5,0,0,1,2.34-1.89,10,10,0,0,1,3.87-.72,11.93,11.93,0,0,1,3.15.45,9.25,9.25,0,0,1,2.7,1.26l-.72,1.62a9.16,9.16,0,0,0-5.13-1.53,6.55,6.55,0,0,0-3.78,1,3,3,0,0,0-1.26,2.43,2.49,2.49,0,0,0,.72,1.8,4.55,4.55,0,0,0,1.71,1.09,22.28,22.28,0,0,0,2.79.81c1.35.36,2.52.72,3.33,1a5.16,5.16,0,0,1,2.16,1.53,3.9,3.9,0,0,1,.9,2.7,4.45,4.45,0,0,1-.81,2.61,4.89,4.89,0,0,1-2.34,1.89,10.11,10.11,0,0,1-4,.72A12.13,12.13,0,0,1,295,172.94Z" transform="translate(-30.15 -20.02)"/><path class="a36387c4-3c53-45ab-a400-82312b1466ce" d="M312.4,171.53a8.56,8.56,0,0,1-2.07-6.13V154.6h2v10.71a7.27,7.27,0,0,0,1.45,5,6.57,6.57,0,0,0,8.64,0,7.1,7.1,0,0,0,1.53-5V154.6h2v10.8a8.52,8.52,0,0,1-2.07,6.13,7.34,7.34,0,0,1-5.67,2.07A7.71,7.71,0,0,1,312.4,171.53Z" transform="translate(-30.15 -20.02)"/><path class="a36387c4-3c53-45ab-a400-82312b1466ce" d="M331.85,154.6h2v17.2h10.63v1.71H331.85Z" transform="translate(-30.15 -20.02)"/><path class="a36387c4-3c53-45ab-a400-82312b1466ce" d="M349.68,156.31H343V154.6h15.3v1.71h-6.66v17.2h-2Z" transform="translate(-30.15 -20.02)"/><path class="a36387c4-3c53-45ab-a400-82312b1466ce" d="M361.56,154.6h2v18.91h-2Z" transform="translate(-30.15 -20.02)"/><path class="a36387c4-3c53-45ab-a400-82312b1466ce" d="M385.51,154.6v18.91h-1.62L371.74,158.2v15.31h-2V154.6h1.62l12.15,15.31V154.6Z" transform="translate(-30.15 -20.02)"/><path class="a36387c4-3c53-45ab-a400-82312b1466ce" d="M405,164.05h1.89v7.21a9.16,9.16,0,0,1-3.15,1.8,11.36,11.36,0,0,1-3.78.63,10.91,10.91,0,0,1-5.13-1.26,9.44,9.44,0,0,1-3.61-3.43,9.3,9.3,0,0,1-1.26-4.95,10.43,10.43,0,0,1,1.26-5,8.28,8.28,0,0,1,3.61-3.42,10.79,10.79,0,0,1,5.13-1.26,11.19,11.19,0,0,1,4,.72,8,8,0,0,1,3.06,2.07l-1.26,1.26a8,8,0,0,0-5.67-2.25,9.15,9.15,0,0,0-4.14,1A7.25,7.25,0,0,0,393,160a7.69,7.69,0,0,0-1.08,4.05,7.54,7.54,0,0,0,1.08,4,7.21,7.21,0,0,0,2.89,2.8,9.22,9.22,0,0,0,9.09-.45Z" transform="translate(-30.15 -20.02)"/><path class="a36387c4-3c53-45ab-a400-82312b1466ce" d="M318.93,251.09h-2.7v-.72h6.21v.72h-2.7v7h-.81Z" transform="translate(-30.15 -20.02)"/><path class="a36387c4-3c53-45ab-a400-82312b1466ce" d="M329.2,257.39v.72h-5.5v-7.74H329v.72h-4.51v2.7h4v.72h-4v2.88Z" transform="translate(-30.15 -20.02)"/><path class="a36387c4-3c53-45ab-a400-82312b1466ce" d="M332.35,257.57a3.63,3.63,0,0,1-1.44-1.44,3.74,3.74,0,0,1-.54-2,4,4,0,0,1,2-3.42,4.15,4.15,0,0,1,2.07-.54,5,5,0,0,1,1.62.27,3.73,3.73,0,0,1,1.26.81l-.54.54a3,3,0,0,0-2.25-.9,3.09,3.09,0,0,0-1.62.45,2.42,2.42,0,0,0-1.17,1.17,3.14,3.14,0,0,0,0,3.24,2.93,2.93,0,0,0,1.17,1.17,3.68,3.68,0,0,0,1.62.45,2.86,2.86,0,0,0,2.25-.9l.54.54a3.07,3.07,0,0,1-1.26.81,4.48,4.48,0,0,1-1.62.27A3.93,3.93,0,0,1,332.35,257.57Z" transform="translate(-30.15 -20.02)"/><path class="a36387c4-3c53-45ab-a400-82312b1466ce" d="M345.4,250.37v7.74h-.81v-3.6h-4.86v3.6h-.81v-7.74h.81v3.42h4.86v-3.42Z" transform="translate(-30.15 -20.02)"/><path class="a36387c4-3c53-45ab-a400-82312b1466ce" d="M356.3,258.2l-1.08-1.08a3.65,3.65,0,0,1-4,.81,1.5,1.5,0,0,1-.9-.72,2,2,0,0,1-.36-1,2.19,2.19,0,0,1,.45-1.26,6,6,0,0,1,1.53-1.17,3.19,3.19,0,0,1-.72-1,1.44,1.44,0,0,1-.18-.81,1.46,1.46,0,0,1,.54-1.17,2.28,2.28,0,0,1,1.44-.45,2.16,2.16,0,0,1,1.36.45,1.23,1.23,0,0,1,.45,1.08,1.44,1.44,0,0,1-.36,1,6.32,6.32,0,0,1-1.36,1l2.08,2.16a4,4,0,0,0,.54-1.53l.63.18a5.53,5.53,0,0,1-.72,1.8l1.08,1.17Zm-1.53-1.62-2.35-2.43a5.8,5.8,0,0,0-1.26.9,1.3,1.3,0,0,0-.36.9,1.14,1.14,0,0,0,.54,1,2.17,2.17,0,0,0,1.35.36A1.93,1.93,0,0,0,354.77,256.58Zm-2.62-5.4a1.13,1.13,0,0,0-.36.72,1.39,1.39,0,0,0,.18.63,4.64,4.64,0,0,0,.72.81c.54-.36.91-.63,1.18-.81a.86.86,0,0,0,.36-.72,1,1,0,0,0-.27-.72,1.08,1.08,0,0,0-.82-.27A1.74,1.74,0,0,0,352.15,251.18Z" transform="translate(-30.15 -20.02)"/><path class="a36387c4-3c53-45ab-a400-82312b1466ce" d="M369.08,250.37v7.74h-.81V252l-3.06,5.22h-.36l-3.06-5.13v6.12H361v-7.83h.63l3.33,5.67,3.33-5.67Z" transform="translate(-30.15 -20.02)"/><path class="a36387c4-3c53-45ab-a400-82312b1466ce" d="M376.46,256h-4.32l-.9,2.07h-.9l3.51-7.74h.81l3.51,7.74h-.9Zm-.36-.63-1.89-4.14-1.89,4.14Z" transform="translate(-30.15 -20.02)"/><path class="a36387c4-3c53-45ab-a400-82312b1466ce" d="M385.92,250.37v7.74h-.63l-5-6.21v6.21h-.81v-7.74h.63l5,6.21v-6.21Z" transform="translate(-30.15 -20.02)"/><path class="a36387c4-3c53-45ab-a400-82312b1466ce" d="M393.34,256H389l-.9,2.07h-.81l3.51-7.74h.81l3.52,7.74h-.91Zm-.36-.63-1.89-4.14-1.89,4.14Z" transform="translate(-30.15 -20.02)"/><path class="a36387c4-3c53-45ab-a400-82312b1466ce" d="M401.67,254.24h.81v3a3.51,3.51,0,0,1-1.26.72,4.22,4.22,0,0,1-1.53.27,4,4,0,0,1-2.07-.54,3.76,3.76,0,0,1-1.44-1.44,3.83,3.83,0,0,1-.54-2,3.54,3.54,0,0,1,.54-2,3.69,3.69,0,0,1,1.44-1.44,4.18,4.18,0,0,1,2.07-.54,4.28,4.28,0,0,1,1.62.27,3.73,3.73,0,0,1,1.26.81l-.54.54a3,3,0,0,0-2.34-.9,3.67,3.67,0,0,0-1.71.45,2.46,2.46,0,0,0-1.17,1.17,3.14,3.14,0,0,0,0,3.24A3.54,3.54,0,0,0,398,257a3.67,3.67,0,0,0,1.71.45,2.89,2.89,0,0,0,2-.63v-2.61Z" transform="translate(-30.15 -20.02)"/><path class="a36387c4-3c53-45ab-a400-82312b1466ce" d="M410.23,257.39v.72h-5.5v-7.74h5.32v.72h-4.51v2.7h4v.72h-4v2.88Z" transform="translate(-30.15 -20.02)"/><path class="a36387c4-3c53-45ab-a400-82312b1466ce" d="M420.13,250.37v7.74h-.81V252l-3.06,5.22h-.36l-3.06-5.13v6.12H412v-7.83h.63L416,256l3.33-5.67Z" transform="translate(-30.15 -20.02)"/><path class="a36387c4-3c53-45ab-a400-82312b1466ce" d="M428.05,257.39v.72h-5.49v-7.74h5.31v.72h-4.5v2.7h4v.72h-3.87v2.88Z" transform="translate(-30.15 -20.02)"/><path class="a36387c4-3c53-45ab-a400-82312b1466ce" d="M436.43,250.37v7.74h-.63l-5-6.21v6.21H430v-7.74h.63l5,6.21v-6.21Z" transform="translate(-30.15 -20.02)"/><path class="a36387c4-3c53-45ab-a400-82312b1466ce" d="M440.48,251.09h-2.7v-.72H444v.72h-2.7v7h-.81Z" transform="translate(-30.15 -20.02)"/><path class="a36387c4-3c53-45ab-a400-82312b1466ce" d="M451.78,112.32a3.77,3.77,0,0,1,.72,2.25,3.11,3.11,0,0,1-1.35,2.7,6.62,6.62,0,0,1-3.88,1h-6.39V104.4h5.94a6.11,6.11,0,0,1,3.61.9,3.21,3.21,0,0,1,1.26,2.61,3.54,3.54,0,0,1-.54,2,3.39,3.39,0,0,1-1.53,1.17A5.14,5.14,0,0,1,451.78,112.32Zm-9.46-6.66v5h4.41a4.54,4.54,0,0,0,2.62-.63,2.43,2.43,0,0,0,.34-3.43,2.26,2.26,0,0,0-.34-.35,4.32,4.32,0,0,0-2.62-.63Zm7.75,10.8a2.28,2.28,0,0,0,1-2c0-1.71-1.26-2.61-3.79-2.61h-4.86v5.25h4.86A5,5,0,0,0,450.07,116.46Z" transform="translate(-30.15 -20.02)"/><path class="a36387c4-3c53-45ab-a400-82312b1466ce" d="M465.64,117.12v1.26h-9.81V104.51h9.54v1.26h-8v5h7.2V112h-7.2v5.13Z" transform="translate(-30.15 -20.02)"/><path class="a36387c4-3c53-45ab-a400-82312b1466ce" d="M470,117.9a5.56,5.56,0,0,1-2.16-1.35l.54-1.17a6.35,6.35,0,0,0,2,1.26,8.32,8.32,0,0,0,2.61.45,4.64,4.64,0,0,0,2.79-.72,2.11,2.11,0,0,0,.91-1.8,1.82,1.82,0,0,0-.54-1.35,3,3,0,0,0-1.27-.72,12.11,12.11,0,0,0-2.07-.54c-1.08-.27-1.89-.54-2.52-.72a5.17,5.17,0,0,1-1.62-1.08,2.88,2.88,0,0,1-.63-2.07,3.41,3.41,0,0,1,.54-1.89,3.78,3.78,0,0,1,1.71-1.35,7.88,7.88,0,0,1,5.22-.18,6.62,6.62,0,0,1,2,.9l-.45,1.17a8.93,8.93,0,0,0-1.9-.9,7.33,7.33,0,0,0-2-.27,4.39,4.39,0,0,0-2.7.72,2.13,2.13,0,0,0-.9,1.8,1.82,1.82,0,0,0,.54,1.35,3.07,3.07,0,0,0,1.26.81,18.52,18.52,0,0,0,2.07.54c1,.27,1.8.54,2.43.72a5.1,5.1,0,0,1,1.63,1.08,2.78,2.78,0,0,1,.63,2,3.41,3.41,0,0,1-.54,1.89,4.37,4.37,0,0,1-1.72,1.35,8.88,8.88,0,0,1-5.85.09Z" transform="translate(-30.15 -20.02)"/><path class="a36387c4-3c53-45ab-a400-82312b1466ce" d="M490.58,105.75a4.28,4.28,0,0,1,1.53,3.51,4.41,4.41,0,0,1-1.53,3.51,6.49,6.49,0,0,1-4.14,1.26h-3.69v4.41h-1.44V104.58h5.22A5.3,5.3,0,0,1,490.58,105.75Zm-1,6a3.12,3.12,0,0,0,1.08-2.52,3.3,3.3,0,0,0-1.08-2.61,4.69,4.69,0,0,0-3.15-.9h-3.69v6.93h3.69A5.27,5.27,0,0,0,489.59,111.78Z" transform="translate(-30.15 -20.02)"/><path class="a36387c4-3c53-45ab-a400-82312b1466ce" d="M497.78,117.54a7,7,0,0,1-2.61-2.52,7.65,7.65,0,0,1,0-7.2,7,7,0,0,1,2.61-2.52,8,8,0,0,1,7.39,0,7,7,0,0,1,2.73,9.5,6.86,6.86,0,0,1-2.73,2.74,7.15,7.15,0,0,1-3.7.9A7.36,7.36,0,0,1,497.78,117.54Zm6.76-1.17a5.16,5.16,0,0,0,2.07-2.07,5.59,5.59,0,0,0,.72-3,6.67,6.67,0,0,0-.72-3,5.78,5.78,0,0,0-2.07-2.07,5.65,5.65,0,0,0-3-.72,6.54,6.54,0,0,0-3,.72,4.61,4.61,0,0,0-2.07,2.07,5.59,5.59,0,0,0-.72,3,6.67,6.67,0,0,0,.72,3,5.71,5.71,0,0,0,2.07,2.07,6.54,6.54,0,0,0,3,.72A5.65,5.65,0,0,0,504.54,116.37Z" transform="translate(-30.15 -20.02)"/><path class="a36387c4-3c53-45ab-a400-82312b1466ce" d="M516.42,111.78l-2.79,2.88v3.6h-1.44V104.4h1.44v8.37l8.1-8.37h1.71l-6,6.3,6.39,7.56h-1.71Z" transform="translate(-30.15 -20.02)"/><path class="a36387c4-3c53-45ab-a400-82312b1466ce" d="M536,117.12v1.26h-9.82V104.51h9.55v1.26h-8v5h7.21V112h-7.21v5.13Z" transform="translate(-30.15 -20.02)"/><path class="a36387c4-3c53-45ab-a400-82312b1466ce" d="M40.06,219.51V229.6h-.91l-6.48-8.2v8.2H31.59V219.51h.9l6.48,8.2v-8.2Z" transform="translate(-30.15 -20.02)"/><path class="a36387c4-3c53-45ab-a400-82312b1466ce" d="M43.3,219.51h1.08V229.6H43.3Z" transform="translate(-30.15 -20.02)"/><path class="a36387c4-3c53-45ab-a400-82312b1466ce" d="M58.15,219.51V229.6h-1v-8.11l-4,6.76h-.54l-4-6.76v8h-1V219.42h.9L53,226.9l4.32-7.48h.81Z" transform="translate(-30.15 -20.02)"/><path class="a36387c4-3c53-45ab-a400-82312b1466ce" d="M69.32,225.28a2.55,2.55,0,0,1,.54,1.62,2.3,2.3,0,0,1-1,2,5,5,0,0,1-2.8.72H61.39V219.51h4.32a4.57,4.57,0,0,1,2.62.72,2.2,2.2,0,0,1,.9,1.89,2.69,2.69,0,0,1-.45,1.44,2.5,2.5,0,0,1-1.17.91A2.38,2.38,0,0,1,69.32,225.28Zm-6.85-4.87v3.69h3.24a3.61,3.61,0,0,0,1.9-.45,1.51,1.51,0,0,0,.63-1.35,1.45,1.45,0,0,0-.63-1.35,3.81,3.81,0,0,0-1.9-.45H62.47Zm5.59,7.84a1.67,1.67,0,0,0,.72-1.44c0-1.26-.9-1.89-2.71-1.89h-3.6v3.78h3.6a3.93,3.93,0,0,0,2-.45Z" transform="translate(-30.15 -20.02)"/><path class="a36387c4-3c53-45ab-a400-82312b1466ce" d="M72.29,219.51h1.08v9.19H79v.9H72.29Z" transform="translate(-30.15 -20.02)"/><path class="a36387c4-3c53-45ab-a400-82312b1466ce" d="M87.86,228.7v.9H80.75V219.51h6.93v.9H81.83V224h5.22v.91H81.83v3.78Z" transform="translate(-30.15 -20.02)"/><rect class="a2b4005a-10a6-496d-92a9-459e88231758" x="307.44" width="62.7" height="31.5"/></svg>